STARTFONT 2.1
FONT -DIGITAL-VT220-medium-I-Normal-136col-100-1000-75-75-c-450-iso10646-1
SIZE 100 75 75
FONTBOUNDINGBOX 78 100 -16 -20
STARTPROPERTIES 21
FOUNDRY "DIGITAL"
FAMILY_NAME "vt220"
WEIGHT_NAME "medium"
RELATIVE_SETWIDTH 50
SLANT "I"
SETWIDTH_NAME "Normal"
ADD_STYLE_NAME "136col"
PIXEL_SIZE 100
POINT_SIZE 1000
RESOLUTION_X 75
RESOLUTION_Y 75
SPACING "c"
CHARSET_REGISTRY "ISO10646"
CHARSET_ENCODING "1"
CAP_HEIGHT 70
X_HEIGHT 50
WEIGHT 10
QUAD_WIDTH 45
FONT_ASCENT 80
FONT_DESCENT 20
AVERAGE_WIDTH 450
ENDPROPERTIES
CHARS 237
STARTCHAR U+00FD
ENCODING 253
SWIDTH 1000 0
DWIDTH 45 0
BBX 78 100 -16 -20
BITMAP
00000000000000000000
00000000000000000000
00000000000000000000
00000000000000000000
00000000000000000000
00000000000000000000
00000000000000000000
00000000000000000000
00000000000000000000
00000000000000000000
00000000000000000000
00000000000000000000
00000000000000000000
00000000000000000000
00000000000000000000
00000000000000000000
00000000000000000000
00000000000000000000
00000000000000000000
00000000000000000000
00000000000000000000
00000000000000000000
00000000000000000000
00000000000000000000
00000000000000000000
00000000000000000000
00000000000000000000
00000000000000000000
00000000000000000000
00000000000000000000
00000000000000000000
00000000000000000000
00000000000000000000
00000000000000000000
00000000000000000000
00000000000000000000
00000000000000000000
00000000000000000000
00000000000000000000
00000000000000000000
00000000000000000000
00000000000000000000
00000000000000000000
00000000000000000000
00000000000000000000
00000000000000000000
00000000000000000000
00000000000000000000
00000000000000000000
00000000000000000000
00000000000000000000
00000000000000000000
00000000000000000000
00000000000000000000
00000000000000000000
00000000000000000000
00000000000000000000
00000000000000000000
00000000000000000000
00000000000000000000
00000000000000000000
00000000000000000000
00000000000000000000
00000000000000000000
00000000000000000000
00000000000000000000
00000000000000000000
00000000000000000000
00000000000000000000
00000000000000000000
00000000000000000000
00000000000000000000
00000000000000000000
00000000000000000000
00000000000000000000
00000000000000000000
00000000000000000000
00000000000000000000
00000000000000000000
00000000000000000000
00000000000000000000
00000000000000000000
00000000000000000000
00000000000000000000
00000000000000000000
00000000000000000000
00000000000000000000
00000000000000000000
00000000000000000000
00000000000000000000
00000000000000000000
00000000000000000000
00000000000000000000
00000000000000000000
00000000000000000000
00000000000000000000
00000000000000000000
00000000000000000000
00000000000000000000
00000000000000000000
ENDCHAR
STARTCHAR U+25A1
ENCODING 9633
SWIDTH 1000 0
DWIDTH 45 0
BBX 78 100 -16 -20
BITMAP
00000000000000000000
00000000000000000000
00000000000000000000
00000000000000000000
00000000000000000000
00000000000000000000
00000000000000000000
00000000000000000000
00000000000000000000
00000000000000000000
00000003FFFFFFFFFC00
00000003FFFFFFFFFC00
00000007FFFFFFFFF800
00000007FFFFFFFFF800
00000007FFFFFFFFF800
0000000FFFFFFFFFF000
0000000FFFFFFFFFF000
0000000FFFFFFFFFF000
0000001FFFFFFFFFE000
0000001FFFFFFFFFE000
0000001FF800007FE000
0000003FF00000FFC000
0000003FF00000FFC000
0000003FF00000FFC000
0000007FE00001FF8000
0000007FE00001FF8000
0000007FE00001FF8000
000000FFC00003FF0000
000000FFC00003FF0000
000000FFC00003FF0000
000001FF800007FE0000
000001FF800007FE0000
000001FF800007FE0000
000003FF00000FFC0000
000003FF00000FFC0000
000003FF00000FFC0000
000007FE00001FF80000
000007FE00001FF80000
000007FE00001FF80000
00000FFC00003FF00000
00000FFC00003FF00000
00000FFC00003FF00000
00001FF800007FE00000
00001FF800007FE00000
00001FF800007FE00000
00003FF00000FFC00000
00003FF00000FFC00000
00003FF00000FFC00000
00007FE00001FF800000
00007FE00001FF800000
00007FE00001FF800000
0000FFC00003FF000000
0000FFC00003FF000000
0000FFC00003FF000000
0001FF800007FE000000
0001FF800007FE000000
0001FF800007FE000000
0003FF00000FFC000000
0003FF00000FFC000000
0003FF00000FFC000000
0007FE00001FF8000000
0007FE00001FF8000000
0007FE00001FF8000000
000FFC00003FF0000000
000FFC00003FF0000000
000FFC00003FF0000000
001FF800007FE0000000
001FF800007FE0000000
001FF800007FE0000000
003FF00000FFC0000000
003FFFFFFFFFC0000000
003FFFFFFFFFC0000000
007FFFFFFFFF80000000
007FFFFFFFFF80000000
007FFFFFFFFF80000000
00FFFFFFFFFF00000000
00FFFFFFFFFF00000000
00FFFFFFFFFF00000000
01FFFFFFFFFE00000000
01FFFFFFFFFE00000000
00000000000000000000
00000000000000000000
00000000000000000000
00000000000000000000
00000000000000000000
00000000000000000000
00000000000000000000
00000000000000000000
00000000000000000000
00000000000000000000
00000000000000000000
00000000000000000000
00000000000000000000
00000000000000000000
00000000000000000000
00000000000000000000
00000000000000000000
00000000000000000000
00000000000000000000
00000000000000000000
ENDCHAR
STARTCHAR U+00FE
ENCODING 254
SWIDTH 1000 0
DWIDTH 45 0
BBX 78 100 -16 -20
BITMAP
00000000000000000000
00000000000000000000
00000000000000000000
00000000000000000000
00000000000000000000
00000000000000000000
00000000000000000000
00000000000000000000
00000000000000000000
00000000000000000000
00000003FF0000000000
00000003FF0000000000
00000007FE0000000000
00000007FE0000000000
00000007FE0000000000
0000000FFC0000000000
0000000FFC0000000000
0000000FFC0000000000
0000001FF80000000000
0000001FF80000000000
0000001FF80000000000
0000003FF00000000000
0000003FF00000000000
0000003FF00000000000
0000007FE00000000000
0000007FE00000000000
0000007FE00000000000
000000FFC00000000000
000000FFC00000000000
000000FFC00000000000
000001FFFFFFFFC00000
000001FFFFFFFFC00000
000001FFFFFFFFC00000
000003FFFFFFFF800000
000003FFFFFFFF800000
000003FFFFFFFF800000
000007FFFFFFFF000000
000007FFFFFFFF000000
000007FFFFFFFF000000
00000FFFFFFFFE000000
00000FFFE0003FF00000
00000FFFE0003FF00000
00001FFFC0007FE00000
00001FFFC0007FE00000
00001FFFC0007FE00000
00003FFF8000FFC00000
00003FFF8000FFC00000
00003FFF8000FFC00000
00007FFF0001FF800000
00007FFF0001FF800000
00007FFF0001FF800000
0000FFFE0003FF000000
0000FFFE0003FF000000
0000FFFE0003FF000000
0001FFFC0007FE000000
0001FFFC0007FE000000
0001FFFC0007FE000000
0003FFF8000FFC000000
0003FFF8000FFC000000
0003FFF8000FFC000000
0007FFFFFFFF00000000
0007FFFFFFFF00000000
0007FFFFFFFF00000000
000FFFFFFFFE00000000
000FFFFFFFFE00000000
000FFFFFFFFE00000000
001FFFFFFFFC00000000
001FFFFFFFFC00000000
001FFFFFFFFC00000000
003FFFFFFFF800000000
003FF000000000000000
003FF000000000000000
007FE000000000000000
007FE000000000000000
007FE000000000000000
00FFC000000000000000
00FFC000000000000000
00FFC000000000000000
01FF8000000000000000
01FF8000000000000000
01FF8000000000000000
03FF0000000000000000
03FF0000000000000000
03FF0000000000000000
07FE0000000000000000
07FE0000000000000000
07FE0000000000000000
0FFC0000000000000000
0FFC0000000000000000
0FFC0000000000000000
1FF80000000000000000
1FF80000000000000000
1FF80000000000000000
3FF00000000000000000
3FF00000000000000000
3FF00000000000000000
7FE00000000000000000
7FE00000000000000000
7FE00000000000000000
FFC00000000000000000
ENDCHAR
STARTCHAR U+00FF
ENCODING 255
SWIDTH 1000 0
DWIDTH 45 0
BBX 78 100 -16 -20
BITMAP
00000000000000000000
00000000000000000000
00000000000000000000
00000000000000000000
00000000000000000000
00000000000000000000
00000000000000000000
00000000000000000000
00000000000000000000
00000000000000000000
000000001FF801FF8000
000000001FF801FF8000
000000003FF003FF0000
000000003FF003FF0000
000000003FF003FF0000
000000007FE007FE0000
000000007FE007FE0000
000000007FE007FE0000
00000000FFC00FFC0000
00000000FFC00FFC0000
00000000000000000000
00000000000000000000
00000000000000000000
00000000000000000000
00000000000000000000
00000000000000000000
00000000000000000000
00000000000000000000
00000000000000000000
00000000000000000000
000001FF8000FFC00000
000001FF8000FFC00000
000001FF8000FFC00000
000003FF0001FF800000
000003FF0001FF800000
000003FF0001FF800000
000007FE0003FF000000
000007FE0003FF000000
000007FE0003FF000000
00000FFC0007FE000000
00000FFC0007FE000000
00000FFC0007FE000000
00001FF8000FFC000000
00001FF8000FFC000000
00001FF8000FFC000000
00003FF0001FF8000000
00003FF0001FF8000000
00003FF0001FF8000000
00007FE0003FF0000000
00007FE0003FF0000000
00007FE007FFF0000000
0000FFC00FFFE0000000
0000FFC00FFFE0000000
0000FFC00FFFE0000000
0001FF801FFFC0000000
0001FF801FFFC0000000
0001FF801FFFC0000000
0003FF003FFF80000000
0003FF003FFF80000000
0003FF003FFF80000000
00003FFFFFFF00000000
00003FFFFFFF00000000
00003FFFFFFF00000000
00007FFFFFFE00000000
00007FFFFFFE00000000
00007FFFFFFE00000000
0000FFFFFFFC00000000
0000FFFFFFFC00000000
0000FFFFFFFC00000000
0001FFFFFFF800000000
000000001FF800000000
000000001FF800000000
000000003FF000000000
000000003FF000000000
000000003FF000000000
000000007FE000000000
000000007FE000000000
000000007FE000000000
00000000FFC000000000
00000000FFC000000000
01FF8000FFC000000000
03FF0001FF8000000000
03FF0001FF8000000000
03FF0001FF8000000000
07FE0003FF0000000000
07FE0003FF0000000000
07FE0003FF0000000000
0FFC0007FE0000000000
0FFC0007FE0000000000
0FFC0007FE0000000000
00FFFFFF800000000000
00FFFFFF800000000000
00FFFFFF800000000000
01FFFFFF000000000000
01FFFFFF000000000000
01FFFFFF000000000000
03FFFFFE000000000000
03FFFFFE000000000000
03FFFFFE000000000000
07FFFFFC000000000000
ENDCHAR
STARTCHAR U+00FC
ENCODING 252
SWIDTH 1000 0
DWIDTH 45 0
BBX 78 100 -16 -20
BITMAP
00000000000000000000
00000000000000000000
00000000000000000000
00000000000000000000
00000000000000000000
00000000000000000000
00000000000000000000
00000000000000000000
00000000000000000000
00000000000000000000
000000001FF801FF8000
000000001FF801FF8000
000000003FF003FF0000
000000003FF003FF0000
000000003FF003FF0000
000000007FE007FE0000
000000007FE007FE0000
000000007FE007FE0000
00000000FFC00FFC0000
00000000FFC00FFC0000
00000000000000000000
00000000000000000000
00000000000000000000
00000000000000000000
00000000000000000000
00000000000000000000
00000000000000000000
00000000000000000000
00000000000000000000
00000000000000000000
000001FF8000FFC00000
000001FF8000FFC00000
000001FF8000FFC00000
000003FF0001FF800000
000003FF0001FF800000
000003FF0001FF800000
000007FE0003FF000000
000007FE0003FF000000
000007FE0003FF000000
00000FFC0007FE000000
00000FFC0007FE000000
00000FFC0007FE000000
00001FF8000FFC000000
00001FF8000FFC000000
00001FF8000FFC000000
00003FF0001FF8000000
00003FF0001FF8000000
00003FF0001FF8000000
00007FE0003FF0000000
00007FE0003FF0000000
00007FE0003FF0000000
0000FFC0007FE0000000
0000FFC0007FE0000000
0000FFC0007FE0000000
0001FF8000FFC0000000
0001FF8000FFC0000000
0001FF8000FFC0000000
0003FF0001FF80000000
0003FF0001FF80000000
0003FF0001FF80000000
0007FE0003FF00000000
0007FE0003FF00000000
0007FE0003FF00000000
000FFC0007FE00000000
000FFC0007FE00000000
000FFC0007FE00000000
001FF8000FFC00000000
001FF8000FFC00000000
001FF8000FFC00000000
003FF0001FF800000000
0001FFFFFFFFC0000000
0001FFFFFFFFC0000000
0003FFFFFFFF80000000
0003FFFFFFFF80000000
0003FFFFFFFF80000000
0007FFFFFFFF00000000
0007FFFFFFFF00000000
0007FFFFFFFF00000000
000FFFFFFFFE00000000
000FFFFFFFFE00000000
00000000000000000000
00000000000000000000
00000000000000000000
00000000000000000000
00000000000000000000
00000000000000000000
00000000000000000000
00000000000000000000
00000000000000000000
00000000000000000000
00000000000000000000
00000000000000000000
00000000000000000000
00000000000000000000
00000000000000000000
00000000000000000000
00000000000000000000
00000000000000000000
00000000000000000000
00000000000000000000
ENDCHAR
STARTCHAR U+00FB
ENCODING 251
SWIDTH 1000 0
DWIDTH 45 0
BBX 78 100 -16 -20
BITMAP
00000000001FFFFE0000
00000000001FFFFE0000
00000000001FFFFE0000
00000000003FFFFC0000
00000000003FFFFC0000
00000000003FFFFC0000
00000000007FFFF80000
00000000007FFFF80000
00000000007FFFF80000
0000000000FFFFF00000
000000001FF801FF8000
000000001FF801FF8000
000000003FF003FF0000
000000003FF003FF0000
000000003FF003FF0000
000000007FE007FE0000
000000007FE007FE0000
000000007FE007FE0000
00000000FFC00FFC0000
00000000FFC00FFC0000
00000000000000000000
00000000000000000000
00000000000000000000
00000000000000000000
00000000000000000000
00000000000000000000
00000000000000000000
00000000000000000000
00000000000000000000
00000000000000000000
000001FF8000FFC00000
000001FF8000FFC00000
000001FF8000FFC00000
000003FF0001FF800000
000003FF0001FF800000
000003FF0001FF800000
000007FE0003FF000000
000007FE0003FF000000
000007FE0003FF000000
00000FFC0007FE000000
00000FFC0007FE000000
00000FFC0007FE000000
00001FF8000FFC000000
00001FF8000FFC000000
00001FF8000FFC000000
00003FF0001FF8000000
00003FF0001FF8000000
00003FF0001FF8000000
00007FE0003FF0000000
00007FE0003FF0000000
00007FE0003FF0000000
0000FFC0007FE0000000
0000FFC0007FE0000000
0000FFC0007FE0000000
0001FF8000FFC0000000
0001FF8000FFC0000000
0001FF8000FFC0000000
0003FF0001FF80000000
0003FF0001FF80000000
0003FF0001FF80000000
0007FE0003FF00000000
0007FE0003FF00000000
0007FE0003FF00000000
000FFC0007FE00000000
000FFC0007FE00000000
000FFC0007FE00000000
001FF8000FFC00000000
001FF8000FFC00000000
001FF8000FFC00000000
003FF0001FF800000000
0001FFFFFFFFC0000000
0001FFFFFFFFC0000000
0003FFFFFFFF80000000
0003FFFFFFFF80000000
0003FFFFFFFF80000000
0007FFFFFFFF00000000
0007FFFFFFFF00000000
0007FFFFFFFF00000000
000FFFFFFFFE00000000
000FFFFFFFFE00000000
00000000000000000000
00000000000000000000
00000000000000000000
00000000000000000000
00000000000000000000
00000000000000000000
00000000000000000000
00000000000000000000
00000000000000000000
00000000000000000000
00000000000000000000
00000000000000000000
00000000000000000000
00000000000000000000
00000000000000000000
00000000000000000000
00000000000000000000
00000000000000000000
00000000000000000000
00000000000000000000
ENDCHAR
STARTCHAR U+00FA
ENCODING 250
SWIDTH 1000 0
DWIDTH 45 0
BBX 78 100 -16 -20
BITMAP
00000000000000000000
00000000000000000000
00000000000000000000
00000000000000000000
00000000000000000000
00000000000000000000
00000000000000000000
00000000000000000000
00000000000000000000
00000000000000000000
000000000007FFF00000
000000000007FFF00000
00000000000FFFE00000
00000000000FFFE00000
00000000000FFFE00000
00000000001FFFC00000
00000000001FFFC00000
00000000001FFFC00000
00000000003FFF800000
00000000003FFF800000
00000000FFFE00000000
00000001FFFC00000000
00000001FFFC00000000
00000001FFFC00000000
00000003FFF800000000
00000003FFF800000000
00000003FFF800000000
00000007FFF000000000
00000007FFF000000000
00000007FFF000000000
000001FF8000FFC00000
000001FF8000FFC00000
000001FF8000FFC00000
000003FF0001FF800000
000003FF0001FF800000
000003FF0001FF800000
000007FE0003FF000000
000007FE0003FF000000
000007FE0003FF000000
00000FFC0007FE000000
00000FFC0007FE000000
00000FFC0007FE000000
00001FF8000FFC000000
00001FF8000FFC000000
00001FF8000FFC000000
00003FF0001FF8000000
00003FF0001FF8000000
00003FF0001FF8000000
00007FE0003FF0000000
00007FE0003FF0000000
00007FE0003FF0000000
0000FFC0007FE0000000
0000FFC0007FE0000000
0000FFC0007FE0000000
0001FF8000FFC0000000
0001FF8000FFC0000000
0001FF8000FFC0000000
0003FF0001FF80000000
0003FF0001FF80000000
0003FF0001FF80000000
0007FE0003FF00000000
0007FE0003FF00000000
0007FE0003FF00000000
000FFC0007FE00000000
000FFC0007FE00000000
000FFC0007FE00000000
001FF8000FFC00000000
001FF8000FFC00000000
001FF8000FFC00000000
003FF0001FF800000000
0001FFFFFFFFC0000000
0001FFFFFFFFC0000000
0003FFFFFFFF80000000
0003FFFFFFFF80000000
0003FFFFFFFF80000000
0007FFFFFFFF00000000
0007FFFFFFFF00000000
0007FFFFFFFF00000000
000FFFFFFFFE00000000
000FFFFFFFFE00000000
00000000000000000000
00000000000000000000
00000000000000000000
00000000000000000000
00000000000000000000
00000000000000000000
00000000000000000000
00000000000000000000
00000000000000000000
00000000000000000000
00000000000000000000
00000000000000000000
00000000000000000000
00000000000000000000
00000000000000000000
00000000000000000000
00000000000000000000
00000000000000000000
00000000000000000000
00000000000000000000
ENDCHAR
STARTCHAR U+00F9
ENCODING 249
SWIDTH 1000 0
DWIDTH 45 0
BBX 78 100 -16 -20
BITMAP
00000000000000000000
00000000000000000000
00000000000000000000
00000000000000000000
00000000000000000000
00000000000000000000
00000000000000000000
00000000000000000000
00000000000000000000
00000000000000000000
000000001FFFC0000000
000000001FFFC0000000
000000003FFF80000000
000000003FFF80000000
000000003FFF80000000
000000007FFF00000000
000000007FFF00000000
000000007FFF00000000
00000000FFFE00000000
00000000FFFE00000000
00000000003FFF800000
00000000007FFF000000
00000000007FFF000000
00000000007FFF000000
0000000000FFFE000000
0000000000FFFE000000
0000000000FFFE000000
0000000001FFFC000000
0000000001FFFC000000
0000000001FFFC000000
000001FF8000FFC00000
000001FF8000FFC00000
000001FF8000FFC00000
000003FF0001FF800000
000003FF0001FF800000
000003FF0001FF800000
000007FE0003FF000000
000007FE0003FF000000
000007FE0003FF000000
00000FFC0007FE000000
00000FFC0007FE000000
00000FFC0007FE000000
00001FF8000FFC000000
00001FF8000FFC000000
00001FF8000FFC000000
00003FF0001FF8000000
00003FF0001FF8000000
00003FF0001FF8000000
00007FE0003FF0000000
00007FE0003FF0000000
00007FE0003FF0000000
0000FFC0007FE0000000
0000FFC0007FE0000000
0000FFC0007FE0000000
0001FF8000FFC0000000
0001FF8000FFC0000000
0001FF8000FFC0000000
0003FF0001FF80000000
0003FF0001FF80000000
0003FF0001FF80000000
0007FE0003FF00000000
0007FE0003FF00000000
0007FE0003FF00000000
000FFC0007FE00000000
000FFC0007FE00000000
000FFC0007FE00000000
001FF8000FFC00000000
001FF8000FFC00000000
001FF8000FFC00000000
003FF0001FF800000000
0001FFFFFFFFC0000000
0001FFFFFFFFC0000000
0003FFFFFFFF80000000
0003FFFFFFFF80000000
0003FFFFFFFF80000000
0007FFFFFFFF00000000
0007FFFFFFFF00000000
0007FFFFFFFF00000000
000FFFFFFFFE00000000
000FFFFFFFFE00000000
00000000000000000000
00000000000000000000
00000000000000000000
00000000000000000000
00000000000000000000
00000000000000000000
00000000000000000000
00000000000000000000
00000000000000000000
00000000000000000000
00000000000000000000
00000000000000000000
00000000000000000000
00000000000000000000
00000000000000000000
00000000000000000000
00000000000000000000
00000000000000000000
00000000000000000000
00000000000000000000
ENDCHAR
STARTCHAR U+00F8
ENCODING 248
SWIDTH 1000 0
DWIDTH 45 0
BBX 78 100 -16 -20
BITMAP
00000000000000000000
00000000000000000000
00000000000000000000
00000000000000000000
00000000000000000000
00000000000000000000
00000000000000000000
00000000000000000000
00000000000000000000
00000000000000000000
00000000000000000000
00000000000000000000
00000000000000000000
00000000000000000000
00000000000000000000
00000000000000000000
00000000000000000000
00000000000000000000
00000000000000000000
00000000000000000000
000000000000007FE000
00000000000000FFC000
00000000000000FFC000
00000000000000FFC000
00000000000001FF8000
00000000000001FF8000
00000000000001FF8000
00000000000003FF0000
00000000000003FF0000
00000000000003FF0000
0000000FFFFFFFC00000
0000000FFFFFFFC00000
0000000FFFFFFFC00000
0000001FFFFFFF800000
0000001FFFFFFF800000
0000001FFFFFFF800000
0000003FFFFFFF000000
0000003FFFFFFF000000
0000003FFFFFFF000000
0000007FFFFFFE000000
00000FFC00FFFFF00000
00000FFC00FFFFF00000
00001FF801FFFFE00000
00001FF801FFFFE00000
00001FF801FFFFE00000
00003FF003FFFFC00000
00003FF003FFFFC00000
00003FF003FFFFC00000
00007FE007FFFF800000
00007FE007FFFF800000
00007FE0FFC1FF800000
0000FFC1FF83FF000000
0000FFC1FF83FF000000
0000FFC1FF83FF000000
0001FF83FF07FE000000
0001FF83FF07FE000000
0001FF83FF07FE000000
0003FF07FE0FFC000000
0003FF07FE0FFC000000
0003FF07FE0FFC000000
0007FFFF801FF8000000
0007FFFF801FF8000000
0007FFFF801FF8000000
000FFFFF003FF0000000
000FFFFF003FF0000000
000FFFFF003FF0000000
001FFFFE007FE0000000
001FFFFE007FE0000000
001FFFFE007FE0000000
003FFFFC00FFC0000000
0001FFFFFFF800000000
0001FFFFFFF800000000
0003FFFFFFF000000000
0003FFFFFFF000000000
0003FFFFFFF000000000
0007FFFFFFE000000000
0007FFFFFFE000000000
0007FFFFFFE000000000
000FFFFFFFC000000000
000FFFFFFFC000000000
01FF8000000000000000
03FF0000000000000000
03FF0000000000000000
03FF0000000000000000
07FE0000000000000000
07FE0000000000000000
07FE0000000000000000
0FFC0000000000000000
0FFC0000000000000000
0FFC0000000000000000
00000000000000000000
00000000000000000000
00000000000000000000
00000000000000000000
00000000000000000000
00000000000000000000
00000000000000000000
00000000000000000000
00000000000000000000
00000000000000000000
ENDCHAR
STARTCHAR U+0153
ENCODING 339
SWIDTH 1000 0
DWIDTH 45 0
BBX 78 100 -16 -20
BITMAP
00000000000000000000
00000000000000000000
00000000000000000000
00000000000000000000
00000000000000000000
00000000000000000000
00000000000000000000
00000000000000000000
00000000000000000000
00000000000000000000
00000000000000000000
00000000000000000000
00000000000000000000
00000000000000000000
00000000000000000000
00000000000000000000
00000000000000000000
00000000000000000000
00000000000000000000
00000000000000000000
00000000000000000000
00000000000000000000
00000000000000000000
00000000000000000000
00000000000000000000
00000000000000000000
00000000000000000000
00000000000000000000
00000000000000000000
00000000000000000000
0000000FFFFFFFC00000
0000000FFFFFFFC00000
0000000FFFFFFFC00000
0000001FFFFFFF800000
0000001FFFFFFF800000
0000001FFFFFFF800000
0000003FFFFFFF000000
0000003FFFFFFF000000
0000003FFFFFFF000000
0000007FFFFFFE000000
00000FFC1FF83FF00000
00000FFC1FF83FF00000
00001FF83FF07FE00000
00001FF83FF07FE00000
00001FF83FF07FE00000
00003FF07FE0FFC00000
00003FF07FE0FFC00000
00003FF07FE0FFC00000
00007FE0FFC1FF800000
00007FE0FFC1FF800000
00007FE0FFFFFF800000
0000FFC1FFFFFF000000
0000FFC1FFFFFF000000
0000FFC1FFFFFF000000
0001FF83FFFFFE000000
0001FF83FFFFFE000000
0001FF83FFFFFE000000
0003FF07FFFFFC000000
0003FF07FFFFFC000000
0003FF07FFFFFC000000
0007FE0FFC0000000000
0007FE0FFC0000000000
0007FE0FFC0000000000
000FFC1FF80000000000
000FFC1FF80000000000
000FFC1FF80000000000
001FF83FF00000000000
001FF83FF00000000000
001FF83FF00000000000
003FF07FE00000000000
0001FFFFFFFFC0000000
0001FFFFFFFFC0000000
0003FFFFFFFF80000000
0003FFFFFFFF80000000
0003FFFFFFFF80000000
0007FFFFFFFF00000000
0007FFFFFFFF00000000
0007FFFFFFFF00000000
000FFFFFFFFE00000000
000FFFFFFFFE00000000
00000000000000000000
00000000000000000000
00000000000000000000
00000000000000000000
00000000000000000000
00000000000000000000
00000000000000000000
00000000000000000000
00000000000000000000
00000000000000000000
00000000000000000000
00000000000000000000
00000000000000000000
00000000000000000000
00000000000000000000
00000000000000000000
00000000000000000000
00000000000000000000
00000000000000000000
00000000000000000000
ENDCHAR
STARTCHAR U+00F6
ENCODING 246
SWIDTH 1000 0
DWIDTH 45 0
BBX 78 100 -16 -20
BITMAP
00000000000000000000
00000000000000000000
00000000000000000000
00000000000000000000
00000000000000000000
00000000000000000000
00000000000000000000
00000000000000000000
00000000000000000000
00000000000000000000
000000001FF801FF8000
000000001FF801FF8000
000000003FF003FF0000
000000003FF003FF0000
000000003FF003FF0000
000000007FE007FE0000
000000007FE007FE0000
000000007FE007FE0000
00000000FFC00FFC0000
00000000FFC00FFC0000
00000000000000000000
00000000000000000000
00000000000000000000
00000000000000000000
00000000000000000000
00000000000000000000
00000000000000000000
00000000000000000000
00000000000000000000
00000000000000000000
0000000FFFFFFFC00000
0000000FFFFFFFC00000
0000000FFFFFFFC00000
0000001FFFFFFF800000
0000001FFFFFFF800000
0000001FFFFFFF800000
0000003FFFFFFF000000
0000003FFFFFFF000000
0000003FFFFFFF000000
0000007FFFFFFE000000
00000FFC00003FF00000
00000FFC00003FF00000
00001FF800007FE00000
00001FF800007FE00000
00001FF800007FE00000
00003FF00000FFC00000
00003FF00000FFC00000
00003FF00000FFC00000
00007FE00001FF800000
00007FE00001FF800000
00007FE00001FF800000
0000FFC00003FF000000
0000FFC00003FF000000
0000FFC00003FF000000
0001FF800007FE000000
0001FF800007FE000000
0001FF800007FE000000
0003FF00000FFC000000
0003FF00000FFC000000
0003FF00000FFC000000
0007FE00001FF8000000
0007FE00001FF8000000
0007FE00001FF8000000
000FFC00003FF0000000
000FFC00003FF0000000
000FFC00003FF0000000
001FF800007FE0000000
001FF800007FE0000000
001FF800007FE0000000
003FF00000FFC0000000
0001FFFFFFF800000000
0001FFFFFFF800000000
0003FFFFFFF000000000
0003FFFFFFF000000000
0003FFFFFFF000000000
0007FFFFFFE000000000
0007FFFFFFE000000000
0007FFFFFFE000000000
000FFFFFFFC000000000
000FFFFFFFC000000000
00000000000000000000
00000000000000000000
00000000000000000000
00000000000000000000
00000000000000000000
00000000000000000000
00000000000000000000
00000000000000000000
00000000000000000000
00000000000000000000
00000000000000000000
00000000000000000000
00000000000000000000
00000000000000000000
00000000000000000000
00000000000000000000
00000000000000000000
00000000000000000000
00000000000000000000
00000000000000000000
ENDCHAR
STARTCHAR U+00F5
ENCODING 245
SWIDTH 1000 0
DWIDTH 45 0
BBX 78 100 -16 -20
BITMAP
0000000003FFF83FF000
0000000003FFF83FF000
0000000003FFF83FF000
0000000007FFF07FE000
0000000007FFF07FE000
0000000007FFF07FE000
000000000FFFE0FFC000
000000000FFFE0FFC000
000000000FFFE0FFC000
000000001FFFC1FF8000
00000003FF07FFF00000
00000003FF07FFF00000
00000007FE0FFFE00000
00000007FE0FFFE00000
00000007FE0FFFE00000
0000000FFC1FFFC00000
0000000FFC1FFFC00000
0000000FFC1FFFC00000
0000001FF83FFF800000
0000001FF83FFF800000
00000000000000000000
00000000000000000000
00000000000000000000
00000000000000000000
00000000000000000000
00000000000000000000
00000000000000000000
00000000000000000000
00000000000000000000
00000000000000000000
0000000FFFFFFFC00000
0000000FFFFFFFC00000
0000000FFFFFFFC00000
0000001FFFFFFF800000
0000001FFFFFFF800000
0000001FFFFFFF800000
0000003FFFFFFF000000
0000003FFFFFFF000000
0000003FFFFFFF000000
0000007FFFFFFE000000
00000FFC00003FF00000
00000FFC00003FF00000
00001FF800007FE00000
00001FF800007FE00000
00001FF800007FE00000
00003FF00000FFC00000
00003FF00000FFC00000
00003FF00000FFC00000
00007FE00001FF800000
00007FE00001FF800000
00007FE00001FF800000
0000FFC00003FF000000
0000FFC00003FF000000
0000FFC00003FF000000
0001FF800007FE000000
0001FF800007FE000000
0001FF800007FE000000
0003FF00000FFC000000
0003FF00000FFC000000
0003FF00000FFC000000
0007FE00001FF8000000
0007FE00001FF8000000
0007FE00001FF8000000
000FFC00003FF0000000
000FFC00003FF0000000
000FFC00003FF0000000
001FF800007FE0000000
001FF800007FE0000000
001FF800007FE0000000
003FF00000FFC0000000
0001FFFFFFF800000000
0001FFFFFFF800000000
0003FFFFFFF000000000
0003FFFFFFF000000000
0003FFFFFFF000000000
0007FFFFFFE000000000
0007FFFFFFE000000000
0007FFFFFFE000000000
000FFFFFFFC000000000
000FFFFFFFC000000000
00000000000000000000
00000000000000000000
00000000000000000000
00000000000000000000
00000000000000000000
00000000000000000000
00000000000000000000
00000000000000000000
00000000000000000000
00000000000000000000
00000000000000000000
00000000000000000000
00000000000000000000
00000000000000000000
00000000000000000000
00000000000000000000
00000000000000000000
00000000000000000000
00000000000000000000
00000000000000000000
ENDCHAR
STARTCHAR U+00F4
ENCODING 244
SWIDTH 1000 0
DWIDTH 45 0
BBX 78 100 -16 -20
BITMAP
00000000001FFFFE0000
00000000001FFFFE0000
00000000001FFFFE0000
00000000003FFFFC0000
00000000003FFFFC0000
00000000003FFFFC0000
00000000007FFFF80000
00000000007FFFF80000
00000000007FFFF80000
0000000000FFFFF00000
000000001FF801FF8000
000000001FF801FF8000
000000003FF003FF0000
000000003FF003FF0000
000000003FF003FF0000
000000007FE007FE0000
000000007FE007FE0000
000000007FE007FE0000
00000000FFC00FFC0000
00000000FFC00FFC0000
00000000000000000000
00000000000000000000
00000000000000000000
00000000000000000000
00000000000000000000
00000000000000000000
00000000000000000000
00000000000000000000
00000000000000000000
00000000000000000000
0000000FFFFFFFC00000
0000000FFFFFFFC00000
0000000FFFFFFFC00000
0000001FFFFFFF800000
0000001FFFFFFF800000
0000001FFFFFFF800000
0000003FFFFFFF000000
0000003FFFFFFF000000
0000003FFFFFFF000000
0000007FFFFFFE000000
00000FFC00003FF00000
00000FFC00003FF00000
00001FF800007FE00000
00001FF800007FE00000
00001FF800007FE00000
00003FF00000FFC00000
00003FF00000FFC00000
00003FF00000FFC00000
00007FE00001FF800000
00007FE00001FF800000
00007FE00001FF800000
0000FFC00003FF000000
0000FFC00003FF000000
0000FFC00003FF000000
0001FF800007FE000000
0001FF800007FE000000
0001FF800007FE000000
0003FF00000FFC000000
0003FF00000FFC000000
0003FF00000FFC000000
0007FE00001FF8000000
0007FE00001FF8000000
0007FE00001FF8000000
000FFC00003FF0000000
000FFC00003FF0000000
000FFC00003FF0000000
001FF800007FE0000000
001FF800007FE0000000
001FF800007FE0000000
003FF00000FFC0000000
0001FFFFFFF800000000
0001FFFFFFF800000000
0003FFFFFFF000000000
0003FFFFFFF000000000
0003FFFFFFF000000000
0007FFFFFFE000000000
0007FFFFFFE000000000
0007FFFFFFE000000000
000FFFFFFFC000000000
000FFFFFFFC000000000
00000000000000000000
00000000000000000000
00000000000000000000
00000000000000000000
00000000000000000000
00000000000000000000
00000000000000000000
00000000000000000000
00000000000000000000
00000000000000000000
00000000000000000000
00000000000000000000
00000000000000000000
00000000000000000000
00000000000000000000
00000000000000000000
00000000000000000000
00000000000000000000
00000000000000000000
00000000000000000000
ENDCHAR
STARTCHAR U+00F3
ENCODING 243
SWIDTH 1000 0
DWIDTH 45 0
BBX 78 100 -16 -20
BITMAP
00000000000000000000
00000000000000000000
00000000000000000000
00000000000000000000
00000000000000000000
00000000000000000000
00000000000000000000
00000000000000000000
00000000000000000000
00000000000000000000
000000000007FFF00000
000000000007FFF00000
00000000000FFFE00000
00000000000FFFE00000
00000000000FFFE00000
00000000001FFFC00000
00000000001FFFC00000
00000000001FFFC00000
00000000003FFF800000
00000000003FFF800000
00000000FFFE00000000
00000001FFFC00000000
00000001FFFC00000000
00000001FFFC00000000
00000003FFF800000000
00000003FFF800000000
00000003FFF800000000
00000007FFF000000000
00000007FFF000000000
00000007FFF000000000
0000000FFFFFFFC00000
0000000FFFFFFFC00000
0000000FFFFFFFC00000
0000001FFFFFFF800000
0000001FFFFFFF800000
0000001FFFFFFF800000
0000003FFFFFFF000000
0000003FFFFFFF000000
0000003FFFFFFF000000
0000007FFFFFFE000000
00000FFC00003FF00000
00000FFC00003FF00000
00001FF800007FE00000
00001FF800007FE00000
00001FF800007FE00000
00003FF00000FFC00000
00003FF00000FFC00000
00003FF00000FFC00000
00007FE00001FF800000
00007FE00001FF800000
00007FE00001FF800000
0000FFC00003FF000000
0000FFC00003FF000000
0000FFC00003FF000000
0001FF800007FE000000
0001FF800007FE000000
0001FF800007FE000000
0003FF00000FFC000000
0003FF00000FFC000000
0003FF00000FFC000000
0007FE00001FF8000000
0007FE00001FF8000000
0007FE00001FF8000000
000FFC00003FF0000000
000FFC00003FF0000000
000FFC00003FF0000000
001FF800007FE0000000
001FF800007FE0000000
001FF800007FE0000000
003FF00000FFC0000000
0001FFFFFFF800000000
0001FFFFFFF800000000
0003FFFFFFF000000000
0003FFFFFFF000000000
0003FFFFFFF000000000
0007FFFFFFE000000000
0007FFFFFFE000000000
0007FFFFFFE000000000
000FFFFFFFC000000000
000FFFFFFFC000000000
00000000000000000000
00000000000000000000
00000000000000000000
00000000000000000000
00000000000000000000
00000000000000000000
00000000000000000000
00000000000000000000
00000000000000000000
00000000000000000000
00000000000000000000
00000000000000000000
00000000000000000000
00000000000000000000
00000000000000000000
00000000000000000000
00000000000000000000
00000000000000000000
00000000000000000000
00000000000000000000
ENDCHAR
STARTCHAR U+00F2
ENCODING 242
SWIDTH 1000 0
DWIDTH 45 0
BBX 78 100 -16 -20
BITMAP
00000000000000000000
00000000000000000000
00000000000000000000
00000000000000000000
00000000000000000000
00000000000000000000
00000000000000000000
00000000000000000000
00000000000000000000
00000000000000000000
0000000000FFFE000000
0000000000FFFE000000
0000000001FFFC000000
0000000001FFFC000000
0000000001FFFC000000
0000000003FFF8000000
0000000003FFF8000000
0000000003FFF8000000
0000000007FFF0000000
0000000007FFF0000000
000000000001FFFC0000
000000000003FFF80000
000000000003FFF80000
000000000003FFF80000
000000000007FFF00000
000000000007FFF00000
000000000007FFF00000
00000000000FFFE00000
00000000000FFFE00000
00000000000FFFE00000
0000000FFFFFFFC00000
0000000FFFFFFFC00000
0000000FFFFFFFC00000
0000001FFFFFFF800000
0000001FFFFFFF800000
0000001FFFFFFF800000
0000003FFFFFFF000000
0000003FFFFFFF000000
0000003FFFFFFF000000
0000007FFFFFFE000000
00000FFC00003FF00000
00000FFC00003FF00000
00001FF800007FE00000
00001FF800007FE00000
00001FF800007FE00000
00003FF00000FFC00000
00003FF00000FFC00000
00003FF00000FFC00000
00007FE00001FF800000
00007FE00001FF800000
00007FE00001FF800000
0000FFC00003FF000000
0000FFC00003FF000000
0000FFC00003FF000000
0001FF800007FE000000
0001FF800007FE000000
0001FF800007FE000000
0003FF00000FFC000000
0003FF00000FFC000000
0003FF00000FFC000000
0007FE00001FF8000000
0007FE00001FF8000000
0007FE00001FF8000000
000FFC00003FF0000000
000FFC00003FF0000000
000FFC00003FF0000000
001FF800007FE0000000
001FF800007FE0000000
001FF800007FE0000000
003FF00000FFC0000000
0001FFFFFFF800000000
0001FFFFFFF800000000
0003FFFFFFF000000000
0003FFFFFFF000000000
0003FFFFFFF000000000
0007FFFFFFE000000000
0007FFFFFFE000000000
0007FFFFFFE000000000
000FFFFFFFC000000000
000FFFFFFFC000000000
00000000000000000000
00000000000000000000
00000000000000000000
00000000000000000000
00000000000000000000
00000000000000000000
00000000000000000000
00000000000000000000
00000000000000000000
00000000000000000000
00000000000000000000
00000000000000000000
00000000000000000000
00000000000000000000
00000000000000000000
00000000000000000000
00000000000000000000
00000000000000000000
00000000000000000000
00000000000000000000
ENDCHAR
STARTCHAR U+00F1
ENCODING 241
SWIDTH 1000 0
DWIDTH 45 0
BBX 78 100 -16 -20
BITMAP
0000000003FFF83FF000
0000000003FFF83FF000
0000000003FFF83FF000
0000000007FFF07FE000
0000000007FFF07FE000
0000000007FFF07FE000
000000000FFFE0FFC000
000000000FFFE0FFC000
000000000FFFE0FFC000
000000001FFFC1FF8000
00000003FF07FFF00000
00000003FF07FFF00000
00000007FE0FFFE00000
00000007FE0FFFE00000
00000007FE0FFFE00000
0000000FFC1FFFC00000
0000000FFC1FFFC00000
0000000FFC1FFFC00000
0000001FF83FFF800000
0000001FF83FFF800000
00000000000000000000
00000000000000000000
00000000000000000000
00000000000000000000
00000000000000000000
00000000000000000000
00000000000000000000
00000000000000000000
00000000000000000000
00000000000000000000
000001FFFFFFFFC00000
000001FFFFFFFFC00000
000001FFFFFFFFC00000
000003FFFFFFFF800000
000003FFFFFFFF800000
000003FFFFFFFF800000
000007FFFFFFFF000000
000007FFFFFFFF000000
000007FFFFFFFF000000
00000FFFFFFFFE000000
00000FFFE0003FF00000
00000FFFE0003FF00000
00001FFFC0007FE00000
00001FFFC0007FE00000
00001FFFC0007FE00000
00003FFF8000FFC00000
00003FFF8000FFC00000
00003FFF8000FFC00000
00007FFF0001FF800000
00007FFF0001FF800000
00007FE00001FF800000
0000FFC00003FF000000
0000FFC00003FF000000
0000FFC00003FF000000
0001FF800007FE000000
0001FF800007FE000000
0001FF800007FE000000
0003FF00000FFC000000
0003FF00000FFC000000
0003FF00000FFC000000
0007FE00001FF8000000
0007FE00001FF8000000
0007FE00001FF8000000
000FFC00003FF0000000
000FFC00003FF0000000
000FFC00003FF0000000
001FF800007FE0000000
001FF800007FE0000000
001FF800007FE0000000
003FF00000FFC0000000
003FF00000FFC0000000
003FF00000FFC0000000
007FE00001FF80000000
007FE00001FF80000000
007FE00001FF80000000
00FFC00003FF00000000
00FFC00003FF00000000
00FFC00003FF00000000
01FF800007FE00000000
01FF800007FE00000000
00000000000000000000
00000000000000000000
00000000000000000000
00000000000000000000
00000000000000000000
00000000000000000000
00000000000000000000
00000000000000000000
00000000000000000000
00000000000000000000
00000000000000000000
00000000000000000000
00000000000000000000
00000000000000000000
00000000000000000000
00000000000000000000
00000000000000000000
00000000000000000000
00000000000000000000
00000000000000000000
ENDCHAR
STARTCHAR U+00F0
ENCODING 240
SWIDTH 1000 0
DWIDTH 45 0
BBX 78 100 -16 -20
BITMAP
000000000000FFC1FF80
000000000000FFC1FF80
000000000000FFC1FF80
000000000001FF83FF00
000000000001FF83FF00
000000000001FF83FF00
000000000003FF07FE00
000000000003FF07FE00
000000000003FF07FE00
000000000007FE0FFC00
0000000000003FFF8000
0000000000003FFF8000
0000000000007FFF0000
0000000000007FFF0000
0000000000007FFF0000
000000000000FFFE0000
000000000000FFFE0000
000000000000FFFE0000
000000000001FFFC0000
000000000001FFFC0000
00000000003FF07FE000
00000000007FE0FFC000
00000000007FE0FFC000
00000000007FE0FFC000
0000000000FFC1FF8000
0000000000FFC1FF8000
0000000000FFC1FF8000
0000000001FF83FF0000
0000000001FF83FF0000
0000000001FF83FF0000
0000000FFFFFFFFE0000
0000000FFFFFFFFE0000
0000000FFFFFFFFE0000
0000001FFFFFFFFC0000
0000001FFFFFFFFC0000
0000001FFFFFFFFC0000
0000003FFFFFFFF80000
0000003FFFFFFFF80000
0000003FFFFFFFF80000
0000007FFFFFFFF00000
00000FFC0007FFF00000
00000FFC0007FFF00000
00001FF8000FFFE00000
00001FF8000FFFE00000
00001FF8000FFFE00000
00003FF0001FFFC00000
00003FF0001FFFC00000
00003FF0001FFFC00000
00007FE0003FFF800000
00007FE0003FFF800000
00007FE00001FF800000
0000FFC00003FF000000
0000FFC00003FF000000
0000FFC00003FF000000
0001FF800007FE000000
0001FF800007FE000000
0001FF800007FE000000
0003FF00000FFC000000
0003FF00000FFC000000
0003FF00000FFC000000
0007FE0003FF00000000
0007FE0003FF00000000
0007FE0003FF00000000
000FFC0007FE00000000
000FFC0007FE00000000
000FFC0007FE00000000
001FF8000FFC00000000
001FF8000FFC00000000
001FF8000FFC00000000
003FF0001FF800000000
0001FFFFFF0000000000
0001FFFFFF0000000000
0003FFFFFE0000000000
0003FFFFFE0000000000
0003FFFFFE0000000000
0007FFFFFC0000000000
0007FFFFFC0000000000
0007FFFFFC0000000000
000FFFFFF80000000000
000FFFFFF80000000000
00000000000000000000
00000000000000000000
00000000000000000000
00000000000000000000
00000000000000000000
00000000000000000000
00000000000000000000
00000000000000000000
00000000000000000000
00000000000000000000
00000000000000000000
00000000000000000000
00000000000000000000
00000000000000000000
00000000000000000000
00000000000000000000
00000000000000000000
00000000000000000000
00000000000000000000
00000000000000000000
ENDCHAR
STARTCHAR U+00EF
ENCODING 239
SWIDTH 1000 0
DWIDTH 45 0
BBX 78 100 -16 -20
BITMAP
00000000000000000000
00000000000000000000
00000000000000000000
00000000000000000000
00000000000000000000
00000000000000000000
00000000000000000000
00000000000000000000
00000000000000000000
00000000000000000000
000000001FF801FF8000
000000001FF801FF8000
000000003FF003FF0000
000000003FF003FF0000
000000003FF003FF0000
000000007FE007FE0000
000000007FE007FE0000
000000007FE007FE0000
00000000FFC00FFC0000
00000000FFC00FFC0000
00000000000000000000
00000000000000000000
00000000000000000000
00000000000000000000
00000000000000000000
00000000000000000000
00000000000000000000
00000000000000000000
00000000000000000000
00000000000000000000
000000007FFF00000000
000000007FFF00000000
000000007FFF00000000
00000000FFFE00000000
00000000FFFE00000000
00000000FFFE00000000
00000001FFFC00000000
00000001FFFC00000000
00000001FFFC00000000
00000003FFF800000000
000000001FF800000000
000000001FF800000000
000000003FF000000000
000000003FF000000000
000000003FF000000000
000000007FE000000000
000000007FE000000000
000000007FE000000000
00000000FFC000000000
00000000FFC000000000
00000000FFC000000000
00000001FF8000000000
00000001FF8000000000
00000001FF8000000000
00000003FF0000000000
00000003FF0000000000
00000003FF0000000000
00000007FE0000000000
00000007FE0000000000
00000007FE0000000000
0000000FFC0000000000
0000000FFC0000000000
0000000FFC0000000000
0000001FF80000000000
0000001FF80000000000
0000001FF80000000000
0000003FF00000000000
0000003FF00000000000
0000003FF00000000000
0000007FE00000000000
0001FFFFFFF800000000
0001FFFFFFF800000000
0003FFFFFFF000000000
0003FFFFFFF000000000
0003FFFFFFF000000000
0007FFFFFFE000000000
0007FFFFFFE000000000
0007FFFFFFE000000000
000FFFFFFFC000000000
000FFFFFFFC000000000
00000000000000000000
00000000000000000000
00000000000000000000
00000000000000000000
00000000000000000000
00000000000000000000
00000000000000000000
00000000000000000000
00000000000000000000
00000000000000000000
00000000000000000000
00000000000000000000
00000000000000000000
00000000000000000000
00000000000000000000
00000000000000000000
00000000000000000000
00000000000000000000
00000000000000000000
00000000000000000000
ENDCHAR
STARTCHAR U+00EE
ENCODING 238
SWIDTH 1000 0
DWIDTH 45 0
BBX 78 100 -16 -20
BITMAP
00000000001FFFFE0000
00000000001FFFFE0000
00000000001FFFFE0000
00000000003FFFFC0000
00000000003FFFFC0000
00000000003FFFFC0000
00000000007FFFF80000
00000000007FFFF80000
00000000007FFFF80000
0000000000FFFFF00000
000000001FF801FF8000
000000001FF801FF8000
000000003FF003FF0000
000000003FF003FF0000
000000003FF003FF0000
000000007FE007FE0000
000000007FE007FE0000
000000007FE007FE0000
00000000FFC00FFC0000
00000000FFC00FFC0000
00000000000000000000
00000000000000000000
00000000000000000000
00000000000000000000
00000000000000000000
00000000000000000000
00000000000000000000
00000000000000000000
00000000000000000000
00000000000000000000
000000007FFF00000000
000000007FFF00000000
000000007FFF00000000
00000000FFFE00000000
00000000FFFE00000000
00000000FFFE00000000
00000001FFFC00000000
00000001FFFC00000000
00000001FFFC00000000
00000003FFF800000000
000000001FF800000000
000000001FF800000000
000000003FF000000000
000000003FF000000000
000000003FF000000000
000000007FE000000000
000000007FE000000000
000000007FE000000000
00000000FFC000000000
00000000FFC000000000
00000000FFC000000000
00000001FF8000000000
00000001FF8000000000
00000001FF8000000000
00000003FF0000000000
00000003FF0000000000
00000003FF0000000000
00000007FE0000000000
00000007FE0000000000
00000007FE0000000000
0000000FFC0000000000
0000000FFC0000000000
0000000FFC0000000000
0000001FF80000000000
0000001FF80000000000
0000001FF80000000000
0000003FF00000000000
0000003FF00000000000
0000003FF00000000000
0000007FE00000000000
0001FFFFFFF800000000
0001FFFFFFF800000000
0003FFFFFFF000000000
0003FFFFFFF000000000
0003FFFFFFF000000000
0007FFFFFFE000000000
0007FFFFFFE000000000
0007FFFFFFE000000000
000FFFFFFFC000000000
000FFFFFFFC000000000
00000000000000000000
00000000000000000000
00000000000000000000
00000000000000000000
00000000000000000000
00000000000000000000
00000000000000000000
00000000000000000000
00000000000000000000
00000000000000000000
00000000000000000000
00000000000000000000
00000000000000000000
00000000000000000000
00000000000000000000
00000000000000000000
00000000000000000000
00000000000000000000
00000000000000000000
00000000000000000000
ENDCHAR
STARTCHAR U+00ED
ENCODING 237
SWIDTH 1000 0
DWIDTH 45 0
BBX 78 100 -16 -20
BITMAP
00000000000000000000
00000000000000000000
00000000000000000000
00000000000000000000
00000000000000000000
00000000000000000000
00000000000000000000
00000000000000000000
00000000000000000000
00000000000000000000
000000000007FFF00000
000000000007FFF00000
00000000000FFFE00000
00000000000FFFE00000
00000000000FFFE00000
00000000001FFFC00000
00000000001FFFC00000
00000000001FFFC00000
00000000003FFF800000
00000000003FFF800000
00000000FFFE00000000
00000001FFFC00000000
00000001FFFC00000000
00000001FFFC00000000
00000003FFF800000000
00000003FFF800000000
00000003FFF800000000
00000007FFF000000000
00000007FFF000000000
00000007FFF000000000
000000007FFF00000000
000000007FFF00000000
000000007FFF00000000
00000000FFFE00000000
00000000FFFE00000000
00000000FFFE00000000
00000001FFFC00000000
00000001FFFC00000000
00000001FFFC00000000
00000003FFF800000000
000000001FF800000000
000000001FF800000000
000000003FF000000000
000000003FF000000000
000000003FF000000000
000000007FE000000000
000000007FE000000000
000000007FE000000000
00000000FFC000000000
00000000FFC000000000
00000000FFC000000000
00000001FF8000000000
00000001FF8000000000
00000001FF8000000000
00000003FF0000000000
00000003FF0000000000
00000003FF0000000000
00000007FE0000000000
00000007FE0000000000
00000007FE0000000000
0000000FFC0000000000
0000000FFC0000000000
0000000FFC0000000000
0000001FF80000000000
0000001FF80000000000
0000001FF80000000000
0000003FF00000000000
0000003FF00000000000
0000003FF00000000000
0000007FE00000000000
0001FFFFFFF800000000
0001FFFFFFF800000000
0003FFFFFFF000000000
0003FFFFFFF000000000
0003FFFFFFF000000000
0007FFFFFFE000000000
0007FFFFFFE000000000
0007FFFFFFE000000000
000FFFFFFFC000000000
000FFFFFFFC000000000
00000000000000000000
00000000000000000000
00000000000000000000
00000000000000000000
00000000000000000000
00000000000000000000
00000000000000000000
00000000000000000000
00000000000000000000
00000000000000000000
00000000000000000000
00000000000000000000
00000000000000000000
00000000000000000000
00000000000000000000
00000000000000000000
00000000000000000000
00000000000000000000
00000000000000000000
00000000000000000000
ENDCHAR
STARTCHAR U+00EC
ENCODING 236
SWIDTH 1000 0
DWIDTH 45 0
BBX 78 100 -16 -20
BITMAP
00000000000000000000
00000000000000000000
00000000000000000000
00000000000000000000
00000000000000000000
00000000000000000000
00000000000000000000
00000000000000000000
00000000000000000000
00000000000000000000
000000001FFFC0000000
000000001FFFC0000000
000000003FFF80000000
000000003FFF80000000
000000003FFF80000000
000000007FFF00000000
000000007FFF00000000
000000007FFF00000000
00000000FFFE00000000
00000000FFFE00000000
00000000003FFF800000
00000000007FFF000000
00000000007FFF000000
00000000007FFF000000
0000000000FFFE000000
0000000000FFFE000000
0000000000FFFE000000
0000000001FFFC000000
0000000001FFFC000000
0000000001FFFC000000
000000007FFF00000000
000000007FFF00000000
000000007FFF00000000
00000000FFFE00000000
00000000FFFE00000000
00000000FFFE00000000
00000001FFFC00000000
00000001FFFC00000000
00000001FFFC00000000
00000003FFF800000000
000000001FF800000000
000000001FF800000000
000000003FF000000000
000000003FF000000000
000000003FF000000000
000000007FE000000000
000000007FE000000000
000000007FE000000000
00000000FFC000000000
00000000FFC000000000
00000000FFC000000000
00000001FF8000000000
00000001FF8000000000
00000001FF8000000000
00000003FF0000000000
00000003FF0000000000
00000003FF0000000000
00000007FE0000000000
00000007FE0000000000
00000007FE0000000000
0000000FFC0000000000
0000000FFC0000000000
0000000FFC0000000000
0000001FF80000000000
0000001FF80000000000
0000001FF80000000000
0000003FF00000000000
0000003FF00000000000
0000003FF00000000000
0000007FE00000000000
0001FFFFFFF800000000
0001FFFFFFF800000000
0003FFFFFFF000000000
0003FFFFFFF000000000
0003FFFFFFF000000000
0007FFFFFFE000000000
0007FFFFFFE000000000
0007FFFFFFE000000000
000FFFFFFFC000000000
000FFFFFFFC000000000
00000000000000000000
00000000000000000000
00000000000000000000
00000000000000000000
00000000000000000000
00000000000000000000
00000000000000000000
00000000000000000000
00000000000000000000
00000000000000000000
00000000000000000000
00000000000000000000
00000000000000000000
00000000000000000000
00000000000000000000
00000000000000000000
00000000000000000000
00000000000000000000
00000000000000000000
00000000000000000000
ENDCHAR
STARTCHAR U+00EB
ENCODING 235
SWIDTH 1000 0
DWIDTH 45 0
BBX 78 100 -16 -20
BITMAP
00000000000000000000
00000000000000000000
00000000000000000000
00000000000000000000
00000000000000000000
00000000000000000000
00000000000000000000
00000000000000000000
00000000000000000000
00000000000000000000
000000001FF801FF8000
000000001FF801FF8000
000000003FF003FF0000
000000003FF003FF0000
000000003FF003FF0000
000000007FE007FE0000
000000007FE007FE0000
000000007FE007FE0000
00000000FFC00FFC0000
00000000FFC00FFC0000
00000000000000000000
00000000000000000000
00000000000000000000
00000000000000000000
00000000000000000000
00000000000000000000
00000000000000000000
00000000000000000000
00000000000000000000
00000000000000000000
0000000FFFFFFFC00000
0000000FFFFFFFC00000
0000000FFFFFFFC00000
0000001FFFFFFF800000
0000001FFFFFFF800000
0000001FFFFFFF800000
0000003FFFFFFF000000
0000003FFFFFFF000000
0000003FFFFFFF000000
0000007FFFFFFE000000
00000FFC00003FF00000
00000FFC00003FF00000
00001FF800007FE00000
00001FF800007FE00000
00001FF800007FE00000
00003FF00000FFC00000
00003FF00000FFC00000
00003FF00000FFC00000
00007FE00001FF800000
00007FE00001FF800000
00007FFFFFFFFF800000
0000FFFFFFFFFF000000
0000FFFFFFFFFF000000
0000FFFFFFFFFF000000
0001FFFFFFFFFE000000
0001FFFFFFFFFE000000
0001FFFFFFFFFE000000
0003FFFFFFFFFC000000
0003FFFFFFFFFC000000
0003FFFFFFFFFC000000
0007FE00000000000000
0007FE00000000000000
0007FE00000000000000
000FFC00000000000000
000FFC00000000000000
000FFC00000000000000
001FF800000000000000
001FF800000000000000
001FF800000000000000
003FF000000000000000
0001FFFFFFF800000000
0001FFFFFFF800000000
0003FFFFFFF000000000
0003FFFFFFF000000000
0003FFFFFFF000000000
0007FFFFFFE000000000
0007FFFFFFE000000000
0007FFFFFFE000000000
000FFFFFFFC000000000
000FFFFFFFC000000000
00000000000000000000
00000000000000000000
00000000000000000000
00000000000000000000
00000000000000000000
00000000000000000000
00000000000000000000
00000000000000000000
00000000000000000000
00000000000000000000
00000000000000000000
00000000000000000000
00000000000000000000
00000000000000000000
00000000000000000000
00000000000000000000
00000000000000000000
00000000000000000000
00000000000000000000
00000000000000000000
ENDCHAR
STARTCHAR U+00EA
ENCODING 234
SWIDTH 1000 0
DWIDTH 45 0
BBX 78 100 -16 -20
BITMAP
00000000001FFFFE0000
00000000001FFFFE0000
00000000001FFFFE0000
00000000003FFFFC0000
00000000003FFFFC0000
00000000003FFFFC0000
00000000007FFFF80000
00000000007FFFF80000
00000000007FFFF80000
0000000000FFFFF00000
000000001FF801FF8000
000000001FF801FF8000
000000003FF003FF0000
000000003FF003FF0000
000000003FF003FF0000
000000007FE007FE0000
000000007FE007FE0000
000000007FE007FE0000
00000000FFC00FFC0000
00000000FFC00FFC0000
00000000000000000000
00000000000000000000
00000000000000000000
00000000000000000000
00000000000000000000
00000000000000000000
00000000000000000000
00000000000000000000
00000000000000000000
00000000000000000000
0000000FFFFFFFC00000
0000000FFFFFFFC00000
0000000FFFFFFFC00000
0000001FFFFFFF800000
0000001FFFFFFF800000
0000001FFFFFFF800000
0000003FFFFFFF000000
0000003FFFFFFF000000
0000003FFFFFFF000000
0000007FFFFFFE000000
00000FFC00003FF00000
00000FFC00003FF00000
00001FF800007FE00000
00001FF800007FE00000
00001FF800007FE00000
00003FF00000FFC00000
00003FF00000FFC00000
00003FF00000FFC00000
00007FE00001FF800000
00007FE00001FF800000
00007FFFFFFFFF800000
0000FFFFFFFFFF000000
0000FFFFFFFFFF000000
0000FFFFFFFFFF000000
0001FFFFFFFFFE000000
0001FFFFFFFFFE000000
0001FFFFFFFFFE000000
0003FFFFFFFFFC000000
0003FFFFFFFFFC000000
0003FFFFFFFFFC000000
0007FE00000000000000
0007FE00000000000000
0007FE00000000000000
000FFC00000000000000
000FFC00000000000000
000FFC00000000000000
001FF800000000000000
001FF800000000000000
001FF800000000000000
003FF000000000000000
0001FFFFFFF800000000
0001FFFFFFF800000000
0003FFFFFFF000000000
0003FFFFFFF000000000
0003FFFFFFF000000000
0007FFFFFFE000000000
0007FFFFFFE000000000
0007FFFFFFE000000000
000FFFFFFFC000000000
000FFFFFFFC000000000
00000000000000000000
00000000000000000000
00000000000000000000
00000000000000000000
00000000000000000000
00000000000000000000
00000000000000000000
00000000000000000000
00000000000000000000
00000000000000000000
00000000000000000000
00000000000000000000
00000000000000000000
00000000000000000000
00000000000000000000
00000000000000000000
00000000000000000000
00000000000000000000
00000000000000000000
00000000000000000000
ENDCHAR
STARTCHAR U+00E9
ENCODING 233
SWIDTH 1000 0
DWIDTH 45 0
BBX 78 100 -16 -20
BITMAP
00000000000000000000
00000000000000000000
00000000000000000000
00000000000000000000
00000000000000000000
00000000000000000000
00000000000000000000
00000000000000000000
00000000000000000000
00000000000000000000
000000000007FFF00000
000000000007FFF00000
00000000000FFFE00000
00000000000FFFE00000
00000000000FFFE00000
00000000001FFFC00000
00000000001FFFC00000
00000000001FFFC00000
00000000003FFF800000
00000000003FFF800000
00000000FFFE00000000
00000001FFFC00000000
00000001FFFC00000000
00000001FFFC00000000
00000003FFF800000000
00000003FFF800000000
00000003FFF800000000
00000007FFF000000000
00000007FFF000000000
00000007FFF000000000
0000000FFFFFFFC00000
0000000FFFFFFFC00000
0000000FFFFFFFC00000
0000001FFFFFFF800000
0000001FFFFFFF800000
0000001FFFFFFF800000
0000003FFFFFFF000000
0000003FFFFFFF000000
0000003FFFFFFF000000
0000007FFFFFFE000000
00000FFC00003FF00000
00000FFC00003FF00000
00001FF800007FE00000
00001FF800007FE00000
00001FF800007FE00000
00003FF00000FFC00000
00003FF00000FFC00000
00003FF00000FFC00000
00007FE00001FF800000
00007FE00001FF800000
00007FFFFFFFFF800000
0000FFFFFFFFFF000000
0000FFFFFFFFFF000000
0000FFFFFFFFFF000000
0001FFFFFFFFFE000000
0001FFFFFFFFFE000000
0001FFFFFFFFFE000000
0003FFFFFFFFFC000000
0003FFFFFFFFFC000000
0003FFFFFFFFFC000000
0007FE00000000000000
0007FE00000000000000
0007FE00000000000000
000FFC00000000000000
000FFC00000000000000
000FFC00000000000000
001FF800000000000000
001FF800000000000000
001FF800000000000000
003FF000000000000000
0001FFFFFFF800000000
0001FFFFFFF800000000
0003FFFFFFF000000000
0003FFFFFFF000000000
0003FFFFFFF000000000
0007FFFFFFE000000000
0007FFFFFFE000000000
0007FFFFFFE000000000
000FFFFFFFC000000000
000FFFFFFFC000000000
00000000000000000000
00000000000000000000
00000000000000000000
00000000000000000000
00000000000000000000
00000000000000000000
00000000000000000000
00000000000000000000
00000000000000000000
00000000000000000000
00000000000000000000
00000000000000000000
00000000000000000000
00000000000000000000
00000000000000000000
00000000000000000000
00000000000000000000
00000000000000000000
00000000000000000000
00000000000000000000
ENDCHAR
STARTCHAR U+00E8
ENCODING 232
SWIDTH 1000 0
DWIDTH 45 0
BBX 78 100 -16 -20
BITMAP
00000000000000000000
00000000000000000000
00000000000000000000
00000000000000000000
00000000000000000000
00000000000000000000
00000000000000000000
00000000000000000000
00000000000000000000
00000000000000000000
0000000000FFFE000000
0000000000FFFE000000
0000000001FFFC000000
0000000001FFFC000000
0000000001FFFC000000
0000000003FFF8000000
0000000003FFF8000000
0000000003FFF8000000
0000000007FFF0000000
0000000007FFF0000000
000000000001FFFC0000
000000000003FFF80000
000000000003FFF80000
000000000003FFF80000
000000000007FFF00000
000000000007FFF00000
000000000007FFF00000
00000000000FFFE00000
00000000000FFFE00000
00000000000FFFE00000
0000000FFFFFFFC00000
0000000FFFFFFFC00000
0000000FFFFFFFC00000
0000001FFFFFFF800000
0000001FFFFFFF800000
0000001FFFFFFF800000
0000003FFFFFFF000000
0000003FFFFFFF000000
0000003FFFFFFF000000
0000007FFFFFFE000000
00000FFC00003FF00000
00000FFC00003FF00000
00001FF800007FE00000
00001FF800007FE00000
00001FF800007FE00000
00003FF00000FFC00000
00003FF00000FFC00000
00003FF00000FFC00000
00007FE00001FF800000
00007FE00001FF800000
00007FFFFFFFFF800000
0000FFFFFFFFFF000000
0000FFFFFFFFFF000000
0000FFFFFFFFFF000000
0001FFFFFFFFFE000000
0001FFFFFFFFFE000000
0001FFFFFFFFFE000000
0003FFFFFFFFFC000000
0003FFFFFFFFFC000000
0003FFFFFFFFFC000000
0007FE00000000000000
0007FE00000000000000
0007FE00000000000000
000FFC00000000000000
000FFC00000000000000
000FFC00000000000000
001FF800000000000000
001FF800000000000000
001FF800000000000000
003FF000000000000000
0001FFFFFFF800000000
0001FFFFFFF800000000
0003FFFFFFF000000000
0003FFFFFFF000000000
0003FFFFFFF000000000
0007FFFFFFE000000000
0007FFFFFFE000000000
0007FFFFFFE000000000
000FFFFFFFC000000000
000FFFFFFFC000000000
00000000000000000000
00000000000000000000
00000000000000000000
00000000000000000000
00000000000000000000
00000000000000000000
00000000000000000000
00000000000000000000
00000000000000000000
00000000000000000000
00000000000000000000
00000000000000000000
00000000000000000000
00000000000000000000
00000000000000000000
00000000000000000000
00000000000000000000
00000000000000000000
00000000000000000000
00000000000000000000
ENDCHAR
STARTCHAR U+00E7
ENCODING 231
SWIDTH 1000 0
DWIDTH 45 0
BBX 78 100 -16 -20
BITMAP
00000000000000000000
00000000000000000000
00000000000000000000
00000000000000000000
00000000000000000000
00000000000000000000
00000000000000000000
00000000000000000000
00000000000000000000
00000000000000000000
00000000000000000000
00000000000000000000
00000000000000000000
00000000000000000000
00000000000000000000
00000000000000000000
00000000000000000000
00000000000000000000
00000000000000000000
00000000000000000000
00000000000000000000
00000000000000000000
00000000000000000000
00000000000000000000
00000000000000000000
00000000000000000000
00000000000000000000
00000000000000000000
00000000000000000000
00000000000000000000
0000000FFFFFFFC00000
0000000FFFFFFFC00000
0000000FFFFFFFC00000
0000001FFFFFFF800000
0000001FFFFFFF800000
0000001FFFFFFF800000
0000003FFFFFFF000000
0000003FFFFFFF000000
0000003FFFFFFF000000
0000007FFFFFFE000000
00000FFC00003FF00000
00000FFC00003FF00000
00001FF800007FE00000
00001FF800007FE00000
00001FF800007FE00000
00003FF00000FFC00000
00003FF00000FFC00000
00003FF00000FFC00000
00007FE00001FF800000
00007FE00001FF800000
00007FE0000000000000
0000FFC0000000000000
0000FFC0000000000000
0000FFC0000000000000
0001FF80000000000000
0001FF80000000000000
0001FF80000000000000
0003FF00000000000000
0003FF00000000000000
0003FF00000000000000
0007FE00001FF8000000
0007FE00001FF8000000
0007FE00001FF8000000
000FFC00003FF0000000
000FFC00003FF0000000
000FFC00003FF0000000
001FF800007FE0000000
001FF800007FE0000000
001FF800007FE0000000
003FF00000FFC0000000
0001FFFFFFF800000000
0001FFFFFFF800000000
0003FFFFFFF000000000
0003FFFFFFF000000000
0003FFFFFFF000000000
0007FFFFFFE000000000
0007FFFFFFE000000000
0007FFFFFFE000000000
000FFFFFFFC000000000
000FFFFFFFC000000000
0000001FF80000000000
0000003FF00000000000
0000003FF00000000000
0000003FF00000000000
0000007FE00000000000
0000007FE00000000000
0000007FE00000000000
000000FFC00000000000
000000FFC00000000000
000000FFC00000000000
0007FFFF800000000000
0007FFFF800000000000
0007FFFF800000000000
000FFFFF000000000000
000FFFFF000000000000
000FFFFF000000000000
001FFFFE000000000000
001FFFFE000000000000
001FFFFE000000000000
003FFFFC000000000000
ENDCHAR
STARTCHAR U+00E6
ENCODING 230
SWIDTH 1000 0
DWIDTH 45 0
BBX 78 100 -16 -20
BITMAP
00000000000000000000
00000000000000000000
00000000000000000000
00000000000000000000
00000000000000000000
00000000000000000000
00000000000000000000
00000000000000000000
00000000000000000000
00000000000000000000
00000000000000000000
00000000000000000000
00000000000000000000
00000000000000000000
00000000000000000000
00000000000000000000
00000000000000000000
00000000000000000000
00000000000000000000
00000000000000000000
00000000000000000000
00000000000000000000
00000000000000000000
00000000000000000000
00000000000000000000
00000000000000000000
00000000000000000000
00000000000000000000
00000000000000000000
00000000000000000000
0000000FFFFFFFC00000
0000000FFFFFFFC00000
0000000FFFFFFFC00000
0000001FFFFFFF800000
0000001FFFFFFF800000
0000001FFFFFFF800000
0000003FFFFFFF000000
0000003FFFFFFF000000
0000003FFFFFFF000000
0000007FFFFFFE000000
000000001FF83FF00000
000000001FF83FF00000
000000003FF07FE00000
000000003FF07FE00000
000000003FF07FE00000
000000007FE0FFC00000
000000007FE0FFC00000
000000007FE0FFC00000
00000000FFC1FF800000
00000000FFC1FF800000
000003FFFFFFFF800000
000007FFFFFFFF000000
000007FFFFFFFF000000
000007FFFFFFFF000000
00000FFFFFFFFE000000
00000FFFFFFFFE000000
00000FFFFFFFFE000000
00001FFFFFFFFC000000
00001FFFFFFFFC000000
00001FFFFFFFFC000000
0007FE0FFC0000000000
0007FE0FFC0000000000
0007FE0FFC0000000000
000FFC1FF80000000000
000FFC1FF80000000000
000FFC1FF80000000000
001FF83FF00000000000
001FF83FF00000000000
001FF83FF00000000000
003FF07FE00000000000
0001FFFFFFFFC0000000
0001FFFFFFFFC0000000
0003FFFFFFFF80000000
0003FFFFFFFF80000000
0003FFFFFFFF80000000
0007FFFFFFFF00000000
0007FFFFFFFF00000000
0007FFFFFFFF00000000
000FFFFFFFFE00000000
000FFFFFFFFE00000000
00000000000000000000
00000000000000000000
00000000000000000000
00000000000000000000
00000000000000000000
00000000000000000000
00000000000000000000
00000000000000000000
00000000000000000000
00000000000000000000
00000000000000000000
00000000000000000000
00000000000000000000
00000000000000000000
00000000000000000000
00000000000000000000
00000000000000000000
00000000000000000000
00000000000000000000
00000000000000000000
ENDCHAR
STARTCHAR U+00E5
ENCODING 229
SWIDTH 1000 0
DWIDTH 45 0
BBX 78 100 -16 -20
BITMAP
00000000001FFFFE0000
00000000001FFFFE0000
00000000001FFFFE0000
00000000003FFFFC0000
00000000003FFFFC0000
00000000003FFFFC0000
00000000007FFFF80000
00000000007FFFF80000
00000000007FFFF80000
0000000000FFFFF00000
000000001FF801FF8000
000000001FF801FF8000
000000003FF003FF0000
000000003FF003FF0000
000000003FF003FF0000
000000007FE007FE0000
000000007FE007FE0000
000000007FE007FE0000
00000000FFC00FFC0000
00000000FFC00FFC0000
0000000007FFFF800000
000000000FFFFF000000
000000000FFFFF000000
000000000FFFFF000000
000000001FFFFE000000
000000001FFFFE000000
000000001FFFFE000000
000000003FFFFC000000
000000003FFFFC000000
000000003FFFFC000000
0000000FFFFFFFC00000
0000000FFFFFFFC00000
0000000FFFFFFFC00000
0000001FFFFFFF800000
0000001FFFFFFF800000
0000001FFFFFFF800000
0000003FFFFFFF000000
0000003FFFFFFF000000
0000003FFFFFFF000000
0000007FFFFFFE000000
0000000000003FF00000
0000000000003FF00000
0000000000007FE00000
0000000000007FE00000
0000000000007FE00000
000000000000FFC00000
000000000000FFC00000
000000000000FFC00000
000000000001FF800000
000000000001FF800000
000003FFFFFFFF800000
000007FFFFFFFF000000
000007FFFFFFFF000000
000007FFFFFFFF000000
00000FFFFFFFFE000000
00000FFFFFFFFE000000
00000FFFFFFFFE000000
00001FFFFFFFFC000000
00001FFFFFFFFC000000
00001FFFFFFFFC000000
0007FE0003FFF8000000
0007FE0003FFF8000000
0007FE0003FFF8000000
000FFC0007FFF0000000
000FFC0007FFF0000000
000FFC0007FFF0000000
001FF8000FFFE0000000
001FF8000FFFE0000000
001FF8000FFFE0000000
003FF0001FFFC0000000
0001FFFFFFFFC0000000
0001FFFFFFFFC0000000
0003FFFFFFFF80000000
0003FFFFFFFF80000000
0003FFFFFFFF80000000
0007FFFFFFFF00000000
0007FFFFFFFF00000000
0007FFFFFFFF00000000
000FFFFFFFFE00000000
000FFFFFFFFE00000000
00000000000000000000
00000000000000000000
00000000000000000000
00000000000000000000
00000000000000000000
00000000000000000000
00000000000000000000
00000000000000000000
00000000000000000000
00000000000000000000
00000000000000000000
00000000000000000000
00000000000000000000
00000000000000000000
00000000000000000000
00000000000000000000
00000000000000000000
00000000000000000000
00000000000000000000
00000000000000000000
ENDCHAR
STARTCHAR U+00E4
ENCODING 228
SWIDTH 1000 0
DWIDTH 45 0
BBX 78 100 -16 -20
BITMAP
00000000000000000000
00000000000000000000
00000000000000000000
00000000000000000000
00000000000000000000
00000000000000000000
00000000000000000000
00000000000000000000
00000000000000000000
00000000000000000000
000000001FF801FF8000
000000001FF801FF8000
000000003FF003FF0000
000000003FF003FF0000
000000003FF003FF0000
000000007FE007FE0000
000000007FE007FE0000
000000007FE007FE0000
00000000FFC00FFC0000
00000000FFC00FFC0000
00000000000000000000
00000000000000000000
00000000000000000000
00000000000000000000
00000000000000000000
00000000000000000000
00000000000000000000
00000000000000000000
00000000000000000000
00000000000000000000
0000000FFFFFFFC00000
0000000FFFFFFFC00000
0000000FFFFFFFC00000
0000001FFFFFFF800000
0000001FFFFFFF800000
0000001FFFFFFF800000
0000003FFFFFFF000000
0000003FFFFFFF000000
0000003FFFFFFF000000
0000007FFFFFFE000000
0000000000003FF00000
0000000000003FF00000
0000000000007FE00000
0000000000007FE00000
0000000000007FE00000
000000000000FFC00000
000000000000FFC00000
000000000000FFC00000
000000000001FF800000
000000000001FF800000
000003FFFFFFFF800000
000007FFFFFFFF000000
000007FFFFFFFF000000
000007FFFFFFFF000000
00000FFFFFFFFE000000
00000FFFFFFFFE000000
00000FFFFFFFFE000000
00001FFFFFFFFC000000
00001FFFFFFFFC000000
00001FFFFFFFFC000000
0007FE0003FFF8000000
0007FE0003FFF8000000
0007FE0003FFF8000000
000FFC0007FFF0000000
000FFC0007FFF0000000
000FFC0007FFF0000000
001FF8000FFFE0000000
001FF8000FFFE0000000
001FF8000FFFE0000000
003FF0001FFFC0000000
0001FFFFFFFFC0000000
0001FFFFFFFFC0000000
0003FFFFFFFF80000000
0003FFFFFFFF80000000
0003FFFFFFFF80000000
0007FFFFFFFF00000000
0007FFFFFFFF00000000
0007FFFFFFFF00000000
000FFFFFFFFE00000000
000FFFFFFFFE00000000
00000000000000000000
00000000000000000000
00000000000000000000
00000000000000000000
00000000000000000000
00000000000000000000
00000000000000000000
00000000000000000000
00000000000000000000
00000000000000000000
00000000000000000000
00000000000000000000
00000000000000000000
00000000000000000000
00000000000000000000
00000000000000000000
00000000000000000000
00000000000000000000
00000000000000000000
00000000000000000000
ENDCHAR
STARTCHAR U+00E3
ENCODING 227
SWIDTH 1000 0
DWIDTH 45 0
BBX 78 100 -16 -20
BITMAP
00000000001FFFC1FF80
00000000001FFFC1FF80
00000000001FFFC1FF80
00000000003FFF83FF00
00000000003FFF83FF00
00000000003FFF83FF00
00000000007FFF07FE00
00000000007FFF07FE00
00000000007FFF07FE00
0000000000FFFE0FFC00
000000001FF83FFF8000
000000001FF83FFF8000
000000003FF07FFF0000
000000003FF07FFF0000
000000003FF07FFF0000
000000007FE0FFFE0000
000000007FE0FFFE0000
000000007FE0FFFE0000
00000000FFC1FFFC0000
00000000FFC1FFFC0000
00000000000000000000
00000000000000000000
00000000000000000000
00000000000000000000
00000000000000000000
00000000000000000000
00000000000000000000
00000000000000000000
00000000000000000000
00000000000000000000
0000000FFFFFFFC00000
0000000FFFFFFFC00000
0000000FFFFFFFC00000
0000001FFFFFFF800000
0000001FFFFFFF800000
0000001FFFFFFF800000
0000003FFFFFFF000000
0000003FFFFFFF000000
0000003FFFFFFF000000
0000007FFFFFFE000000
0000000000003FF00000
0000000000003FF00000
0000000000007FE00000
0000000000007FE00000
0000000000007FE00000
000000000000FFC00000
000000000000FFC00000
000000000000FFC00000
000000000001FF800000
000000000001FF800000
000003FFFFFFFF800000
000007FFFFFFFF000000
000007FFFFFFFF000000
000007FFFFFFFF000000
00000FFFFFFFFE000000
00000FFFFFFFFE000000
00000FFFFFFFFE000000
00001FFFFFFFFC000000
00001FFFFFFFFC000000
00001FFFFFFFFC000000
0007FE0003FFF8000000
0007FE0003FFF8000000
0007FE0003FFF8000000
000FFC0007FFF0000000
000FFC0007FFF0000000
000FFC0007FFF0000000
001FF8000FFFE0000000
001FF8000FFFE0000000
001FF8000FFFE0000000
003FF0001FFFC0000000
0001FFFFFFFFC0000000
0001FFFFFFFFC0000000
0003FFFFFFFF80000000
0003FFFFFFFF80000000
0003FFFFFFFF80000000
0007FFFFFFFF00000000
0007FFFFFFFF00000000
0007FFFFFFFF00000000
000FFFFFFFFE00000000
000FFFFFFFFE00000000
00000000000000000000
00000000000000000000
00000000000000000000
00000000000000000000
00000000000000000000
00000000000000000000
00000000000000000000
00000000000000000000
00000000000000000000
00000000000000000000
00000000000000000000
00000000000000000000
00000000000000000000
00000000000000000000
00000000000000000000
00000000000000000000
00000000000000000000
00000000000000000000
00000000000000000000
00000000000000000000
ENDCHAR
STARTCHAR U+00E2
ENCODING 226
SWIDTH 1000 0
DWIDTH 45 0
BBX 78 100 -16 -20
BITMAP
00000000001FFFFE0000
00000000001FFFFE0000
00000000001FFFFE0000
00000000003FFFFC0000
00000000003FFFFC0000
00000000003FFFFC0000
00000000007FFFF80000
00000000007FFFF80000
00000000007FFFF80000
0000000000FFFFF00000
000000001FF801FF8000
000000001FF801FF8000
000000003FF003FF0000
000000003FF003FF0000
000000003FF003FF0000
000000007FE007FE0000
000000007FE007FE0000
000000007FE007FE0000
00000000FFC00FFC0000
00000000FFC00FFC0000
00000000000000000000
00000000000000000000
00000000000000000000
00000000000000000000
00000000000000000000
00000000000000000000
00000000000000000000
00000000000000000000
00000000000000000000
00000000000000000000
0000000FFFFFFFC00000
0000000FFFFFFFC00000
0000000FFFFFFFC00000
0000001FFFFFFF800000
0000001FFFFFFF800000
0000001FFFFFFF800000
0000003FFFFFFF000000
0000003FFFFFFF000000
0000003FFFFFFF000000
0000007FFFFFFE000000
0000000000003FF00000
0000000000003FF00000
0000000000007FE00000
0000000000007FE00000
0000000000007FE00000
000000000000FFC00000
000000000000FFC00000
000000000000FFC00000
000000000001FF800000
000000000001FF800000
000003FFFFFFFF800000
000007FFFFFFFF000000
000007FFFFFFFF000000
000007FFFFFFFF000000
00000FFFFFFFFE000000
00000FFFFFFFFE000000
00000FFFFFFFFE000000
00001FFFFFFFFC000000
00001FFFFFFFFC000000
00001FFFFFFFFC000000
0007FE0003FFF8000000
0007FE0003FFF8000000
0007FE0003FFF8000000
000FFC0007FFF0000000
000FFC0007FFF0000000
000FFC0007FFF0000000
001FF8000FFFE0000000
001FF8000FFFE0000000
001FF8000FFFE0000000
003FF0001FFFC0000000
0001FFFFFFFFC0000000
0001FFFFFFFFC0000000
0003FFFFFFFF80000000
0003FFFFFFFF80000000
0003FFFFFFFF80000000
0007FFFFFFFF00000000
0007FFFFFFFF00000000
0007FFFFFFFF00000000
000FFFFFFFFE00000000
000FFFFFFFFE00000000
00000000000000000000
00000000000000000000
00000000000000000000
00000000000000000000
00000000000000000000
00000000000000000000
00000000000000000000
00000000000000000000
00000000000000000000
00000000000000000000
00000000000000000000
00000000000000000000
00000000000000000000
00000000000000000000
00000000000000000000
00000000000000000000
00000000000000000000
00000000000000000000
00000000000000000000
00000000000000000000
ENDCHAR
STARTCHAR U+00E1
ENCODING 225
SWIDTH 1000 0
DWIDTH 45 0
BBX 78 100 -16 -20
BITMAP
00000000000000000000
00000000000000000000
00000000000000000000
00000000000000000000
00000000000000000000
00000000000000000000
00000000000000000000
00000000000000000000
00000000000000000000
00000000000000000000
000000000007FFF00000
000000000007FFF00000
00000000000FFFE00000
00000000000FFFE00000
00000000000FFFE00000
00000000001FFFC00000
00000000001FFFC00000
00000000001FFFC00000
00000000003FFF800000
00000000003FFF800000
00000000FFFE00000000
00000001FFFC00000000
00000001FFFC00000000
00000001FFFC00000000
00000003FFF800000000
00000003FFF800000000
00000003FFF800000000
00000007FFF000000000
00000007FFF000000000
00000007FFF000000000
0000000FFFFFFFC00000
0000000FFFFFFFC00000
0000000FFFFFFFC00000
0000001FFFFFFF800000
0000001FFFFFFF800000
0000001FFFFFFF800000
0000003FFFFFFF000000
0000003FFFFFFF000000
0000003FFFFFFF000000
0000007FFFFFFE000000
0000000000003FF00000
0000000000003FF00000
0000000000007FE00000
0000000000007FE00000
0000000000007FE00000
000000000000FFC00000
000000000000FFC00000
000000000000FFC00000
000000000001FF800000
000000000001FF800000
000003FFFFFFFF800000
000007FFFFFFFF000000
000007FFFFFFFF000000
000007FFFFFFFF000000
00000FFFFFFFFE000000
00000FFFFFFFFE000000
00000FFFFFFFFE000000
00001FFFFFFFFC000000
00001FFFFFFFFC000000
00001FFFFFFFFC000000
0007FE0003FFF8000000
0007FE0003FFF8000000
0007FE0003FFF8000000
000FFC0007FFF0000000
000FFC0007FFF0000000
000FFC0007FFF0000000
001FF8000FFFE0000000
001FF8000FFFE0000000
001FF8000FFFE0000000
003FF0001FFFC0000000
0001FFFFFFFFC0000000
0001FFFFFFFFC0000000
0003FFFFFFFF80000000
0003FFFFFFFF80000000
0003FFFFFFFF80000000
0007FFFFFFFF00000000
0007FFFFFFFF00000000
0007FFFFFFFF00000000
000FFFFFFFFE00000000
000FFFFFFFFE00000000
00000000000000000000
00000000000000000000
00000000000000000000
00000000000000000000
00000000000000000000
00000000000000000000
00000000000000000000
00000000000000000000
00000000000000000000
00000000000000000000
00000000000000000000
00000000000000000000
00000000000000000000
00000000000000000000
00000000000000000000
00000000000000000000
00000000000000000000
00000000000000000000
00000000000000000000
00000000000000000000
ENDCHAR
STARTCHAR U+00E0
ENCODING 224
SWIDTH 1000 0
DWIDTH 45 0
BBX 78 100 -16 -20
BITMAP
00000000000000000000
00000000000000000000
00000000000000000000
00000000000000000000
00000000000000000000
00000000000000000000
00000000000000000000
00000000000000000000
00000000000000000000
00000000000000000000
0000000000FFFE000000
0000000000FFFE000000
0000000001FFFC000000
0000000001FFFC000000
0000000001FFFC000000
0000000003FFF8000000
0000000003FFF8000000
0000000003FFF8000000
0000000007FFF0000000
0000000007FFF0000000
000000000001FFFC0000
000000000003FFF80000
000000000003FFF80000
000000000003FFF80000
000000000007FFF00000
000000000007FFF00000
000000000007FFF00000
00000000000FFFE00000
00000000000FFFE00000
00000000000FFFE00000
0000000FFFFFFFC00000
0000000FFFFFFFC00000
0000000FFFFFFFC00000
0000001FFFFFFF800000
0000001FFFFFFF800000
0000001FFFFFFF800000
0000003FFFFFFF000000
0000003FFFFFFF000000
0000003FFFFFFF000000
0000007FFFFFFE000000
0000000000003FF00000
0000000000003FF00000
0000000000007FE00000
0000000000007FE00000
0000000000007FE00000
000000000000FFC00000
000000000000FFC00000
000000000000FFC00000
000000000001FF800000
000000000001FF800000
000003FFFFFFFF800000
000007FFFFFFFF000000
000007FFFFFFFF000000
000007FFFFFFFF000000
00000FFFFFFFFE000000
00000FFFFFFFFE000000
00000FFFFFFFFE000000
00001FFFFFFFFC000000
00001FFFFFFFFC000000
00001FFFFFFFFC000000
0007FE0003FFF8000000
0007FE0003FFF8000000
0007FE0003FFF8000000
000FFC0007FFF0000000
000FFC0007FFF0000000
000FFC0007FFF0000000
001FF8000FFFE0000000
001FF8000FFFE0000000
001FF8000FFFE0000000
003FF0001FFFC0000000
0001FFFFFFFFC0000000
0001FFFFFFFFC0000000
0003FFFFFFFF80000000
0003FFFFFFFF80000000
0003FFFFFFFF80000000
0007FFFFFFFF00000000
0007FFFFFFFF00000000
0007FFFFFFFF00000000
000FFFFFFFFE00000000
000FFFFFFFFE00000000
00000000000000000000
00000000000000000000
00000000000000000000
00000000000000000000
00000000000000000000
00000000000000000000
00000000000000000000
00000000000000000000
00000000000000000000
00000000000000000000
00000000000000000000
00000000000000000000
00000000000000000000
00000000000000000000
00000000000000000000
00000000000000000000
00000000000000000000
00000000000000000000
00000000000000000000
00000000000000000000
ENDCHAR
STARTCHAR U+00DF
ENCODING 223
SWIDTH 1000 0
DWIDTH 45 0
BBX 78 100 -16 -20
BITMAP
00000000000000000000
00000000000000000000
00000000000000000000
00000000000000000000
00000000000000000000
00000000000000000000
00000000000000000000
00000000000000000000
00000000000000000000
00000000000000000000
0000000000FFFFF00000
0000000000FFFFF00000
0000000001FFFFE00000
0000000001FFFFE00000
0000000001FFFFE00000
0000000003FFFFC00000
0000000003FFFFC00000
0000000003FFFFC00000
0000000007FFFF800000
0000000007FFFF800000
00000000FFC00FFC0000
00000001FF801FF80000
00000001FF801FF80000
00000001FF801FF80000
00000003FF003FF00000
00000003FF003FF00000
00000003FF003FF00000
00000007FE007FE00000
00000007FE007FE00000
00000007FE007FE00000
000001FF8000FFC00000
000001FF8000FFC00000
000001FF8000FFC00000
000003FF0001FF800000
000003FF0001FF800000
000003FF0001FF800000
000007FE0003FF000000
000007FE0003FF000000
000007FE0003FF000000
00000FFC0007FE000000
00000FFFFFFFC0000000
00000FFFFFFFC0000000
00001FFFFFFF80000000
00001FFFFFFF80000000
00001FFFFFFF80000000
00003FFFFFFF00000000
00003FFFFFFF00000000
00003FFFFFFF00000000
00007FFFFFFE00000000
00007FFFFFFE00000000
00007FE0003FF0000000
0000FFC0007FE0000000
0000FFC0007FE0000000
0000FFC0007FE0000000
0001FF8000FFC0000000
0001FF8000FFC0000000
0001FF8000FFC0000000
0003FF0001FF80000000
0003FF0001FF80000000
0003FF0001FF80000000
0007FFFF801FF8000000
0007FFFF801FF8000000
0007FFFF801FF8000000
000FFFFF003FF0000000
000FFFFF003FF0000000
000FFFFF003FF0000000
001FFFFE007FE0000000
001FFFFE007FE0000000
001FFFFE007FE0000000
003FFFFC00FFC0000000
003FF07FFFF800000000
003FF07FFFF800000000
007FE0FFFFF000000000
007FE0FFFFF000000000
007FE0FFFFF000000000
00FFC1FFFFE000000000
00FFC1FFFFE000000000
00FFC1FFFFE000000000
01FF83FFFFC000000000
01FF83FFFFC000000000
01FF8000000000000000
03FF0000000000000000
03FF0000000000000000
03FF0000000000000000
07FE0000000000000000
07FE0000000000000000
07FE0000000000000000
0FFC0000000000000000
0FFC0000000000000000
0FFC0000000000000000
00000000000000000000
00000000000000000000
00000000000000000000
00000000000000000000
00000000000000000000
00000000000000000000
00000000000000000000
00000000000000000000
00000000000000000000
00000000000000000000
ENDCHAR
STARTCHAR U+00DE
ENCODING 222
SWIDTH 1000 0
DWIDTH 45 0
BBX 78 100 -16 -20
BITMAP
00000000000000000000
00000000000000000000
00000000000000000000
00000000000000000000
00000000000000000000
00000000000000000000
00000000000000000000
00000000000000000000
00000000000000000000
00000000000000000000
00000003FFF800000000
00000003FFF800000000
00000007FFF000000000
00000007FFF000000000
00000007FFF000000000
0000000FFFE000000000
0000000FFFE000000000
0000000FFFE000000000
0000001FFFC000000000
0000001FFFC000000000
00000000FFFFFFFC0000
00000001FFFFFFF80000
00000001FFFFFFF80000
00000001FFFFFFF80000
00000003FFFFFFF00000
00000003FFFFFFF00000
00000003FFFFFFF00000
00000007FFFFFFE00000
00000007FFFFFFE00000
00000007FFFFFFE00000
0000000FFC0007FE0000
0000000FFC0007FE0000
0000000FFC0007FE0000
0000001FF8000FFC0000
0000001FF8000FFC0000
0000001FF8000FFC0000
0000003FF0001FF80000
0000003FF0001FF80000
0000003FF0001FF80000
0000007FE0003FF00000
0000007FE0003FF00000
0000007FE0003FF00000
000000FFC0007FE00000
000000FFC0007FE00000
000000FFC0007FE00000
000001FF8000FFC00000
000001FF8000FFC00000
000001FF8000FFC00000
000003FF0001FF800000
000003FF0001FF800000
000003FF0001FF800000
000007FE0003FF000000
000007FE0003FF000000
000007FE0003FF000000
00000FFC0007FE000000
00000FFC0007FE000000
00000FFC0007FE000000
00001FF8000FFC000000
00001FF8000FFC000000
00001FF8000FFC000000
00003FFFFFFF00000000
00003FFFFFFF00000000
00003FFFFFFF00000000
00007FFFFFFE00000000
00007FFFFFFE00000000
00007FFFFFFE00000000
0000FFFFFFFC00000000
0000FFFFFFFC00000000
0000FFFFFFFC00000000
0001FFFFFFF800000000
003FFF80000000000000
003FFF80000000000000
007FFF00000000000000
007FFF00000000000000
007FFF00000000000000
00FFFE00000000000000
00FFFE00000000000000
00FFFE00000000000000
01FFFC00000000000000
01FFFC00000000000000
00000000000000000000
00000000000000000000
00000000000000000000
00000000000000000000
00000000000000000000
00000000000000000000
00000000000000000000
00000000000000000000
00000000000000000000
00000000000000000000
00000000000000000000
00000000000000000000
00000000000000000000
00000000000000000000
00000000000000000000
00000000000000000000
00000000000000000000
00000000000000000000
00000000000000000000
00000000000000000000
ENDCHAR
STARTCHAR U+0178
ENCODING 376
SWIDTH 1000 0
DWIDTH 45 0
BBX 78 100 -16 -20
BITMAP
0000000003FF003FF000
0000000003FF003FF000
0000000003FF003FF000
0000000007FE007FE000
0000000007FE007FE000
0000000007FE007FE000
000000000FFC00FFC000
000000000FFC00FFC000
000000000FFC00FFC000
000000001FF801FF8000
00000000000000000000
00000000000000000000
00000000000000000000
00000000000000000000
00000000000000000000
00000000000000000000
00000000000000000000
00000000000000000000
00000000000000000000
00000000000000000000
0000001FF800007FE000
0000003FF00000FFC000
0000003FF00000FFC000
0000003FF00000FFC000
0000007FE00001FF8000
0000007FE00001FF8000
0000007FE00001FF8000
000000FFC00003FF0000
000000FFC00003FF0000
000000FFC00003FF0000
0000000FFC00FFC00000
0000000FFC00FFC00000
0000000FFC00FFC00000
0000001FF801FF800000
0000001FF801FF800000
0000001FF801FF800000
0000003FF003FF000000
0000003FF003FF000000
0000003FF003FF000000
0000007FE007FE000000
00000003FFFFC0000000
00000003FFFFC0000000
00000007FFFF80000000
00000007FFFF80000000
00000007FFFF80000000
0000000FFFFF00000000
0000000FFFFF00000000
0000000FFFFF00000000
0000001FFFFE00000000
0000001FFFFE00000000
00000000FFC000000000
00000001FF8000000000
00000001FF8000000000
00000001FF8000000000
00000003FF0000000000
00000003FF0000000000
00000003FF0000000000
00000007FE0000000000
00000007FE0000000000
00000007FE0000000000
0000000FFC0000000000
0000000FFC0000000000
0000000FFC0000000000
0000001FF80000000000
0000001FF80000000000
0000001FF80000000000
0000003FF00000000000
0000003FF00000000000
0000003FF00000000000
0000007FE00000000000
0000007FE00000000000
0000007FE00000000000
000000FFC00000000000
000000FFC00000000000
000000FFC00000000000
000001FF800000000000
000001FF800000000000
000001FF800000000000
000003FF000000000000
000003FF000000000000
00000000000000000000
00000000000000000000
00000000000000000000
00000000000000000000
00000000000000000000
00000000000000000000
00000000000000000000
00000000000000000000
00000000000000000000
00000000000000000000
00000000000000000000
00000000000000000000
00000000000000000000
00000000000000000000
00000000000000000000
00000000000000000000
00000000000000000000
00000000000000000000
00000000000000000000
00000000000000000000
ENDCHAR
STARTCHAR U+00DC
ENCODING 220
SWIDTH 1000 0
DWIDTH 45 0
BBX 78 100 -16 -20
BITMAP
0000000003FF003FF000
0000000003FF003FF000
0000000003FF003FF000
0000000007FE007FE000
0000000007FE007FE000
0000000007FE007FE000
000000000FFC00FFC000
000000000FFC00FFC000
000000000FFC00FFC000
000000001FF801FF8000
00000000000000000000
00000000000000000000
00000000000000000000
00000000000000000000
00000000000000000000
00000000000000000000
00000000000000000000
00000000000000000000
00000000000000000000
00000000000000000000
0000001FF800007FE000
0000003FF00000FFC000
0000003FF00000FFC000
0000003FF00000FFC000
0000007FE00001FF8000
0000007FE00001FF8000
0000007FE00001FF8000
000000FFC00003FF0000
000000FFC00003FF0000
000000FFC00003FF0000
000001FF800007FE0000
000001FF800007FE0000
000001FF800007FE0000
000003FF00000FFC0000
000003FF00000FFC0000
000003FF00000FFC0000
000007FE00001FF80000
000007FE00001FF80000
000007FE00001FF80000
00000FFC00003FF00000
00000FFC00003FF00000
00000FFC00003FF00000
00001FF800007FE00000
00001FF800007FE00000
00001FF800007FE00000
00003FF00000FFC00000
00003FF00000FFC00000
00003FF00000FFC00000
00007FE00001FF800000
00007FE00001FF800000
00007FE00001FF800000
0000FFC00003FF000000
0000FFC00003FF000000
0000FFC00003FF000000
0001FF800007FE000000
0001FF800007FE000000
0001FF800007FE000000
0003FF00000FFC000000
0003FF00000FFC000000
0003FF00000FFC000000
0007FE00001FF8000000
0007FE00001FF8000000
0007FE00001FF8000000
000FFC00003FF0000000
000FFC00003FF0000000
000FFC00003FF0000000
001FF800007FE0000000
001FF800007FE0000000
001FF800007FE0000000
003FF00000FFC0000000
0001FFFFFFF800000000
0001FFFFFFF800000000
0003FFFFFFF000000000
0003FFFFFFF000000000
0003FFFFFFF000000000
0007FFFFFFE000000000
0007FFFFFFE000000000
0007FFFFFFE000000000
000FFFFFFFC000000000
000FFFFFFFC000000000
00000000000000000000
00000000000000000000
00000000000000000000
00000000000000000000
00000000000000000000
00000000000000000000
00000000000000000000
00000000000000000000
00000000000000000000
00000000000000000000
00000000000000000000
00000000000000000000
00000000000000000000
00000000000000000000
00000000000000000000
00000000000000000000
00000000000000000000
00000000000000000000
00000000000000000000
00000000000000000000
ENDCHAR
STARTCHAR U+00DB
ENCODING 219
SWIDTH 1000 0
DWIDTH 45 0
BBX 78 100 -16 -20
BITMAP
000000000000FFC00000
000000000000FFC00000
000000000000FFC00000
000000000001FF800000
000000000001FF800000
000000000001FF800000
000000000003FF000000
000000000003FF000000
000000000003FF000000
000000000007FE000000
0000000000FFFFF00000
0000000000FFFFF00000
0000000001FFFFE00000
0000000001FFFFE00000
0000000001FFFFE00000
0000000003FFFFC00000
0000000003FFFFC00000
0000000003FFFFC00000
0000000007FFFF800000
0000000007FFFF800000
0000001FF80000BFE000
0000003FF00000FFC000
0000003FF00000FFC000
0000003FF00000FFC000
0000007FE00001FF8000
0000007FE00001FF8000
0000007FE00001FF8000
000000FFC00003FF0000
000000FFC00003FF0000
000000FFC00003FF0000
000001FF800007FE0000
000001FF800007FE0000
000001FF800007FE0000
000003FF00000FFC0000
000003FF00000FFC0000
000003FF00000FFC0000
000007FE00001FF80000
000007FE00001FF80000
000007FE00001FF80000
00000FFC00003FF00000
00000FFC00003FF00000
00000FFC00003FF00000
00001FF800007FE00000
00001FF800007FE00000
00001FF800007FE00000
00003FF00000FFC00000
00003FF00000FFC00000
00003FF00000FFC00000
00007FE00001FF800000
00007FE00001FF800000
00007FE00001FF800000
0000FFC00003FF000000
0000FFC00003FF000000
0000FFC00003FF000000
0001FF800007FE000000
0001FF800007FE000000
0001FF800007FE000000
0003FF00000FFC000000
0003FF00000FFC000000
0003FF00000FFC000000
0007FE00001FF8000000
0007FE00001FF8000000
0007FE00001FF8000000
000FFC00003FF0000000
000FFC00003FF0000000
000FFC00003FF0000000
001FF800007FE0000000
001FF800007FE0000000
001FF800007FE0000000
003FF00000FFC0000000
0001FFFFFFF800000000
0001FFFFFFF800000000
0003FFFFFFF000000000
0003FFFFFFF000000000
0003FFFFFFF000000000
0007FFFFFFE000000000
0007FFFFFFE000000000
0007FFFFFFE000000000
000FFFFFFFC000000000
000FFFFFFFC000000000
00000000000000000000
00000000000000000000
00000000000000000000
00000000000000000000
00000000000000000000
00000000000000000000
00000000000000000000
00000000000000000000
00000000000000000000
00000000000000000000
00000000000000000000
00000000000000000000
00000000000000000000
00000000000000000000
00000000000000000000
00000000000000000000
00000000000000000000
00000000000000000000
00000000000000000000
00000000000000000000
ENDCHAR
STARTCHAR U+00DA
ENCODING 218
SWIDTH 1000 0
DWIDTH 45 0
BBX 78 100 -16 -20
BITMAP
00000000000007FFF000
00000000000007FFF000
00000000000007FFF000
0000000000000FFFE000
0000000000000FFFE000
0000000000000FFFE000
0000000000001FFFC000
0000000000001FFFC000
0000000000001FFFC000
0000000000003FFF8000
0000000000FFFE000000
0000000000FFFE000000
0000000001FFFC000000
0000000001FFFC000000
0000000001FFFC000000
0000000003FFF8000000
0000000003FFF8000000
0000000003FFF8000000
0000000007FFF0000000
0000000007FFF0000000
0000001FF800007FE000
0000003FF00000FFC000
0000003FF00000FFC000
0000003FF00000FFC000
0000007FE00001FF8000
0000007FE00001FF8000
0000007FE00001FF8000
000000FFC00003FF0000
000000FFC00003FF0000
000000FFC00003FF0000
000001FF800007FE0000
000001FF800007FE0000
000001FF800007FE0000
000003FF00000FFC0000
000003FF00000FFC0000
000003FF00000FFC0000
000007FE00001FF80000
000007FE00001FF80000
000007FE00001FF80000
00000FFC00003FF00000
00000FFC00003FF00000
00000FFC00003FF00000
00001FF800007FE00000
00001FF800007FE00000
00001FF800007FE00000
00003FF00000FFC00000
00003FF00000FFC00000
00003FF00000FFC00000
00007FE00001FF800000
00007FE00001FF800000
00007FE00001FF800000
0000FFC00003FF000000
0000FFC00003FF000000
0000FFC00003FF000000
0001FF800007FE000000
0001FF800007FE000000
0001FF800007FE000000
0003FF00000FFC000000
0003FF00000FFC000000
0003FF00000FFC000000
0007FE00001FF8000000
0007FE00001FF8000000
0007FE00001FF8000000
000FFC00003FF0000000
000FFC00003FF0000000
000FFC00003FF0000000
001FF800007FE0000000
001FF800007FE0000000
001FF800007FE0000000
003FF00000FFC0000000
0001FFFFFFF800000000
0001FFFFFFF800000000
0003FFFFFFF000000000
0003FFFFFFF000000000
0003FFFFFFF000000000
0007FFFFFFE000000000
0007FFFFFFE000000000
0007FFFFFFE000000000
000FFFFFFFC000000000
000FFFFFFFC000000000
00000000000000000000
00000000000000000000
00000000000000000000
00000000000000000000
00000000000000000000
00000000000000000000
00000000000000000000
00000000000000000000
00000000000000000000
00000000000000000000
00000000000000000000
00000000000000000000
00000000000000000000
00000000000000000000
00000000000000000000
00000000000000000000
00000000000000000000
00000000000000000000
00000000000000000000
00000000000000000000
ENDCHAR
STARTCHAR U+00D9
ENCODING 217
SWIDTH 1000 0
DWIDTH 45 0
BBX 78 100 -16 -20
BITMAP
0000000003FFF8000000
0000000003FFF8000000
0000000003FFF8000000
0000000007FFF0000000
0000000007FFF0000000
0000000007FFF0000000
000000000FFFE0000000
000000000FFFE0000000
000000000FFFE0000000
000000001FFFC0000000
000000000007FFF00000
000000000007FFF00000
00000000000FFFE00000
00000000000FFFE00000
00000000000FFFE00000
00000000001FFFC00000
00000000001FFFC00000
00000000001FFFC00000
00000000003FFF800000
00000000003FFF800000
0000001FF80000BFE000
0000003FF00000FFC000
0000003FF00000FFC000
0000003FF00000FFC000
0000007FE00001FF8000
0000007FE00001FF8000
0000007FE00001FF8000
000000FFC00003FF0000
000000FFC00003FF0000
000000FFC00003FF0000
000001FF800007FE0000
000001FF800007FE0000
000001FF800007FE0000
000003FF00000FFC0000
000003FF00000FFC0000
000003FF00000FFC0000
000007FE00001FF80000
000007FE00001FF80000
000007FE00001FF80000
00000FFC00003FF00000
00000FFC00003FF00000
00000FFC00003FF00000
00001FF800007FE00000
00001FF800007FE00000
00001FF800007FE00000
00003FF00000FFC00000
00003FF00000FFC00000
00003FF00000FFC00000
00007FE00001FF800000
00007FE00001FF800000
00007FE00001FF800000
0000FFC00003FF000000
0000FFC00003FF000000
0000FFC00003FF000000
0001FF800007FE000000
0001FF800007FE000000
0001FF800007FE000000
0003FF00000FFC000000
0003FF00000FFC000000
0003FF00000FFC000000
0007FE00001FF8000000
0007FE00001FF8000000
0007FE00001FF8000000
000FFC00003FF0000000
000FFC00003FF0000000
000FFC00003FF0000000
001FF800007FE0000000
001FF800007FE0000000
001FF800007FE0000000
003FF00000FFC0000000
0001FFFFFFF800000000
0001FFFFFFF800000000
0003FFFFFFF000000000
0003FFFFFFF000000000
0003FFFFFFF000000000
0007FFFFFFE000000000
0007FFFFFFE000000000
0007FFFFFFE000000000
000FFFFFFFC000000000
000FFFFFFFC000000000
00000000000000000000
00000000000000000000
00000000000000000000
00000000000000000000
00000000000000000000
00000000000000000000
00000000000000000000
00000000000000000000
00000000000000000000
00000000000000000000
00000000000000000000
00000000000000000000
00000000000000000000
00000000000000000000
00000000000000000000
00000000000000000000
00000000000000000000
00000000000000000000
00000000000000000000
00000000000000000000
ENDCHAR
STARTCHAR U+00D8
ENCODING 216
SWIDTH 1000 0
DWIDTH 45 0
BBX 78 100 -16 -20
BITMAP
0000000000000001FF80
0000000000000001FF80
0000000000000001FF80
0000000000000003FF00
0000000000000003FF00
0000000000000003FF00
0000000000000007FE00
0000000000000007FE00
0000000000000007FE00
000000000000000FFC00
000000001FFFFFFF8000
000000001FFFFFFF8000
000000003FFFFFFF0000
000000003FFFFFFF0000
000000003FFFFFFF0000
000000007FFFFFFE0000
000000007FFFFFFE0000
000000007FFFFFFE0000
00000000FFFFFFFC0000
00000000FFFFFFFC0000
0000001FF8000FFFE000
0000003FF0001FFFC000
0000003FF0001FFFC000
0000003FF0001FFFC000
0000007FE0003FFF8000
0000007FE0003FFF8000
0000007FE0003FFF8000
000000FFC0007FFF0000
000000FFC0007FFF0000
000000FFC0007FFF0000
000001FF801FFFFE0000
000001FF801FFFFE0000
000001FF801FFFFE0000
000003FF003FFFFC0000
000003FF003FFFFC0000
000003FF003FFFFC0000
000007FE007FFFF80000
000007FE007FFFF80000
000007FE007FFFF80000
00000FFC00FFFFF00000
00000FFC1FF83FF00000
00000FFC1FF83FF00000
00001FF83FF07FE00000
00001FF83FF07FE00000
00001FF83FF07FE00000
00003FF07FE0FFC00000
00003FF07FE0FFC00000
00003FF07FE0FFC00000
00007FE0FFC1FF800000
00007FE0FFC1FF800000
00007FFFF801FF800000
0000FFFFF003FF000000
0000FFFFF003FF000000
0000FFFFF003FF000000
0001FFFFE007FE000000
0001FFFFE007FE000000
0001FFFFE007FE000000
0003FFFFC00FFC000000
0003FFFFC00FFC000000
0003FFFFC00FFC000000
0007FFF0001FF8000000
0007FFF0001FF8000000
0007FFF0001FF8000000
000FFFE0003FF0000000
000FFFE0003FF0000000
000FFFE0003FF0000000
001FFFC0007FE0000000
001FFFC0007FE0000000
001FFFC0007FE0000000
003FFF8000FFC0000000
0001FFFFFFF800000000
0001FFFFFFF800000000
0003FFFFFFF000000000
0003FFFFFFF000000000
0003FFFFFFF000000000
0007FFFFFFE000000000
0007FFFFFFE000000000
0007FFFFFFE000000000
000FFFFFFFC000000000
000FFFFFFFC000000000
01FF8000000000000000
03FF0000000000000000
03FF0000000000000000
03FF0000000000000000
07FE0000000000000000
07FE0000000000000000
07FE0000000000000000
0FFC0000000000000000
0FFC0000000000000000
0FFC0000000000000000
00000000000000000000
00000000000000000000
00000000000000000000
00000000000000000000
00000000000000000000
00000000000000000000
00000000000000000000
00000000000000000000
00000000000000000000
00000000000000000000
ENDCHAR
STARTCHAR U+0152
ENCODING 338
SWIDTH 1000 0
DWIDTH 45 0
BBX 78 100 -16 -20
BITMAP
00000000000000000000
00000000000000000000
00000000000000000000
00000000000000000000
00000000000000000000
00000000000000000000
00000000000000000000
00000000000000000000
00000000000000000000
00000000000000000000
000000001FFFFFFFFC00
000000001FFFFFFFFC00
000000003FFFFFFFF800
000000003FFFFFFFF800
000000003FFFFFFFF800
000000007FFFFFFFF000
000000007FFFFFFFF000
000000007FFFFFFFF000
00000000FFFFFFFFE000
00000000FFFFFFFFE000
0000001FF83FF0000000
0000003FF07FE0000000
0000003FF07FE0000000
0000003FF07FE0000000
0000007FE0FFC0000000
0000007FE0FFC0000000
0000007FE0FFC0000000
000000FFC1FF80000000
000000FFC1FF80000000
000000FFC1FF80000000
000001FF83FF00000000
000001FF83FF00000000
000001FF83FF00000000
000003FF07FE00000000
000003FF07FE00000000
000003FF07FE00000000
000007FE0FFC00000000
000007FE0FFC00000000
000007FE0FFC00000000
00000FFC1FF800000000
00000FFC1FFFFE000000
00000FFC1FFFFE000000
00001FF83FFFFC000000
00001FF83FFFFC000000
00001FF83FFFFC000000
00003FF07FFFF8000000
00003FF07FFFF8000000
00003FF07FFFF8000000
00007FE0FFFFF0000000
00007FE0FFFFF0000000
00007FE0FFC000000000
0000FFC1FF8000000000
0000FFC1FF8000000000
0000FFC1FF8000000000
0001FF83FF0000000000
0001FF83FF0000000000
0001FF83FF0000000000
0003FF07FE0000000000
0003FF07FE0000000000
0003FF07FE0000000000
0007FE0FFC0000000000
0007FE0FFC0000000000
0007FE0FFC0000000000
000FFC1FF80000000000
000FFC1FF80000000000
000FFC1FF80000000000
001FF83FF00000000000
001FF83FF00000000000
001FF83FF00000000000
003FF07FE00000000000
0001FFFFFFFFC0000000
0001FFFFFFFFC0000000
0003FFFFFFFF80000000
0003FFFFFFFF80000000
0003FFFFFFFF80000000
0007FFFFFFFF00000000
0007FFFFFFFF00000000
0007FFFFFFFF00000000
000FFFFFFFFE00000000
000FFFFFFFFE00000000
00000000000000000000
00000000000000000000
00000000000000000000
00000000000000000000
00000000000000000000
00000000000000000000
00000000000000000000
00000000000000000000
00000000000000000000
00000000000000000000
00000000000000000000
00000000000000000000
00000000000000000000
00000000000000000000
00000000000000000000
00000000000000000000
00000000000000000000
00000000000000000000
00000000000000000000
00000000000000000000
ENDCHAR
STARTCHAR U+00D6
ENCODING 214
SWIDTH 1000 0
DWIDTH 45 0
BBX 78 100 -16 -20
BITMAP
0000000003FF003FF000
0000000003FF003FF000
0000000003FF003FF000
0000000007FE007FE000
0000000007FE007FE000
0000000007FE007FE000
000000000FFC00FFC000
000000000FFC00FFC000
000000000FFC00FFC000
000000001FF801FF8000
00000000000000000000
00000000000000000000
00000000000000000000
00000000000000000000
00000000000000000000
00000000000000000000
00000000000000000000
00000000000000000000
00000000000000000000
00000000000000000000
00000000FFFFFFFC0000
00000001FFFFFFF80000
00000001FFFFFFF80000
00000001FFFFFFF80000
00000003FFFFFFF00000
00000003FFFFFFF00000
00000003FFFFFFF00000
00000007FFFFFFE00000
00000007FFFFFFE00000
00000007FFFFFFE00000
000001FF800007FE0000
000001FF800007FE0000
000001FF800007FE0000
000003FF00000FFC0000
000003FF00000FFC0000
000003FF00000FFC0000
000007FE00001FF80000
000007FE00001FF80000
000007FE00001FF80000
00000FFC00003FF00000
00000FFC00003FF00000
00000FFC00003FF00000
00001FF800007FE00000
00001FF800007FE00000
00001FF800007FE00000
00003FF00000FFC00000
00003FF00000FFC00000
00003FF00000FFC00000
00007FE00001FF800000
00007FE00001FF800000
00007FE00001FF800000
0000FFC00003FF000000
0000FFC00003FF000000
0000FFC00003FF000000
0001FF800007FE000000
0001FF800007FE000000
0001FF800007FE000000
0003FF00000FFC000000
0003FF00000FFC000000
0003FF00000FFC000000
0007FE00001FF8000000
0007FE00001FF8000000
0007FE00001FF8000000
000FFC00003FF0000000
000FFC00003FF0000000
000FFC00003FF0000000
001FF800007FE0000000
001FF800007FE0000000
001FF800007FE0000000
003FF00000FFC0000000
0001FFFFFFF800000000
0001FFFFFFF800000000
0003FFFFFFF000000000
0003FFFFFFF000000000
0003FFFFFFF000000000
0007FFFFFFE000000000
0007FFFFFFE000000000
0007FFFFFFE000000000
000FFFFFFFC000000000
000FFFFFFFC000000000
00000000000000000000
00000000000000000000
00000000000000000000
00000000000000000000
00000000000000000000
00000000000000000000
00000000000000000000
00000000000000000000
00000000000000000000
00000000000000000000
00000000000000000000
00000000000000000000
00000000000000000000
00000000000000000000
00000000000000000000
00000000000000000000
00000000000000000000
00000000000000000000
00000000000000000000
00000000000000000000
ENDCHAR
STARTCHAR U+00D5
ENCODING 213
SWIDTH 1000 0
DWIDTH 45 0
BBX 78 100 -16 -20
BITMAP
0000000003FFF83FF000
0000000003FFF83FF000
0000000003FFF83FF000
0000000007FFF07FE000
0000000007FFF07FE000
0000000007FFF07FE000
000000000FFFE0FFC000
000000000FFFE0FFC000
000000000FFFE0FFC000
000000001FFFC1FF8000
00000003FF07FFF00000
00000003FF07FFF00000
00000007FE0FFFE00000
00000007FE0FFFE00000
00000007FE0FFFE00000
0000000FFC1FFFC00000
0000000FFC1FFFC00000
0000000FFC1FFFC00000
0000001FF83FFF800000
0000001FF83FFF800000
00000000FFFFFFFC0000
00000001FFFFFFF80000
00000001FFFFFFF80000
00000001FFFFFFF80000
00000003FFFFFFF00000
00000003FFFFFFF00000
00000003FFFFFFF00000
00000007FFFFFFE00000
00000007FFFFFFE00000
00000007FFFFFFE00000
000001FF800007FE0000
000001FF800007FE0000
000001FF800007FE0000
000003FF00000FFC0000
000003FF00000FFC0000
000003FF00000FFC0000
000007FE00001FF80000
000007FE00001FF80000
000007FE00001FF80000
00000FFC00003FF00000
00000FFC00003FF00000
00000FFC00003FF00000
00001FF800007FE00000
00001FF800007FE00000
00001FF800007FE00000
00003FF00000FFC00000
00003FF00000FFC00000
00003FF00000FFC00000
00007FE00001FF800000
00007FE00001FF800000
00007FE00001FF800000
0000FFC00003FF000000
0000FFC00003FF000000
0000FFC00003FF000000
0001FF800007FE000000
0001FF800007FE000000
0001FF800007FE000000
0003FF00000FFC000000
0003FF00000FFC000000
0003FF00000FFC000000
0007FE00001FF8000000
0007FE00001FF8000000
0007FE00001FF8000000
000FFC00003FF0000000
000FFC00003FF0000000
000FFC00003FF0000000
001FF800007FE0000000
001FF800007FE0000000
001FF800007FE0000000
003FF00000FFC0000000
0001FFFFFFF800000000
0001FFFFFFF800000000
0003FFFFFFF000000000
0003FFFFFFF000000000
0003FFFFFFF000000000
0007FFFFFFE000000000
0007FFFFFFE000000000
0007FFFFFFE000000000
000FFFFFFFC000000000
000FFFFFFFC000000000
00000000000000000000
00000000000000000000
00000000000000000000
00000000000000000000
00000000000000000000
00000000000000000000
00000000000000000000
00000000000000000000
00000000000000000000
00000000000000000000
00000000000000000000
00000000000000000000
00000000000000000000
00000000000000000000
00000000000000000000
00000000000000000000
00000000000000000000
00000000000000000000
00000000000000000000
00000000000000000000
ENDCHAR
STARTCHAR U+00D4
ENCODING 212
SWIDTH 1000 0
DWIDTH 45 0
BBX 78 100 -16 -20
BITMAP
00000000001FFFFE0000
00000000001FFFFE0000
00000000001FFFFE0000
00000000003FFFFC0000
00000000003FFFFC0000
00000000003FFFFC0000
00000000007FFFF80000
00000000007FFFF80000
00000000007FFFF80000
0000000000FFFFF00000
000000001FF801FF8000
000000001FF801FF8000
000000003FF003FF0000
000000003FF003FF0000
000000003FF003FF0000
000000007FE007FE0000
000000007FE007FE0000
000000007FE007FE0000
00000000FFC00FFC0000
00000000FFC00FFC0000
00000000FFFFFFFC0000
00000001FFFFFFF80000
00000001FFFFFFF80000
00000001FFFFFFF80000
00000003FFFFFFF00000
00000003FFFFFFF00000
00000003FFFFFFF00000
00000007FFFFFFE00000
00000007FFFFFFE00000
00000007FFFFFFE00000
000001FF800007FE0000
000001FF800007FE0000
000001FF800007FE0000
000003FF00000FFC0000
000003FF00000FFC0000
000003FF00000FFC0000
000007FE00001FF80000
000007FE00001FF80000
000007FE00001FF80000
00000FFC00003FF00000
00000FFC00003FF00000
00000FFC00003FF00000
00001FF800007FE00000
00001FF800007FE00000
00001FF800007FE00000
00003FF00000FFC00000
00003FF00000FFC00000
00003FF00000FFC00000
00007FE00001FF800000
00007FE00001FF800000
00007FE00001FF800000
0000FFC00003FF000000
0000FFC00003FF000000
0000FFC00003FF000000
0001FF800007FE000000
0001FF800007FE000000
0001FF800007FE000000
0003FF00000FFC000000
0003FF00000FFC000000
0003FF00000FFC000000
0007FE00001FF8000000
0007FE00001FF8000000
0007FE00001FF8000000
000FFC00003FF0000000
000FFC00003FF0000000
000FFC00003FF0000000
001FF800007FE0000000
001FF800007FE0000000
001FF800007FE0000000
003FF00000FFC0000000
0001FFFFFFF800000000
0001FFFFFFF800000000
0003FFFFFFF000000000
0003FFFFFFF000000000
0003FFFFFFF000000000
0007FFFFFFE000000000
0007FFFFFFE000000000
0007FFFFFFE000000000
000FFFFFFFC000000000
000FFFFFFFC000000000
00000000000000000000
00000000000000000000
00000000000000000000
00000000000000000000
00000000000000000000
00000000000000000000
00000000000000000000
00000000000000000000
00000000000000000000
00000000000000000000
00000000000000000000
00000000000000000000
00000000000000000000
00000000000000000000
00000000000000000000
00000000000000000000
00000000000000000000
00000000000000000000
00000000000000000000
00000000000000000000
ENDCHAR
STARTCHAR U+00D3
ENCODING 211
SWIDTH 1000 0
DWIDTH 45 0
BBX 78 100 -16 -20
BITMAP
000000000000FFFE0000
000000000000FFFE0000
000000000000FFFE0000
000000000001FFFC0000
000000000001FFFC0000
000000000001FFFC0000
000000000003FFF80000
000000000003FFF80000
000000000003FFF80000
000000000007FFF00000
000000001FFFC0000000
000000001FFFC0000000
000000003FFF80000000
000000003FFF80000000
000000003FFF80000000
000000007FFF00000000
000000007FFF00000000
000000007FFF00000000
00000000FFFE00000000
00000000FFFE00000000
00000000FFFFFFFC0000
00000001FFFFFFF80000
00000001FFFFFFF80000
00000001FFFFFFF80000
00000003FFFFFFF00000
00000003FFFFFFF00000
00000003FFFFFFF00000
00000007FFFFFFE00000
00000007FFFFFFE00000
00000007FFFFFFE00000
000001FF800007FE0000
000001FF800007FE0000
000001FF800007FE0000
000003FF00000FFC0000
000003FF00000FFC0000
000003FF00000FFC0000
000007FE00001FF80000
000007FE00001FF80000
000007FE00001FF80000
00000FFC00003FF00000
00000FFC00003FF00000
00000FFC00003FF00000
00001FF800007FE00000
00001FF800007FE00000
00001FF800007FE00000
00003FF00000FFC00000
00003FF00000FFC00000
00003FF00000FFC00000
00007FE00001FF800000
00007FE00001FF800000
00007FE00001FF800000
0000FFC00003FF000000
0000FFC00003FF000000
0000FFC00003FF000000
0001FF800007FE000000
0001FF800007FE000000
0001FF800007FE000000
0003FF00000FFC000000
0003FF00000FFC000000
0003FF00000FFC000000
0007FE00001FF8000000
0007FE00001FF8000000
0007FE00001FF8000000
000FFC00003FF0000000
000FFC00003FF0000000
000FFC00003FF0000000
001FF800007FE0000000
001FF800007FE0000000
001FF800007FE0000000
003FF00000FFC0000000
0001FFFFFFF800000000
0001FFFFFFF800000000
0003FFFFFFF000000000
0003FFFFFFF000000000
0003FFFFFFF000000000
0007FFFFFFE000000000
0007FFFFFFE000000000
0007FFFFFFE000000000
000FFFFFFFC000000000
000FFFFFFFC000000000
00000000000000000000
00000000000000000000
00000000000000000000
00000000000000000000
00000000000000000000
00000000000000000000
00000000000000000000
00000000000000000000
00000000000000000000
00000000000000000000
00000000000000000000
00000000000000000000
00000000000000000000
00000000000000000000
00000000000000000000
00000000000000000000
00000000000000000000
00000000000000000000
00000000000000000000
00000000000000000000
ENDCHAR
STARTCHAR U+00D2
ENCODING 210
SWIDTH 1000 0
DWIDTH 45 0
BBX 78 100 -16 -20
BITMAP
00000000001FFFC00000
00000000001FFFC00000
00000000001FFFC00000
00000000003FFF800000
00000000003FFF800000
00000000003FFF800000
00000000007FFF000000
00000000007FFF000000
00000000007FFF000000
0000000000FFFE000000
0000000000003FFF8000
0000000000003FFF8000
0000000000007FFF0000
0000000000007FFF0000
0000000000007FFF0000
000000000000FFFE0000
000000000000FFFE0000
000000000000FFFE0000
000000000001FFFC0000
000000000001FFFC0000
00000000FFFFFFFC0000
00000001FFFFFFF80000
00000001FFFFFFF80000
00000001FFFFFFF80000
00000003FFFFFFF00000
00000003FFFFFFF00000
00000003FFFFFFF00000
00000007FFFFFFE00000
00000007FFFFFFE00000
00000007FFFFFFE00000
000001FF800007FE0000
000001FF800007FE0000
000001FF800007FE0000
000003FF00000FFC0000
000003FF00000FFC0000
000003FF00000FFC0000
000007FE00001FF80000
000007FE00001FF80000
000007FE00001FF80000
00000FFC00003FF00000
00000FFC00003FF00000
00000FFC00003FF00000
00001FF800007FE00000
00001FF800007FE00000
00001FF800007FE00000
00003FF00000FFC00000
00003FF00000FFC00000
00003FF00000FFC00000
00007FE00001FF800000
00007FE00001FF800000
00007FE00001FF800000
0000FFC00003FF000000
0000FFC00003FF000000
0000FFC00003FF000000
0001FF800007FE000000
0001FF800007FE000000
0001FF800007FE000000
0003FF00000FFC000000
0003FF00000FFC000000
0003FF00000FFC000000
0007FE00001FF8000000
0007FE00001FF8000000
0007FE00001FF8000000
000FFC00003FF0000000
000FFC00003FF0000000
000FFC00003FF0000000
001FF800007FE0000000
001FF800007FE0000000
001FF800007FE0000000
003FF00000FFC0000000
0001FFFFFFF800000000
0001FFFFFFF800000000
0003FFFFFFF000000000
0003FFFFFFF000000000
0003FFFFFFF000000000
0007FFFFFFE000000000
0007FFFFFFE000000000
0007FFFFFFE000000000
000FFFFFFFC000000000
000FFFFFFFC000000000
00000000000000000000
00000000000000000000
00000000000000000000
00000000000000000000
00000000000000000000
00000000000000000000
00000000000000000000
00000000000000000000
00000000000000000000
00000000000000000000
00000000000000000000
00000000000000000000
00000000000000000000
00000000000000000000
00000000000000000000
00000000000000000000
00000000000000000000
00000000000000000000
00000000000000000000
00000000000000000000
ENDCHAR
STARTCHAR U+00D1
ENCODING 209
SWIDTH 1000 0
DWIDTH 45 0
BBX 78 100 -16 -20
BITMAP
00000000001FFFC1FF80
00000000001FFFC1FF80
00000000001FFFC1FF80
00000000003FFF83FF00
00000000003FFF83FF00
00000000003FFF83FF00
00000000007FFF07FE00
00000000007FFF07FE00
00000000007FFF07FE00
0000000000FFFE0FFC00
000000001FF83FFF8000
000000001FF83FFF8000
000000003FF07FFF0000
000000003FF07FFF0000
000000003FF07FFF0000
000000007FE0FFFE0000
000000007FE0FFFE0000
000000007FE0FFFE0000
00000000FFC1FFFC0000
00000000FFC1FFFC0000
0000001FFFC0007FE000
0000003FFF8000FFC000
0000003FFF8000FFC000
0000003FFF8000FFC000
0000007FFF0001FF8000
0000007FFF0001FF8000
0000007FFF0001FF8000
000000FFFE0003FF0000
000000FFFE0003FF0000
000000FFFE0003FF0000
000001FFFFE007FE0000
000001FFFFE007FE0000
000001FFFFE007FE0000
000003FFFFC00FFC0000
000003FFFFC00FFC0000
000003FFFFC00FFC0000
000007FFFF801FF80000
000007FFFF801FF80000
000007FFFF801FF80000
00000FFFFF003FF00000
00000FFC1FF83FF00000
00000FFC1FF83FF00000
00001FF83FF07FE00000
00001FF83FF07FE00000
00001FF83FF07FE00000
00003FF07FE0FFC00000
00003FF07FE0FFC00000
00003FF07FE0FFC00000
00007FE0FFC1FF800000
00007FE0FFC1FF800000
00007FE007FFFF800000
0000FFC00FFFFF000000
0000FFC00FFFFF000000
0000FFC00FFFFF000000
0001FF801FFFFE000000
0001FF801FFFFE000000
0001FF801FFFFE000000
0003FF003FFFFC000000
0003FF003FFFFC000000
0003FF003FFFFC000000
0007FE0003FFF8000000
0007FE0003FFF8000000
0007FE0003FFF8000000
000FFC0007FFF0000000
000FFC0007FFF0000000
000FFC0007FFF0000000
001FF8000FFFE0000000
001FF8000FFFE0000000
001FF8000FFFE0000000
003FF0001FFFC0000000
003FF00000FFC0000000
003FF00000FFC0000000
007FE00001FF80000000
007FE00001FF80000000
007FE00001FF80000000
00FFC00003FF00000000
00FFC00003FF00000000
00FFC00003FF00000000
01FF800007FE00000000
01FF800007FE00000000
00000000000000000000
00000000000000000000
00000000000000000000
00000000000000000000
00000000000000000000
00000000000000000000
00000000000000000000
00000000000000000000
00000000000000000000
00000000000000000000
00000000000000000000
00000000000000000000
00000000000000000000
00000000000000000000
00000000000000000000
00000000000000000000
00000000000000000000
00000000000000000000
00000000000000000000
00000000000000000000
ENDCHAR
STARTCHAR U+00D0
ENCODING 208
SWIDTH 1000 0
DWIDTH 45 0
BBX 78 100 -16 -20
BITMAP
00000000000000000000
00000000000000000000
00000000000000000000
00000000000000000000
00000000000000000000
00000000000000000000
00000000000000000000
00000000000000000000
00000000000000000000
00000000000000000000
00000003FFFFFFF00000
00000003FFFFFFF00000
00000007FFFFFFE00000
00000007FFFFFFE00000
00000007FFFFFFE00000
0000000FFFFFFFC00000
0000000FFFFFFFC00000
0000000FFFFFFFC00000
0000001FFFFFFF800000
0000001FFFFFFF800000
00000000FFC00FFC0000
00000001FF801FF80000
00000001FF801FF80000
00000001FF801FF80000
00000003FF003FF00000
00000003FF003FF00000
00000003FF003FF00000
00000007FE007FE00000
00000007FE007FE00000
00000007FE007FE00000
0000000FFC0007FE0000
0000000FFC0007FE0000
0000000FFC0007FE0000
0000001FF8000FFC0000
0000001FF8000FFC0000
0000001FF8000FFC0000
0000003FF0001FF80000
0000003FF0001FF80000
0000003FF0001FF80000
0000007FE0003FF00000
00000FFFFFF83FF00000
00000FFFFFF83FF00000
00001FFFFFF07FE00000
00001FFFFFF07FE00000
00001FFFFFF07FE00000
00003FFFFFE0FFC00000
00003FFFFFE0FFC00000
00003FFFFFE0FFC00000
00007FFFFFC1FF800000
00007FFFFFC1FF800000
000003FF0001FF800000
000007FE0003FF000000
000007FE0003FF000000
000007FE0003FF000000
00000FFC0007FE000000
00000FFC0007FE000000
00000FFC0007FE000000
00001FF8000FFC000000
00001FF8000FFC000000
00001FF8000FFC000000
00003FF003FF00000000
00003FF003FF00000000
00003FF003FF00000000
00007FE007FE00000000
00007FE007FE00000000
00007FE007FE00000000
0000FFC00FFC00000000
0000FFC00FFC00000000
0000FFC00FFC00000000
0001FF801FF800000000
003FFFFFFF0000000000
003FFFFFFF0000000000
007FFFFFFE0000000000
007FFFFFFE0000000000
007FFFFFFE0000000000
00FFFFFFFC0000000000
00FFFFFFFC0000000000
00FFFFFFFC0000000000
01FFFFFFF80000000000
01FFFFFFF80000000000
00000000000000000000
00000000000000000000
00000000000000000000
00000000000000000000
00000000000000000000
00000000000000000000
00000000000000000000
00000000000000000000
00000000000000000000
00000000000000000000
00000000000000000000
00000000000000000000
00000000000000000000
00000000000000000000
00000000000000000000
00000000000000000000
00000000000000000000
00000000000000000000
00000000000000000000
00000000000000000000
ENDCHAR
STARTCHAR U+00CF
ENCODING 207
SWIDTH 1000 0
DWIDTH 45 0
BBX 78 100 -16 -20
BITMAP
0000000003FF003FF000
0000000003FF003FF000
0000000003FF003FF000
0000000007FE007FE000
0000000007FE007FE000
0000000007FE007FE000
000000000FFC00FFC000
000000000FFC00FFC000
000000000FFC00FFC000
000000001FF801FF8000
00000000000000000000
00000000000000000000
00000000000000000000
00000000000000000000
00000000000000000000
00000000000000000000
00000000000000000000
00000000000000000000
00000000000000000000
00000000000000000000
00000000FFFFFFFC0000
00000001FFFFFFF80000
00000001FFFFFFF80000
00000001FFFFFFF80000
00000003FFFFFFF00000
00000003FFFFFFF00000
00000003FFFFFFF00000
00000007FFFFFFE00000
00000007FFFFFFE00000
00000007FFFFFFE00000
0000000003FF00000000
0000000003FF00000000
0000000003FF00000000
0000000007FE00000000
0000000007FE00000000
0000000007FE00000000
000000000FFC00000000
000000000FFC00000000
000000000FFC00000000
000000001FF800000000
000000001FF800000000
000000001FF800000000
000000003FF000000000
000000003FF000000000
000000003FF000000000
000000007FE000000000
000000007FE000000000
000000007FE000000000
00000000FFC000000000
00000000FFC000000000
00000000FFC000000000
00000001FF8000000000
00000001FF8000000000
00000001FF8000000000
00000003FF0000000000
00000003FF0000000000
00000003FF0000000000
00000007FE0000000000
00000007FE0000000000
00000007FE0000000000
0000000FFC0000000000
0000000FFC0000000000
0000000FFC0000000000
0000001FF80000000000
0000001FF80000000000
0000001FF80000000000
0000003FF00000000000
0000003FF00000000000
0000003FF00000000000
0000007FE00000000000
0001FFFFFFF800000000
0001FFFFFFF800000000
0003FFFFFFF000000000
0003FFFFFFF000000000
0003FFFFFFF000000000
0007FFFFFFE000000000
0007FFFFFFE000000000
0007FFFFFFE000000000
000FFFFFFFC000000000
000FFFFFFFC000000000
00000000000000000000
00000000000000000000
00000000000000000000
00000000000000000000
00000000000000000000
00000000000000000000
00000000000000000000
00000000000000000000
00000000000000000000
00000000000000000000
00000000000000000000
00000000000000000000
00000000000000000000
00000000000000000000
00000000000000000000
00000000000000000000
00000000000000000000
00000000000000000000
00000000000000000000
00000000000000000000
ENDCHAR
STARTCHAR U+00CE
ENCODING 206
SWIDTH 1000 0
DWIDTH 45 0
BBX 78 100 -16 -20
BITMAP
00000000001FFFFE0000
00000000001FFFFE0000
00000000001FFFFE0000
00000000003FFFFC0000
00000000003FFFFC0000
00000000003FFFFC0000
00000000007FFFF80000
00000000007FFFF80000
00000000007FFFF80000
0000000000FFFFF00000
000000001FF801FF8000
000000001FF801FF8000
000000003FF003FF0000
000000003FF003FF0000
000000003FF003FF0000
000000007FE007FE0000
000000007FE007FE0000
000000007FE007FE0000
00000000FFC00FFC0000
00000000FFC00FFC0000
00000000FFFFFFFC0000
00000001FFFFFFF80000
00000001FFFFFFF80000
00000001FFFFFFF80000
00000003FFFFFFF00000
00000003FFFFFFF00000
00000003FFFFFFF00000
00000007FFFFFFE00000
00000007FFFFFFE00000
00000007FFFFFFE00000
0000000003FF00000000
0000000003FF00000000
0000000003FF00000000
0000000007FE00000000
0000000007FE00000000
0000000007FE00000000
000000000FFC00000000
000000000FFC00000000
000000000FFC00000000
000000001FF800000000
000000001FF800000000
000000001FF800000000
000000003FF000000000
000000003FF000000000
000000003FF000000000
000000007FE000000000
000000007FE000000000
000000007FE000000000
00000000FFC000000000
00000000FFC000000000
00000000FFC000000000
00000001FF8000000000
00000001FF8000000000
00000001FF8000000000
00000003FF0000000000
00000003FF0000000000
00000003FF0000000000
00000007FE0000000000
00000007FE0000000000
00000007FE0000000000
0000000FFC0000000000
0000000FFC0000000000
0000000FFC0000000000
0000001FF80000000000
0000001FF80000000000
0000001FF80000000000
0000003FF00000000000
0000003FF00000000000
0000003FF00000000000
0000007FE00000000000
0001FFFFFFF800000000
0001FFFFFFF800000000
0003FFFFFFF000000000
0003FFFFFFF000000000
0003FFFFFFF000000000
0007FFFFFFE000000000
0007FFFFFFE000000000
0007FFFFFFE000000000
000FFFFFFFC000000000
000FFFFFFFC000000000
00000000000000000000
00000000000000000000
00000000000000000000
00000000000000000000
00000000000000000000
00000000000000000000
00000000000000000000
00000000000000000000
00000000000000000000
00000000000000000000
00000000000000000000
00000000000000000000
00000000000000000000
00000000000000000000
00000000000000000000
00000000000000000000
00000000000000000000
00000000000000000000
00000000000000000000
00000000000000000000
ENDCHAR
STARTCHAR U+00CD
ENCODING 205
SWIDTH 1000 0
DWIDTH 45 0
BBX 78 100 -16 -20
BITMAP
000000000000FFFE0000
000000000000FFFE0000
000000000000FFFE0000
000000000001FFFC0000
000000000001FFFC0000
000000000001FFFC0000
000000000003FFF80000
000000000003FFF80000
000000000003FFF80000
000000000007FFF00000
000000001FFFC0000000
000000001FFFC0000000
000000003FFF80000000
000000003FFF80000000
000000003FFF80000000
000000007FFF00000000
000000007FFF00000000
000000007FFF00000000
00000000FFFE00000000
00000000FFFE00000000
00000000FFFFFFFC0000
00000001FFFFFFF80000
00000001FFFFFFF80000
00000001FFFFFFF80000
00000003FFFFFFF00000
00000003FFFFFFF00000
00000003FFFFFFF00000
00000007FFFFFFE00000
00000007FFFFFFE00000
00000007FFFFFFE00000
0000000003FF00000000
0000000003FF00000000
0000000003FF00000000
0000000007FE00000000
0000000007FE00000000
0000000007FE00000000
000000000FFC00000000
000000000FFC00000000
000000000FFC00000000
000000001FF800000000
000000001FF800000000
000000001FF800000000
000000003FF000000000
000000003FF000000000
000000003FF000000000
000000007FE000000000
000000007FE000000000
000000007FE000000000
00000000FFC000000000
00000000FFC000000000
00000000FFC000000000
00000001FF8000000000
00000001FF8000000000
00000001FF8000000000
00000003FF0000000000
00000003FF0000000000
00000003FF0000000000
00000007FE0000000000
00000007FE0000000000
00000007FE0000000000
0000000FFC0000000000
0000000FFC0000000000
0000000FFC0000000000
0000001FF80000000000
0000001FF80000000000
0000001FF80000000000
0000003FF00000000000
0000003FF00000000000
0000003FF00000000000
0000007FE00000000000
0001FFFFFFF800000000
0001FFFFFFF800000000
0003FFFFFFF000000000
0003FFFFFFF000000000
0003FFFFFFF000000000
0007FFFFFFE000000000
0007FFFFFFE000000000
0007FFFFFFE000000000
000FFFFFFFC000000000
000FFFFFFFC000000000
00000000000000000000
00000000000000000000
00000000000000000000
00000000000000000000
00000000000000000000
00000000000000000000
00000000000000000000
00000000000000000000
00000000000000000000
00000000000000000000
00000000000000000000
00000000000000000000
00000000000000000000
00000000000000000000
00000000000000000000
00000000000000000000
00000000000000000000
00000000000000000000
00000000000000000000
00000000000000000000
ENDCHAR
STARTCHAR U+00CC
ENCODING 204
SWIDTH 1000 0
DWIDTH 45 0
BBX 78 100 -16 -20
BITMAP
00000000001FFFC00000
00000000001FFFC00000
00000000001FFFC00000
00000000003FFF800000
00000000003FFF800000
00000000003FFF800000
00000000007FFF000000
00000000007FFF000000
00000000007FFF000000
0000000000FFFE000000
0000000000003FFF8000
0000000000003FFF8000
0000000000007FFF0000
0000000000007FFF0000
0000000000007FFF0000
000000000000FFFE0000
000000000000FFFE0000
000000000000FFFE0000
000000000001FFFC0000
000000000001FFFC0000
00000000FFFFFFFC0000
00000001FFFFFFF80000
00000001FFFFFFF80000
00000001FFFFFFF80000
00000003FFFFFFF00000
00000003FFFFFFF00000
00000003FFFFFFF00000
00000007FFFFFFE00000
00000007FFFFFFE00000
00000007FFFFFFE00000
0000000003FF00000000
0000000003FF00000000
0000000003FF00000000
0000000007FE00000000
0000000007FE00000000
0000000007FE00000000
000000000FFC00000000
000000000FFC00000000
000000000FFC00000000
000000001FF800000000
000000001FF800000000
000000001FF800000000
000000003FF000000000
000000003FF000000000
000000003FF000000000
000000007FE000000000
000000007FE000000000
000000007FE000000000
00000000FFC000000000
00000000FFC000000000
00000000FFC000000000
00000001FF8000000000
00000001FF8000000000
00000001FF8000000000
00000003FF0000000000
00000003FF0000000000
00000003FF0000000000
00000007FE0000000000
00000007FE0000000000
00000007FE0000000000
0000000FFC0000000000
0000000FFC0000000000
0000000FFC0000000000
0000001FF80000000000
0000001FF80000000000
0000001FF80000000000
0000003FF00000000000
0000003FF00000000000
0000003FF00000000000
0000007FE00000000000
0001FFFFFFF800000000
0001FFFFFFF800000000
0003FFFFFFF000000000
0003FFFFFFF000000000
0003FFFFFFF000000000
0007FFFFFFE000000000
0007FFFFFFE000000000
0007FFFFFFE000000000
000FFFFFFFC000000000
000FFFFFFFC000000000
00000000000000000000
00000000000000000000
00000000000000000000
00000000000000000000
00000000000000000000
00000000000000000000
00000000000000000000
00000000000000000000
00000000000000000000
00000000000000000000
00000000000000000000
00000000000000000000
00000000000000000000
00000000000000000000
00000000000000000000
00000000000000000000
00000000000000000000
00000000000000000000
00000000000000000000
00000000000000000000
ENDCHAR
STARTCHAR U+00CB
ENCODING 203
SWIDTH 1000 0
DWIDTH 45 0
BBX 78 100 -16 -20
BITMAP
0000000003FF003FF000
0000000003FF003FF000
0000000003FF003FF000
0000000007FE007FE000
0000000007FE007FE000
0000000007FE007FE000
000000000FFC00FFC000
000000000FFC00FFC000
000000000FFC00FFC000
000000001FF801FF8000
00000000000000000000
00000000000000000000
00000000000000000000
00000000000000000000
00000000000000000000
00000000000000000000
00000000000000000000
00000000000000000000
00000000000000000000
00000000000000000000
0000001FFFFFFFFFE000
0000003FFFFFFFFFC000
0000003FFFFFFFFFC000
0000003FFFFFFFFFC000
0000007FFFFFFFFF8000
0000007FFFFFFFFF8000
0000007FFFFFFFFF8000
000000FFFFFFFFFF0000
000000FFFFFFFFFF0000
000000FFFFFFFFFF0000
000001FF800000000000
000001FF800000000000
000001FF800000000000
000003FF000000000000
000003FF000000000000
000003FF000000000000
000007FE000000000000
000007FE000000000000
000007FE000000000000
00000FFC000000000000
00000FFFFFFFC0000000
00000FFFFFFFC0000000
00001FFFFFFF80000000
00001FFFFFFF80000000
00001FFFFFFF80000000
00003FFFFFFF00000000
00003FFFFFFF00000000
00003FFFFFFF00000000
00007FFFFFFE00000000
00007FFFFFFE00000000
00007FE0000000000000
0000FFC0000000000000
0000FFC0000000000000
0000FFC0000000000000
0001FF80000000000000
0001FF80000000000000
0001FF80000000000000
0003FF00000000000000
0003FF00000000000000
0003FF00000000000000
0007FE00000000000000
0007FE00000000000000
0007FE00000000000000
000FFC00000000000000
000FFC00000000000000
000FFC00000000000000
001FF800000000000000
001FF800000000000000
001FF800000000000000
003FF000000000000000
003FFFFFFFFFC0000000
003FFFFFFFFFC0000000
007FFFFFFFFF80000000
007FFFFFFFFF80000000
007FFFFFFFFF80000000
00FFFFFFFFFF00000000
00FFFFFFFFFF00000000
00FFFFFFFFFF00000000
01FFFFFFFFFE00000000
01FFFFFFFFFE00000000
00000000000000000000
00000000000000000000
00000000000000000000
00000000000000000000
00000000000000000000
00000000000000000000
00000000000000000000
00000000000000000000
00000000000000000000
00000000000000000000
00000000000000000000
00000000000000000000
00000000000000000000
00000000000000000000
00000000000000000000
00000000000000000000
00000000000000000000
00000000000000000000
00000000000000000000
00000000000000000000
ENDCHAR
STARTCHAR U+00CA
ENCODING 202
SWIDTH 1000 0
DWIDTH 45 0
BBX 78 100 -16 -20
BITMAP
00000000001FFFFE0000
00000000001FFFFE0000
00000000001FFFFE0000
00000000003FFFFC0000
00000000003FFFFC0000
00000000003FFFFC0000
00000000007FFFF80000
00000000007FFFF80000
00000000007FFFF80000
0000000000FFFFF00000
000000001FF801FF8000
000000001FF801FF8000
000000003FF003FF0000
000000003FF003FF0000
000000003FF003FF0000
000000007FE007FE0000
000000007FE007FE0000
000000007FE007FE0000
00000000FFC00FFC0000
00000000FFC00FFC0000
0000001FFFFFFFFFE000
0000003FFFFFFFFFC000
0000003FFFFFFFFFC000
0000003FFFFFFFFFC000
0000007FFFFFFFFF8000
0000007FFFFFFFFF8000
0000007FFFFFFFFF8000
000000FFFFFFFFFF0000
000000FFFFFFFFFF0000
000000FFFFFFFFFF0000
000001FF800000000000
000001FF800000000000
000001FF800000000000
000003FF000000000000
000003FF000000000000
000003FF000000000000
000007FE000000000000
000007FE000000000000
000007FE000000000000
00000FFC000000000000
00000FFFFFF800000000
00000FFFFFF800000000
00001FFFFFF000000000
00001FFFFFF000000000
00001FFFFFF000000000
00003FFFFFE000000000
00003FFFFFE000000000
00003FFFFFE000000000
00007FFFFFC000000000
00007FFFFFC000000000
00007FE0000000000000
0000FFC0000000000000
0000FFC0000000000000
0000FFC0000000000000
0001FF80000000000000
0001FF80000000000000
0001FF80000000000000
0003FF00000000000000
0003FF00000000000000
0003FF00000000000000
0007FE00000000000000
0007FE00000000000000
0007FE00000000000000
000FFC00000000000000
000FFC00000000000000
000FFC00000000000000
001FF800000000000000
001FF800000000000000
001FF800000000000000
003FF000000000000000
003FFFFFFFFFC0000000
003FFFFFFFFFC0000000
007FFFFFFFFF80000000
007FFFFFFFFF80000000
007FFFFFFFFF80000000
00FFFFFFFFFF00000000
00FFFFFFFFFF00000000
00FFFFFFFFFF00000000
01FFFFFFFFFE00000000
01FFFFFFFFFE00000000
00000000000000000000
00000000000000000000
00000000000000000000
00000000000000000000
00000000000000000000
00000000000000000000
00000000000000000000
00000000000000000000
00000000000000000000
00000000000000000000
00000000000000000000
00000000000000000000
00000000000000000000
00000000000000000000
00000000000000000000
00000000000000000000
00000000000000000000
00000000000000000000
00000000000000000000
00000000000000000000
ENDCHAR
STARTCHAR U+00C9
ENCODING 201
SWIDTH 1000 0
DWIDTH 45 0
BBX 78 100 -16 -20
BITMAP
00000000000007FFF000
00000000000007FFF000
00000000000007FFF000
0000000000000FFFE000
0000000000000FFFE000
0000000000000FFFE000
0000000000001FFFC000
0000000000001FFFC000
0000000000001FFFC000
0000000000003FFF8000
0000000000FFFE000000
0000000000FFFE000000
0000000001FFFC000000
0000000001FFFC000000
0000000001FFFC000000
0000000003FFF8000000
0000000003FFF8000000
0000000003FFF8000000
0000000007FFF0000000
0000000007FFF0000000
0000001FFFFFFFFFE000
0000003FFFFFFFFFC000
0000003FFFFFFFFFC000
0000003FFFFFFFFFC000
0000007FFFFFFFFF8000
0000007FFFFFFFFF8000
0000007FFFFFFFFF8000
000000FFFFFFFFFF0000
000000FFFFFFFFFF0000
000000FFFFFFFFFF0000
000001FF800000000000
000001FF800000000000
000001FF800000000000
000003FF000000000000
000003FF000000000000
000003FF000000000000
000007FE000000000000
000007FE000000000000
000007FE000000000000
00000FFC000000000000
00000FFFFFFFC0000000
00000FFFFFFFC0000000
00001FFFFFFF80000000
00001FFFFFFF80000000
00001FFFFFFF80000000
00003FFFFFFF00000000
00003FFFFFFF00000000
00003FFFFFFF00000000
00007FFFFFFE00000000
00007FFFFFFE00000000
00007FE0000000000000
0000FFC0000000000000
0000FFC0000000000000
0000FFC0000000000000
0001FF80000000000000
0001FF80000000000000
0001FF80000000000000
0003FF00000000000000
0003FF00000000000000
0003FF00000000000000
0007FE00000000000000
0007FE00000000000000
0007FE00000000000000
000FFC00000000000000
000FFC00000000000000
000FFC00000000000000
001FF800000000000000
001FF800000000000000
001FF800000000000000
003FF000000000000000
003FFFFFFFFFC0000000
003FFFFFFFFFC0000000
007FFFFFFFFF80000000
007FFFFFFFFF80000000
007FFFFFFFFF80000000
00FFFFFFFFFF00000000
00FFFFFFFFFF00000000
00FFFFFFFFFF00000000
01FFFFFFFFFE00000000
01FFFFFFFFFE00000000
00000000000000000000
00000000000000000000
00000000000000000000
00000000000000000000
00000000000000000000
00000000000000000000
00000000000000000000
00000000000000000000
00000000000000000000
00000000000000000000
00000000000000000000
00000000000000000000
00000000000000000000
00000000000000000000
00000000000000000000
00000000000000000000
00000000000000000000
00000000000000000000
00000000000000000000
00000000000000000000
ENDCHAR
STARTCHAR U+00C8
ENCODING 200
SWIDTH 1000 0
DWIDTH 45 0
BBX 78 100 -16 -20
BITMAP
0000000003FFF8000000
0000000003FFF8000000
0000000003FFF8000000
0000000007FFF0000000
0000000007FFF0000000
0000000007FFF0000000
000000000FFFE0000000
000000000FFFE0000000
000000000FFFE0000000
000000001FFFC0000000
000000000007FFF00000
000000000007FFF00000
00000000000FFFE00000
00000000000FFFE00000
00000000000FFFE00000
00000000001FFFC00000
00000000001FFFC00000
00000000001FFFC00000
00000000003FFF800000
00000000003FFF800000
0000001FFFFFFFFFE000
0000003FFFFFFFFFC000
0000003FFFFFFFFFC000
0000003FFFFFFFFFC000
0000007FFFFFFFFF8000
0000007FFFFFFFFF8000
0000007FFFFFFFFF8000
000000FFFFFFFFFF0000
000000FFFFFFFFFF0000
000000FFFFFFFFFF0000
000001FF800000000000
000001FF800000000000
000001FF800000000000
000003FF000000000000
000003FF000000000000
000003FF000000000000
000007FE000000000000
000007FE000000000000
000007FE000000000000
00000FFC000000000000
00000FFFFFFFC0000000
00000FFFFFFFC0000000
00001FFFFFFF80000000
00001FFFFFFF80000000
00001FFFFFFF80000000
00003FFFFFFF00000000
00003FFFFFFF00000000
00003FFFFFFF00000000
00007FFFFFFE00000000
00007FFFFFFE00000000
00007FE0000000000000
0000FFC0000000000000
0000FFC0000000000000
0000FFC0000000000000
0001FF80000000000000
0001FF80000000000000
0001FF80000000000000
0003FF00000000000000
0003FF00000000000000
0003FF00000000000000
0007FE00000000000000
0007FE00000000000000
0007FE00000000000000
000FFC00000000000000
000FFC00000000000000
000FFC00000000000000
001FF800000000000000
001FF800000000000000
001FF800000000000000
003FF000000000000000
003FFFFFFFFFC0000000
003FFFFFFFFFC0000000
007FFFFFFFFF80000000
007FFFFFFFFF80000000
007FFFFFFFFF80000000
00FFFFFFFFFF00000000
00FFFFFFFFFF00000000
00FFFFFFFFFF00000000
01FFFFFFFFFE00000000
01FFFFFFFFFE00000000
00000000000000000000
00000000000000000000
00000000000000000000
00000000000000000000
00000000000000000000
00000000000000000000
00000000000000000000
00000000000000000000
00000000000000000000
00000000000000000000
00000000000000000000
00000000000000000000
00000000000000000000
00000000000000000000
00000000000000000000
00000000000000000000
00000000000000000000
00000000000000000000
00000000000000000000
00000000000000000000
ENDCHAR
STARTCHAR U+00C7
ENCODING 199
SWIDTH 1000 0
DWIDTH 45 0
BBX 78 100 -16 -20
BITMAP
00000000000000000000
00000000000000000000
00000000000000000000
00000000000000000000
00000000000000000000
00000000000000000000
00000000000000000000
00000000000000000000
00000000000000000000
00000000000000000000
0000000000FFFFFF8000
0000000000FFFFFF8000
0000000001FFFFFF0000
0000000001FFFFFF0000
0000000001FFFFFF0000
0000000003FFFFFE0000
0000000003FFFFFE0000
0000000003FFFFFE0000
0000000007FFFFFC0000
0000000007FFFFFC0000
00000000FFC0007FE000
00000001FF8000FFC000
00000001FF8000FFC000
00000001FF8000FFC000
00000003FF0001FF8000
00000003FF0001FF8000
00000003FF0001FF8000
00000007FE0003FF0000
00000007FE0003FF0000
00000007FE0003FF0000
000001FF800000000000
000001FF800000000000
000001FF800000000000
000003FF000000000000
000003FF000000000000
000003FF000000000000
000007FE000000000000
000007FE000000000000
000007FE000000000000
00000FFC000000000000
00000FFC000000000000
00000FFC000000000000
00001FF8000000000000
00001FF8000000000000
00001FF8000000000000
00003FF0000000000000
00003FF0000000000000
00003FF0000000000000
00007FE0000000000000
00007FE0000000000000
00007FE0000000000000
0000FFC0000000000000
0000FFC0000000000000
0000FFC0000000000000
0001FF80000000000000
0001FF80000000000000
0001FF80000000000000
0003FF00000000000000
0003FF00000000000000
0003FF00000000000000
00003FF0001FF8000000
00003FF0001FF8000000
00003FF0001FF8000000
00007FE0003FF0000000
00007FE0003FF0000000
00007FE0003FF0000000
0000FFC0007FE0000000
0000FFC0007FE0000000
0000FFC0007FE0000000
0001FF8000FFC0000000
00000FFFFFF800000000
00000FFFFFF800000000
00001FFFFFF000000000
00001FFFFFF000000000
00001FFFFFF000000000
00003FFFFFE000000000
00003FFFFFE000000000
00003FFFFFE000000000
00007FFFFFC000000000
00007FFFFFC000000000
0000001FF80000000000
0000003FF00000000000
0000003FF00000000000
0000003FF00000000000
0000007FE00000000000
0000007FE00000000000
0000007FE00000000000
000000FFC00000000000
000000FFC00000000000
000000FFC00000000000
0007FFFF800000000000
0007FFFF800000000000
0007FFFF800000000000
000FFFFF000000000000
000FFFFF000000000000
000FFFFF000000000000
001FFFFE000000000000
001FFFFE000000000000
001FFFFE000000000000
003FFFFC000000000000
ENDCHAR
STARTCHAR U+00C6
ENCODING 198
SWIDTH 1000 0
DWIDTH 45 0
BBX 78 100 -16 -20
BITMAP
00000000000000000000
00000000000000000000
00000000000000000000
00000000000000000000
00000000000000000000
00000000000000000000
00000000000000000000
00000000000000000000
00000000000000000000
00000000000000000000
0000000000FFFFFFFC00
0000000000FFFFFFFC00
0000000001FFFFFFF800
0000000001FFFFFFF800
0000000001FFFFFFF800
0000000003FFFFFFF000
0000000003FFFFFFF000
0000000003FFFFFFF000
0000000007FFFFFFE000
0000000007FFFFFFE000
00000000FFFFF0000000
00000001FFFFE0000000
00000001FFFFE0000000
00000001FFFFE0000000
00000003FFFFC0000000
00000003FFFFC0000000
00000003FFFFC0000000
00000007FFFF80000000
00000007FFFF80000000
00000007FFFF80000000
000001FF83FF00000000
000001FF83FF00000000
000001FF83FF00000000
000003FF07FE00000000
000003FF07FE00000000
000003FF07FE00000000
000007FE0FFC00000000
000007FE0FFC00000000
000007FE0FFC00000000
00000FFC1FF800000000
00000FFC1FFFFE000000
00000FFC1FFFFE000000
00001FF83FFFFC000000
00001FF83FFFFC000000
00001FF83FFFFC000000
00003FF07FFFF8000000
00003FF07FFFF8000000
00003FF07FFFF8000000
00007FE0FFFFF0000000
00007FE0FFFFF0000000
00007FFFFFC000000000
0000FFFFFF8000000000
0000FFFFFF8000000000
0000FFFFFF8000000000
0001FFFFFF0000000000
0001FFFFFF0000000000
0001FFFFFF0000000000
0003FFFFFE0000000000
0003FFFFFE0000000000
0003FFFFFE0000000000
0007FE0FFC0000000000
0007FE0FFC0000000000
0007FE0FFC0000000000
000FFC1FF80000000000
000FFC1FF80000000000
000FFC1FF80000000000
001FF83FF00000000000
001FF83FF00000000000
001FF83FF00000000000
003FF07FE00000000000
003FF07FFFFFC0000000
003FF07FFFFFC0000000
007FE0FFFFFF80000000
007FE0FFFFFF80000000
007FE0FFFFFF80000000
00FFC1FFFFFF00000000
00FFC1FFFFFF00000000
00FFC1FFFFFF00000000
01FF83FFFFFE00000000
01FF83FFFFFE00000000
00000000000000000000
00000000000000000000
00000000000000000000
00000000000000000000
00000000000000000000
00000000000000000000
00000000000000000000
00000000000000000000
00000000000000000000
00000000000000000000
00000000000000000000
00000000000000000000
00000000000000000000
00000000000000000000
00000000000000000000
00000000000000000000
00000000000000000000
00000000000000000000
00000000000000000000
00000000000000000000
ENDCHAR
STARTCHAR U+00C5
ENCODING 197
SWIDTH 1000 0
DWIDTH 45 0
BBX 78 100 -16 -20
BITMAP
00000000001FFFFE0000
00000000001FFFFE0000
00000000001FFFFE0000
00000000003FFFFC0000
00000000003FFFFC0000
00000000003FFFFC0000
00000000007FFFF80000
00000000007FFFF80000
00000000007FFFF80000
0000000000FFFFF00000
000000001FF801FF8000
000000001FF801FF8000
000000003FF003FF0000
000000003FF003FF0000
000000003FF003FF0000
000000007FE007FE0000
000000007FE007FE0000
000000007FE007FE0000
00000000FFC00FFC0000
00000000FFC00FFC0000
0000000007FFFF800000
000000000FFFFF000000
000000000FFFFF000000
000000000FFFFF000000
000000001FFFFE000000
000000001FFFFE000000
000000001FFFFE000000
000000003FFFFC000000
000000003FFFFC000000
000000003FFFFC000000
000000007FFFF8000000
000000007FFFF8000000
000000007FFFF8000000
00000000FFFFF0000000
00000000FFFFF0000000
00000000FFFFF0000000
00000001FFFFE0000000
00000001FFFFE0000000
00000001FFFFE0000000
00000003FFFFC0000000
0000007FE007FE000000
0000007FE007FE000000
000000FFC00FFC000000
000000FFC00FFC000000
000000FFC00FFC000000
000001FF801FF8000000
000001FF801FF8000000
000001FF801FF8000000
000003FF003FF0000000
000003FF003FF0000000
00007FFFFFFFFF800000
0000FFFFFFFFFF000000
0000FFFFFFFFFF000000
0000FFFFFFFFFF000000
0001FFFFFFFFFE000000
0001FFFFFFFFFE000000
0001FFFFFFFFFE000000
0003FFFFFFFFFC000000
0003FFFFFFFFFC000000
0003FFFFFFFFFC000000
0007FE00001FF8000000
0007FE00001FF8000000
0007FE00001FF8000000
000FFC00003FF0000000
000FFC00003FF0000000
000FFC00003FF0000000
001FF800007FE0000000
001FF800007FE0000000
001FF800007FE0000000
003FF00000FFC0000000
003FF00000FFC0000000
003FF00000FFC0000000
007FE00001FF80000000
007FE00001FF80000000
007FE00001FF80000000
00FFC00003FF00000000
00FFC00003FF00000000
00FFC00003FF00000000
01FF800007FE00000000
01FF800007FE00000000
00000000000000000000
00000000000000000000
00000000000000000000
00000000000000000000
00000000000000000000
00000000000000000000
00000000000000000000
00000000000000000000
00000000000000000000
00000000000000000000
00000000000000000000
00000000000000000000
00000000000000000000
00000000000000000000
00000000000000000000
00000000000000000000
00000000000000000000
00000000000000000000
00000000000000000000
00000000000000000000
ENDCHAR
STARTCHAR U+00C4
ENCODING 196
SWIDTH 1000 0
DWIDTH 45 0
BBX 78 100 -16 -20
BITMAP
0000000003FF003FF000
0000000003FF003FF000
0000000003FF003FF000
0000000007FE007FE000
0000000007FE007FE000
0000000007FE007FE000
000000000FFC00FFC000
000000000FFC00FFC000
000000000FFC00FFC000
000000001FF801FF8000
00000000000000000000
00000000000000000000
00000000000000000000
00000000000000000000
00000000000000000000
00000000000000000000
00000000000000000000
00000000000000000000
00000000000000000000
00000000000000000000
00000000003FF0000000
00000000007FE0000000
00000000007FE0000000
00000000007FE0000000
0000000000FFC0000000
0000000000FFC0000000
0000000000FFC0000000
0000000001FF80000000
0000000001FF80000000
0000000001FF80000000
000000007FFFF8000000
000000007FFFF8000000
000000007FFFF8000000
00000000FFFFF0000000
00000000FFFFF0000000
00000000FFFFF0000000
00000001FFFFE0000000
00000001FFFFE0000000
00000001FFFFE0000000
00000003FFFFC0000000
0000007FE007FE000000
0000007FE007FE000000
000000FFC00FFC000000
000000FFC00FFC000000
000000FFC00FFC000000
000001FF801FF8000000
000001FF801FF8000000
000001FF801FF8000000
000003FF003FF0000000
000003FF003FF0000000
00007FFFFFFFFF800000
0000FFFFFFFFFF000000
0000FFFFFFFFFF000000
0000FFFFFFFFFF000000
0001FFFFFFFFFE000000
0001FFFFFFFFFE000000
0001FFFFFFFFFE000000
0003FFFFFFFFFC000000
0003FFFFFFFFFC000000
0003FFFFFFFFFC000000
0007FE00001FF8000000
0007FE00001FF8000000
0007FE00001FF8000000
000FFC00003FF0000000
000FFC00003FF0000000
000FFC00003FF0000000
001FF800007FE0000000
001FF800007FE0000000
001FF800007FE0000000
003FF00000FFC0000000
003FF00000FFC0000000
003FF00000FFC0000000
007FE00001FF80000000
007FE00001FF80000000
007FE00001FF80000000
00FFC00003FF00000000
00FFC00003FF00000000
00FFC00003FF00000000
01FF800007FE00000000
01FF800007FE00000000
00000000000000000000
00000000000000000000
00000000000000000000
00000000000000000000
00000000000000000000
00000000000000000000
00000000000000000000
00000000000000000000
00000000000000000000
00000000000000000000
00000000000000000000
00000000000000000000
00000000000000000000
00000000000000000000
00000000000000000000
00000000000000000000
00000000000000000000
00000000000000000000
00000000000000000000
00000000000000000000
ENDCHAR
STARTCHAR U+00C3
ENCODING 195
SWIDTH 1000 0
DWIDTH 45 0
BBX 78 100 -16 -20
BITMAP
00000000001FFFC1FF80
00000000001FFFC1FF80
00000000001FFFC1FF80
00000000003FFF83FF00
00000000003FFF83FF00
00000000003FFF83FF00
00000000007FFF07FE00
00000000007FFF07FE00
00000000007FFF07FE00
0000000000FFFE0FFC00
000000001FF83FFF8000
000000001FF83FFF8000
000000003FF07FFF0000
000000003FF07FFF0000
000000003FF07FFF0000
000000007FE0FFFE0000
000000007FE0FFFE0000
000000007FE0FFFE0000
00000000FFC1FFFC0000
00000000FFC1FFFC0000
00000000005FF0000000
00000000007FE0000000
00000000007FE0000000
00000000007FE0000000
0000000000FFC0000000
0000000000FFC0000000
0000000000FFC0000000
0000000001FF80000000
0000000001FF80000000
0000000001FF80000000
000000007FFFF8000000
000000007FFFF8000000
000000007FFFF8000000
00000000FFFFF0000000
00000000FFFFF0000000
00000000FFFFF0000000
00000001FFFFE0000000
00000001FFFFE0000000
00000001FFFFE0000000
00000003FFFFC0000000
0000007FE007FE000000
0000007FE007FE000000
000000FFC00FFC000000
000000FFC00FFC000000
000000FFC00FFC000000
000001FF801FF8000000
000001FF801FF8000000
000001FF801FF8000000
000003FF003FF0000000
000003FF003FF0000000
00007FFFFFFFFF800000
0000FFFFFFFFFF000000
0000FFFFFFFFFF000000
0000FFFFFFFFFF000000
0001FFFFFFFFFE000000
0001FFFFFFFFFE000000
0001FFFFFFFFFE000000
0003FFFFFFFFFC000000
0003FFFFFFFFFC000000
0003FFFFFFFFFC000000
0007FE00001FF8000000
0007FE00001FF8000000
0007FE00001FF8000000
000FFC00003FF0000000
000FFC00003FF0000000
000FFC00003FF0000000
001FF800007FE0000000
001FF800007FE0000000
001FF800007FE0000000
003FF00000FFC0000000
003FF00000FFC0000000
003FF00000FFC0000000
007FE00001FF80000000
007FE00001FF80000000
007FE00001FF80000000
00FFC00003FF00000000
00FFC00003FF00000000
00FFC00003FF00000000
01FF800007FE00000000
01FF800007FE00000000
00000000000000000000
00000000000000000000
00000000000000000000
00000000000000000000
00000000000000000000
00000000000000000000
00000000000000000000
00000000000000000000
00000000000000000000
00000000000000000000
00000000000000000000
00000000000000000000
00000000000000000000
00000000000000000000
00000000000000000000
00000000000000000000
00000000000000000000
00000000000000000000
00000000000000000000
00000000000000000000
ENDCHAR
STARTCHAR U+00C2
ENCODING 194
SWIDTH 1000 0
DWIDTH 45 0
BBX 78 100 -16 -20
BITMAP
00000000001FFFFE0000
00000000001FFFFE0000
00000000001FFFFE0000
00000000003FFFFC0000
00000000003FFFFC0000
00000000003FFFFC0000
00000000007FFFF80000
00000000007FFFF80000
00000000007FFFF80000
0000000000FFFFF00000
000000001FF801FF8000
000000001FF801FF8000
000000003FF003FF0000
000000003FF003FF0000
000000003FF003FF0000
000000007FE007FE0000
000000007FE007FE0000
000000007FE007FE0000
00000000FFC00FFC0000
00000000FFC00FFC0000
00000000005FF0000000
00000000007FE0000000
00000000007FE0000000
00000000007FE0000000
0000000000FFC0000000
0000000000FFC0000000
0000000000FFC0000000
0000000001FF80000000
0000000001FF80000000
0000000001FF80000000
000000007FFFF8000000
000000007FFFF8000000
000000007FFFF8000000
00000000FFFFF0000000
00000000FFFFF0000000
00000000FFFFF0000000
00000001FFFFE0000000
00000001FFFFE0000000
00000001FFFFE0000000
00000003FFFFC0000000
0000007FE007FE000000
0000007FE007FE000000
000000FFC00FFC000000
000000FFC00FFC000000
000000FFC00FFC000000
000001FF801FF8000000
000001FF801FF8000000
000001FF801FF8000000
000003FF003FF0000000
000003FF003FF0000000
00007FFFFFFFFF800000
0000FFFFFFFFFF000000
0000FFFFFFFFFF000000
0000FFFFFFFFFF000000
0001FFFFFFFFFE000000
0001FFFFFFFFFE000000
0001FFFFFFFFFE000000
0003FFFFFFFFFC000000
0003FFFFFFFFFC000000
0003FFFFFFFFFC000000
0007FE00001FF8000000
0007FE00001FF8000000
0007FE00001FF8000000
000FFC00003FF0000000
000FFC00003FF0000000
000FFC00003FF0000000
001FF800007FE0000000
001FF800007FE0000000
001FF800007FE0000000
003FF00000FFC0000000
003FF00000FFC0000000
003FF00000FFC0000000
007FE00001FF80000000
007FE00001FF80000000
007FE00001FF80000000
00FFC00003FF00000000
00FFC00003FF00000000
00FFC00003FF00000000
01FF800007FE00000000
01FF800007FE00000000
00000000000000000000
00000000000000000000
00000000000000000000
00000000000000000000
00000000000000000000
00000000000000000000
00000000000000000000
00000000000000000000
00000000000000000000
00000000000000000000
00000000000000000000
00000000000000000000
00000000000000000000
00000000000000000000
00000000000000000000
00000000000000000000
00000000000000000000
00000000000000000000
00000000000000000000
00000000000000000000
ENDCHAR
STARTCHAR U+00C1
ENCODING 193
SWIDTH 1000 0
DWIDTH 45 0
BBX 78 100 -16 -20
BITMAP
000000000000FFFE0000
000000000000FFFE0000
000000000000FFFE0000
000000000001FFFC0000
000000000001FFFC0000
000000000001FFFC0000
000000000003FFF80000
000000000003FFF80000
000000000003FFF80000
000000000007FFF00000
000000001FFFC0000000
000000001FFFC0000000
000000003FFF80000000
000000003FFF80000000
000000003FFF80000000
000000007FFF00000000
000000007FFF00000000
000000007FFF00000000
00000000FFFE00000000
00000000FFFE00000000
00000000003FF0000000
00000000007FE0000000
00000000007FE0000000
00000000007FE0000000
0000000000FFC0000000
0000000000FFC0000000
0000000000FFC0000000
0000000001FF80000000
0000000001FF80000000
0000000001FF80000000
000000007FFFF8000000
000000007FFFF8000000
000000007FFFF8000000
00000000FFFFF0000000
00000000FFFFF0000000
00000000FFFFF0000000
00000001FFFFE0000000
00000001FFFFE0000000
00000001FFFFE0000000
00000003FFFFC0000000
0000007FE007FE000000
0000007FE007FE000000
000000FFC00FFC000000
000000FFC00FFC000000
000000FFC00FFC000000
000001FF801FF8000000
000001FF801FF8000000
000001FF801FF8000000
000003FF003FF0000000
000003FF003FF0000000
00007FFFFFFFFF800000
0000FFFFFFFFFF000000
0000FFFFFFFFFF000000
0000FFFFFFFFFF000000
0001FFFFFFFFFE000000
0001FFFFFFFFFE000000
0001FFFFFFFFFE000000
0003FFFFFFFFFC000000
0003FFFFFFFFFC000000
0003FFFFFFFFFC000000
0007FE00001FF8000000
0007FE00001FF8000000
0007FE00001FF8000000
000FFC00003FF0000000
000FFC00003FF0000000
000FFC00003FF0000000
001FF800007FE0000000
001FF800007FE0000000
001FF800007FE0000000
003FF00000FFC0000000
003FF00000FFC0000000
003FF00000FFC0000000
007FE00001FF80000000
007FE00001FF80000000
007FE00001FF80000000
00FFC00003FF00000000
00FFC00003FF00000000
00FFC00003FF00000000
01FF800007FE00000000
01FF800007FE00000000
00000000000000000000
00000000000000000000
00000000000000000000
00000000000000000000
00000000000000000000
00000000000000000000
00000000000000000000
00000000000000000000
00000000000000000000
00000000000000000000
00000000000000000000
00000000000000000000
00000000000000000000
00000000000000000000
00000000000000000000
00000000000000000000
00000000000000000000
00000000000000000000
00000000000000000000
00000000000000000000
ENDCHAR
STARTCHAR U+00C0
ENCODING 192
SWIDTH 1000 0
DWIDTH 45 0
BBX 78 100 -16 -20
BITMAP
00000000001FFFC00000
00000000001FFFC00000
00000000001FFFC00000
00000000003FFF800000
00000000003FFF800000
00000000003FFF800000
00000000007FFF000000
00000000007FFF000000
00000000007FFF000000
0000000000FFFE000000
0000000000003FFF8000
0000000000003FFF8000
0000000000007FFF0000
0000000000007FFF0000
0000000000007FFF0000
000000000000FFFE0000
000000000000FFFE0000
000000000000FFFE0000
000000000001FFFC0000
000000000001FFFC0000
00000000003FF0000000
00000000007FE0000000
00000000007FE0000000
00000000007FE0000000
0000000000FFC0000000
0000000000FFC0000000
0000000000FFC0000000
0000000001FF80000000
0000000001FF80000000
0000000001FF80000000
000000007FFFF8000000
000000007FFFF8000000
000000007FFFF8000000
00000000FFFFF0000000
00000000FFFFF0000000
00000000FFFFF0000000
00000001FFFFE0000000
00000001FFFFE0000000
00000001FFFFE0000000
00000003FFFFC0000000
0000007FE007FE000000
0000007FE007FE000000
000000FFC00FFC000000
000000FFC00FFC000000
000000FFC00FFC000000
000001FF801FF8000000
000001FF801FF8000000
000001FF801FF8000000
000003FF003FF0000000
000003FF003FF0000000
00007FFFFFFFFF800000
0000FFFFFFFFFF000000
0000FFFFFFFFFF000000
0000FFFFFFFFFF000000
0001FFFFFFFFFE000000
0001FFFFFFFFFE000000
0001FFFFFFFFFE000000
0003FFFFFFFFFC000000
0003FFFFFFFFFC000000
0003FFFFFFFFFC000000
0007FE00001FF8000000
0007FE00001FF8000000
0007FE00001FF8000000
000FFC00003FF0000000
000FFC00003FF0000000
000FFC00003FF0000000
001FF800007FE0000000
001FF800007FE0000000
001FF800007FE0000000
003FF00000FFC0000000
003FF00000FFC0000000
003FF00000FFC0000000
007FE00001FF80000000
007FE00001FF80000000
007FE00001FF80000000
00FFC00003FF00000000
00FFC00003FF00000000
00FFC00003FF00000000
01FF800007FE00000000
01FF800007FE00000000
00000000000000000000
00000000000000000000
00000000000000000000
00000000000000000000
00000000000000000000
00000000000000000000
00000000000000000000
00000000000000000000
00000000000000000000
00000000000000000000
00000000000000000000
00000000000000000000
00000000000000000000
00000000000000000000
00000000000000000000
00000000000000000000
00000000000000000000
00000000000000000000
00000000000000000000
00000000000000000000
ENDCHAR
STARTCHAR U+00BF
ENCODING 191
SWIDTH 1000 0
DWIDTH 45 0
BBX 78 100 -16 -20
BITMAP
00000000000000000000
00000000000000000000
00000000000000000000
00000000000000000000
00000000000000000000
00000000000000000000
00000000000000000000
00000000000000000000
00000000000000000000
00000000000000000000
000000000007FE000000
000000000007FE000000
00000000000FFC000000
00000000000FFC000000
00000000000FFC000000
00000000001FF8000000
00000000001FF8000000
00000000001FF8000000
00000000003FF0000000
00000000003FF0000000
00000000000000000000
00000000000000000000
00000000000000000000
00000000000000000000
00000000000000000000
00000000000000000000
00000000000000000000
00000000000000000000
00000000000000000000
00000000000000000000
0000000003FF00000000
0000000003FF00000000
0000000003FF00000000
0000000007FE00000000
0000000007FE00000000
0000000007FE00000000
000000000FFC00000000
000000000FFC00000000
000000000FFC00000000
000000001FF800000000
000000001FF800000000
000000001FF800000000
000000003FF000000000
000000003FF000000000
000000003FF000000000
000000007FE000000000
000000007FE000000000
000000007FE000000000
00000000FFC000000000
00000000FFC000000000
000003FFF80000000000
000007FFF00000000000
000007FFF00000000000
000007FFF00000000000
00000FFFE00000000000
00000FFFE00000000000
00000FFFE00000000000
00001FFFC00000000000
00001FFFC00000000000
00001FFFC00000000000
0007FE00001FF8000000
0007FE00001FF8000000
0007FE00001FF8000000
000FFC00003FF0000000
000FFC00003FF0000000
000FFC00003FF0000000
001FF800007FE0000000
001FF800007FE0000000
001FF800007FE0000000
003FF00000FFC0000000
0001FFFFFFF800000000
0001FFFFFFF800000000
0003FFFFFFF000000000
0003FFFFFFF000000000
0003FFFFFFF000000000
0007FFFFFFE000000000
0007FFFFFFE000000000
0007FFFFFFE000000000
000FFFFFFFC000000000
000FFFFFFFC000000000
00000000000000000000
00000000000000000000
00000000000000000000
00000000000000000000
00000000000000000000
00000000000000000000
00000000000000000000
00000000000000000000
00000000000000000000
00000000000000000000
00000000000000000000
00000000000000000000
00000000000000000000
00000000000000000000
00000000000000000000
00000000000000000000
00000000000000000000
00000000000000000000
00000000000000000000
00000000000000000000
ENDCHAR
STARTCHAR U+00BE
ENCODING 190
SWIDTH 1000 0
DWIDTH 45 0
BBX 78 100 -16 -20
BITMAP
000000007FFFFFC00000
000000007FFFFFC00000
000000007FFFFFC00000
00000000FFFFFF800000
00000000FFFFFF800000
00000000FFFFFF800000
00000001FFFFFF000000
00000001FFFFFF000000
00000001FFFFFF000000
00000003FFFFFE000000
000000000007FE000000
000000000007FE000000
00000000000FFC000000
00000000000FFC000000
00000000000FFC000000
00000000001FF8000000
00000000001FF8000000
00000000001FF8000000
00000000003FF0000000
00000000003FF0000000
00000000FFFE17FC0000
00000001FFFC1FF80000
00000001FFFC1FF80000
00000001FFFC1FF80000
00000003FFF83FF00000
00000003FFF83FF00000
00000003FFF83FF00000
00000007FFF07FE00000
00000007FFF07FE00000
00000007FFF07FE00000
0000000003FFF8000000
0000000003FFF8000000
0000000003FFF8000000
0000000007FFF0000000
0000000007FFF0000000
0000000007FFF0000000
000000000FFFE0000000
000000000FFFE0000000
000000000FFFE0000000
000000001FFFC0000000
00000FFFFFF800000000
00000FFFFFF800000000
00001FFFFFF000000000
00001FFFFFF000000000
00001FFFFFF000000000
00003FFFFFE000000000
00003FFFFFE000000000
00003FFFFFE000000000
00007FFFFFC000000000
00007FFFFFC000000000
0000001FF85FF0000000
0000003FF07FE0000000
0000003FF07FE0000000
0000003FF07FE0000000
0000007FE0FFC0000000
0000007FE0FFC0000000
0000007FE0FFC0000000
000000FFC1FF80000000
000000FFC1FF80000000
000000FFC1FF80000000
00003FF07FFF00000000
00003FF07FFF00000000
00003FF07FFF00000000
00007FE0FFFE00000000
00007FE0FFFE00000000
00007FE0FFFE00000000
0000FFC1FFFC00000000
0000FFC1FFFC00000000
0000FFC1FFFC00000000
0001FF43FFF800000000
003FF07FFFF800000000
003FF07FFFF800000000
007FE0FFFFF000000000
007FE0FFFFF000000000
007FE0FFFFF000000000
00FFC1FFFFE000000000
00FFC1FFFFE000000000
00FFC1FFFFE000000000
01FF83FFFFC000000000
01FF83FFFFC000000000
0000BFFFFFFE00000000
0000FFFFFFFC00000000
0000FFFFFFFC00000000
0000FFFFFFFC00000000
0001FFFFFFF800000000
0001FFFFFFF800000000
0001FFFFFFF800000000
0003FFFFFFF000000000
0003FFFFFFF000000000
0003FFFFFFF000000000
0000000FFC0000000000
0000000FFC0000000000
0000000FFC0000000000
0000001FF80000000000
0000001FF80000000000
0000001FF80000000000
0000003FF00000000000
0000003FF00000000000
0000003FF00000000000
0000007FE00000000000
ENDCHAR
STARTCHAR U+00BD
ENCODING 189
SWIDTH 1000 0
DWIDTH 45 0
BBX 78 100 -16 -20
BITMAP
00000000000000000000
00000000000000000000
00000000000000000000
00000000000000000000
00000000000000000000
00000000000000000000
00000000000000000000
00000000000000000000
00000000000000000000
00000000000000000000
000000001FF800000000
000000001FF800000000
000000003FF000000000
000000003FF000000000
000000003FF000000000
000000007FE000000000
000000007FE000000000
000000007FE000000000
00000000FFC000000000
00000000FFC000000000
0000001FFFC00FFC0000
0000003FFF801FF80000
0000003FFF801FF80000
0000003FFF801FF80000
0000007FFF003FF00000
0000007FFF003FF00000
0000007FFF003FF00000
000000FFFE007FE00000
000000FFFE007FE00000
000000FFFE007FE00000
0000000FFC1FF8000000
0000000FFC1FF8000000
0000000FFC1FF8000000
0000001FF83FF0000000
0000001FF83FF0000000
0000001FF83FF0000000
0000003FF07FE0000000
0000003FF07FE0000000
0000003FF07FE0000000
0000007FE0FFC0000000
0000007FFFF800000000
0000007FFFF800000000
000000FFFFF000000000
000000FFFFF000000000
000000FFFFF000000000
000001FFFFE000000000
000001FFFFE000000000
000001FFFFE000000000
000003FFFFC000000000
000003FFFFC000000000
0000001FFFFFF0000000
0000003FFFFFE0000000
0000003FFFFFE0000000
0000003FFFFFE0000000
0000007FFFFFC0000000
0000007FFFFFC0000000
0000007FFFFFC0000000
000000FFFFFF80000000
000000FFFFFF80000000
000000FFFFFF80000000
00003FFFFC1FF8000000
00003FFFFC1FF8000000
00003FFFFC1FF8000000
00007FFFF83FF0000000
00007FFFF83FF0000000
00007FFFF83FF0000000
0000FFFFF07FE0000000
0000FFFFF07FE0000000
0000FFFFF07FE0000000
0001FFFFD0FFC0000000
003FF0001FF800000000
003FF0001FF800000000
007FE0003FF000000000
007FE0003FF000000000
007FE0003FF000000000
00FFC0007FE000000000
00FFC0007FE000000000
00FFC0007FE000000000
01FF8000FFC000000000
01FF8000FFC000000000
0000001FF80000000000
0000003FF00000000000
0000003FF00000000000
0000003FF00000000000
0000007FE00000000000
0000007FE00000000000
0000007FE00000000000
000000FFC00000000000
000000FFC00000000000
000000FFC00000000000
00003FFFFFE000000000
00003FFFFFE000000000
00003FFFFFE000000000
00007FFFFFC000000000
00007FFFFFC000000000
00007FFFFFC000000000
0000FFFFFF8000000000
0000FFFFFF8000000000
0000FFFFFF8000000000
0001FFFFFF0000000000
ENDCHAR
STARTCHAR U+00BC
ENCODING 188
SWIDTH 1000 0
DWIDTH 45 0
BBX 78 100 -16 -20
BITMAP
00000000000000000000
00000000000000000000
00000000000000000000
00000000000000000000
00000000000000000000
00000000000000000000
00000000000000000000
00000000000000000000
00000000000000000000
00000000000000000000
000000001FF800000000
000000001FF800000000
000000003FF000000000
000000003FF000000000
000000003FF000000000
000000007FE000000000
000000007FE000000000
000000007FE000000000
00000000FFC000000000
00000000FFC000000000
0000001FFFC00FFC0000
0000003FFF801FF80000
0000003FFF801FF80000
0000003FFF801FF80000
0000007FFF003FF00000
0000007FFF003FF00000
0000007FFF003FF00000
000000FFFE007FE00000
000000FFFE007FE00000
000000FFFE007FE00000
0000000FFC1FF8000000
0000000FFC1FF8000000
0000000FFC1FF8000000
0000001FF83FF0000000
0000001FF83FF0000000
0000001FF83FF0000000
0000003FF07FE0000000
0000003FF07FE0000000
0000003FF07FE0000000
0000007FE0FFC0000000
0000007FFFF800000000
0000007FFFF800000000
000000FFFFF000000000
000000FFFFF000000000
000000FFFFF000000000
000001FFFFE000000000
000001FFFFE000000000
000001FFFFE000000000
000003FFFFC000000000
000003FFFFC000000000
0000001FF85FF0000000
0000003FF07FE0000000
0000003FF07FE0000000
0000003FF07FE0000000
0000007FE0FFC0000000
0000007FE0FFC0000000
0000007FE0FFC0000000
000000FFC1FF80000000
000000FFC1FF80000000
000000FFC1FF80000000
00003FF07FFF00000000
00003FF07FFF00000000
00003FF07FFF00000000
00007FE0FFFE00000000
00007FE0FFFE00000000
00007FE0FFFE00000000
0000FFC1FFFC00000000
0000FFC1FFFC00000000
0000FFC1FFFC00000000
0001FF43FFF800000000
003FF07FFFF800000000
003FF07FFFF800000000
007FE0FFFFF000000000
007FE0FFFFF000000000
007FE0FFFFF000000000
00FFC1FFFFE000000000
00FFC1FFFFE000000000
00FFC1FFFFE000000000
01FF83FFFFC000000000
01FF83FFFFC000000000
0000BFFFFFFE00000000
0000FFFFFFFC00000000
0000FFFFFFFC00000000
0000FFFFFFFC00000000
0001FFFFFFF800000000
0001FFFFFFF800000000
0001FFFFFFF800000000
0003FFFFFFF000000000
0003FFFFFFF000000000
0003FFFFFFF000000000
0000000FFC0000000000
0000000FFC0000000000
0000000FFC0000000000
0000001FF80000000000
0000001FF80000000000
0000001FF80000000000
0000003FF00000000000
0000003FF00000000000
0000003FF00000000000
0000007FE00000000000
ENDCHAR
STARTCHAR U+00BB
ENCODING 187
SWIDTH 1000 0
DWIDTH 45 0
BBX 78 100 -16 -20
BITMAP
00000000000000000000
00000000000000000000
00000000000000000000
00000000000000000000
00000000000000000000
00000000000000000000
00000000000000000000
00000000000000000000
00000000000000000000
00000000000000000000
00000003FF07FE000000
00000003FF07FE000000
00000007FE0FFC000000
00000007FE0FFC000000
00000007FE0FFC000000
0000000FFC1FF8000000
0000000FFC1FF8000000
0000000FFC1FF8000000
0000001FF83FF0000000
0000001FF83FF0000000
00000000FFC1FF800000
00000001FF83FF000000
00000001FF83FF000000
00000001FF83FF000000
00000003FF07FE000000
00000003FF07FE000000
00000003FF07FE000000
00000007FE0FFC000000
00000007FE0FFC000000
00000007FE1FFC000000
000000007FE0FFC00000
000000007FE0FFC00000
000000007FE0FFC00000
00000000FFC1FF800000
00000000FFC1FF800000
00000000FFC1FF800000
00000001FF83FF000000
00000001FF83FF000000
00000001FF85FF000000
00000003FF07FE000000
000000001FF83FF00000
000000001FF83FF00000
000000003FF07FE00000
000000003FF07FE00000
000000003FF07FE00000
000000007FE0FFC00000
000000007FE0FFC00000
000000007FE0FFC00000
00000000FFC1FF800000
00000000FFC1FF800000
0000001FF85FF0000000
0000003FF07FE0000000
0000003FF07FE0000000
0000003FF07FE0000000
0000007FE0FFC0000000
0000007FE0FFC0000000
0000007FE0FFC0000000
000000FFC1FF80000000
000000FFC1FF80000000
000000FFC1FF80000000
00003FF07FE000000000
00003FF07FE000000000
00003FF07FE000000000
00007FE0FFC000000000
00007FE0FFC000000000
00007FE0FFC000000000
0000FFC1FF8000000000
0000FFC1FF8000000000
0000FFC1FF8000000000
0001FF43FF0000000000
003FF07FE00000000000
003FF07FE00000000000
007FE0FFC00000000000
007FE0FFC00000000000
007FE0FFC00000000000
00FFC1FF800000000000
00FFC1FF800000000000
00FFC1FF800000000000
01FF83FF000000000000
01FF83FF000000000000
00000000000000000000
00000000000000000000
00000000000000000000
00000000000000000000
00000000000000000000
00000000000000000000
00000000000000000000
00000000000000000000
00000000000000000000
00000000000000000000
00000000000000000000
00000000000000000000
00000000000000000000
00000000000000000000
00000000000000000000
00000000000000000000
00000000000000000000
00000000000000000000
00000000000000000000
00000000000000000000
ENDCHAR
STARTCHAR U+00BA
ENCODING 186
SWIDTH 1000 0
DWIDTH 45 0
BBX 78 100 -16 -20
BITMAP
00000000000000000000
00000000000000000000
00000000000000000000
00000000000000000000
00000000000000000000
00000000000000000000
00000000000000000000
00000000000000000000
00000000000000000000
00000000000000000000
000000001FFFFFFF8000
000000001FFFFFFF8000
000000003FFFFFFF0000
000000003FFFFFFF0000
000000003FFFFFFF0000
000000007FFFFFFE0000
000000007FFFFFFE0000
000000007FFFFFFE0000
00000000FFFFFFFC0000
00000000FFFFFFFC0000
0000001FF800007FE000
0000003FF00000FFC000
0000003FF00000FFC000
0000003FF00000FFC000
0000007FE00001FF8000
0000007FE00001FF8000
0000007FE00001FF8000
000000FFC00003FF0000
000000FFC00003FF0000
000000FFC00003FF0000
000001FF800007FE0000
000001FF800007FE0000
000001FF800007FE0000
000003FF00000FFC0000
000003FF00000FFC0000
000003FF00000FFC0000
000007FE00001FF80000
000007FE00001FF80000
000007FE00001FF80000
00000FFC00003FF00000
00000FFC00003FF00000
00000FFC00003FF00000
00001FF800007FE00000
00001FF800007FE00000
00001FF800007FE00000
00003FF00000FFC00000
00003FF00000FFC00000
00003FF00000FFC00000
00007FE00001FF800000
00007FE00001FF800000
000003FFFFFFF0000000
000007FFFFFFE0000000
000007FFFFFFE0000000
000007FFFFFFE0000000
00000FFFFFFFC0000000
00000FFFFFFFC0000000
00000FFFFFFFC0000000
00001FFFFFFF80000000
00001FFFFFFF80000000
00001FFFFFFF80000000
00000000000000000000
00000000000000000000
00000000000000000000
00000000000000000000
00000000000000000000
00000000000000000000
00000000000000000000
00000000000000000000
00000000000000000000
00000000000000000000
003FFFFFFFFFC0000000
003FFFFFFFFFC0000000
007FFFFFFFFF80000000
007FFFFFFFFF80000000
007FFFFFFFFF80000000
00FFFFFFFFFF00000000
00FFFFFFFFFF00000000
00FFFFFFFFFF00000000
01FFFFFFFFFE00000000
01FFFFFFFFFE00000000
00000000000000000000
00000000000000000000
00000000000000000000
00000000000000000000
00000000000000000000
00000000000000000000
00000000000000000000
00000000000000000000
00000000000000000000
00000000000000000000
00000000000000000000
00000000000000000000
00000000000000000000
00000000000000000000
00000000000000000000
00000000000000000000
00000000000000000000
00000000000000000000
00000000000000000000
00000000000000000000
ENDCHAR
STARTCHAR U+00B9
ENCODING 185
SWIDTH 1000 0
DWIDTH 45 0
BBX 78 100 -16 -20
BITMAP
000000000000FFC00000
000000000000FFC00000
000000000000FFC00000
000000000001FF800000
000000000001FF800000
000000000001FF800000
000000000003FF000000
000000000003FF000000
000000000003FF000000
000000000007FE000000
0000000000FFFE000000
0000000000FFFE000000
0000000001FFFC000000
0000000001FFFC000000
0000000001FFFC000000
0000000003FFF8000000
0000000003FFF8000000
0000000003FFF8000000
0000000007FFF0000000
0000000007FFF0000000
00000000003FF0000000
00000000007FE0000000
00000000007FE0000000
00000000007FE0000000
0000000000FFC0000000
0000000000FFC0000000
0000000000FFC0000000
0000000001FF80000000
0000000001FF80000000
0000000001FF80000000
0000000003FF00000000
0000000003FF00000000
0000000003FF00000000
0000000007FE00000000
0000000007FE00000000
0000000007FE00000000
000000000FFC00000000
000000000FFC00000000
000000000FFC00000000
000000001FF800000000
00000003FFFFC0000000
00000003FFFFC0000000
00000007FFFF80000000
00000007FFFF80000000
00000007FFFF80000000
0000000FFFFF00000000
0000000FFFFF00000000
0000000FFFFF00000000
0000001FFFFE00000000
0000001FFFFE00000000
00000000000000000000
00000000000000000000
00000000000000000000
00000000000000000000
00000000000000000000
00000000000000000000
00000000000000000000
00000000000000000000
00000000000000000000
00000000000000000000
00000000000000000000
00000000000000000000
00000000000000000000
00000000000000000000
00000000000000000000
00000000000000000000
00000000000000000000
00000000000000000000
00000000000000000000
00000000000000000000
00000000000000000000
00000000000000000000
00000000000000000000
00000000000000000000
00000000000000000000
00000000000000000000
00000000000000000000
00000000000000000000
00000000000000000000
00000000000000000000
00000000000000000000
00000000000000000000
00000000000000000000
00000000000000000000
00000000000000000000
00000000000000000000
00000000000000000000
00000000000000000000
00000000000000000000
00000000000000000000
00000000000000000000
00000000000000000000
00000000000000000000
00000000000000000000
00000000000000000000
00000000000000000000
00000000000000000000
00000000000000000000
00000000000000000000
00000000000000000000
ENDCHAR
STARTCHAR U+00B8
ENCODING 184
SWIDTH 1000 0
DWIDTH 45 0
BBX 78 100 -16 -20
BITMAP
00000000000000000000
00000000000000000000
00000000000000000000
00000000000000000000
00000000000000000000
00000000000000000000
00000000000000000000
00000000000000000000
00000000000000000000
00000000000000000000
00000000000000000000
00000000000000000000
00000000000000000000
00000000000000000000
00000000000000000000
00000000000000000000
00000000000000000000
00000000000000000000
00000000000000000000
00000000000000000000
00000000000000000000
00000000000000000000
00000000000000000000
00000000000000000000
00000000000000000000
00000000000000000000
00000000000000000000
00000000000000000000
00000000000000000000
00000000000000000000
00000000000000000000
00000000000000000000
00000000000000000000
00000000000000000000
00000000000000000000
00000000000000000000
00000000000000000000
00000000000000000000
00000000000000000000
00000000000000000000
00000000000000000000
00000000000000000000
00000000000000000000
00000000000000000000
00000000000000000000
00000000000000000000
00000000000000000000
00000000000000000000
00000000000000000000
00000000000000000000
00000000000000000000
00000000000000000000
00000000000000000000
00000000000000000000
00000000000000000000
00000000000000000000
00000000000000000000
00000000000000000000
00000000000000000000
00000000000000000000
00000000000000000000
00000000000000000000
00000000000000000000
00000000000000000000
00000000000000000000
00000000000000000000
00000000000000000000
00000000000000000000
00000000000000000000
00000000000000000000
00000000000000000000
00000000000000000000
00000000000000000000
00000000000000000000
00000000000000000000
00000000000000000000
00000000000000000000
00000000000000000000
00000000000000000000
00000000000000000000
0000001FF80000000000
0000003FF00000000000
0000003FF00000000000
0000003FF00000000000
0000007FE00000000000
0000007FE00000000000
0000007FE00000000000
000000FFC00000000000
000000FFC00000000000
000000FFC00000000000
0007FFFF800000000000
0007FFFF800000000000
0007FFFF800000000000
000FFFFF000000000000
000FFFFF000000000000
000FFFFF000000000000
001FFFFE000000000000
001FFFFE000000000000
001FFFFE000000000000
003FFFFC000000000000
ENDCHAR
STARTCHAR U+2022
ENCODING 8226
SWIDTH 1000 0
DWIDTH 45 0
BBX 78 100 -16 -20
BITMAP
00000000000000000000
00000000000000000000
00000000000000000000
00000000000000000000
00000000000000000000
00000000000000000000
00000000000000000000
00000000000000000000
00000000000000000000
00000000000000000000
00000000000000000000
00000000000000000000
00000000000000000000
00000000000000000000
00000000000000000000
00000000000000000000
00000000000000000000
00000000000000000000
00000000000000000000
00000000000000000000
00000000000000000000
00000000000000000000
00000000000000000000
00000000000000000000
00000000000000000000
00000000000000000000
00000000000000000000
00000000000000000000
00000000000000000000
00000000000000000000
000000007FFF00000000
000000007FFF00000000
000000007FFF00000000
00000000FFFE00000000
00000000FFFE00000000
00000000FFFE00000000
00000001FFFC00000000
00000001FFFC00000000
00000001FFFC00000000
00000003FFF800000000
00000003FFF800000000
00000003FFF800000000
00000007FFF000000000
00000007FFF000000000
00000007FFF000000000
0000000FFFE000000000
0000000FFFE000000000
0000000FFFE000000000
0000001FFFC000000000
0000001FFFC000000000
00000000000000000000
00000000000000000000
00000000000000000000
00000000000000000000
00000000000000000000
00000000000000000000
00000000000000000000
00000000000000000000
00000000000000000000
00000000000000000000
00000000000000000000
00000000000000000000
00000000000000000000
00000000000000000000
00000000000000000000
00000000000000000000
00000000000000000000
00000000000000000000
00000000000000000000
00000000000000000000
00000000000000000000
00000000000000000000
00000000000000000000
00000000000000000000
00000000000000000000
00000000000000000000
00000000000000000000
00000000000000000000
00000000000000000000
00000000000000000000
00000000000000000000
00000000000000000000
00000000000000000000
00000000000000000000
00000000000000000000
00000000000000000000
00000000000000000000
00000000000000000000
00000000000000000000
00000000000000000000
00000000000000000000
00000000000000000000
00000000000000000000
00000000000000000000
00000000000000000000
00000000000000000000
00000000000000000000
00000000000000000000
00000000000000000000
00000000000000000000
ENDCHAR
STARTCHAR U+00B6
ENCODING 182
SWIDTH 1000 0
DWIDTH 45 0
BBX 78 100 -16 -20
BITMAP
00000000000000000000
00000000000000000000
00000000000000000000
00000000000000000000
00000000000000000000
00000000000000000000
00000000000000000000
00000000000000000000
00000000000000000000
00000000000000000000
000000001FFFFFFFFC00
000000001FFFFFFFFC00
000000003FFFFFFFF800
000000003FFFFFFFF800
000000003FFFFFFFF800
000000007FFFFFFFF000
000000007FFFFFFFF000
000000007FFFFFFFF000
00000000FFFFFFFFE000
00000000FFFFFFFFE000
0000001FFFC1FFFFE000
0000003FFF83FFFFC000
0000003FFF83FFFFC000
0000003FFF83FFFFC000
0000007FFF07FFFF8000
0000007FFF07FFFF8000
0000007FFF07FFFF8000
000000FFFE0FFFFF0000
000000FFFE0FFFFF0000
000000FFFE0FFFFF0000
000001FFFC1FFFFE0000
000001FFFC1FFFFE0000
000001FFFC1FFFFE0000
000003FFF83FFFFC0000
000003FFF83FFFFC0000
000003FFF83FFFFC0000
000007FFF07FFFF80000
000007FFF07FFFF80000
000007FFF07FFFF80000
00000FFFE0FFFFF00000
0000007FFFFFFFF00000
0000007FFFFFFFF00000
000000FFFFFFFFE00000
000000FFFFFFFFE00000
000000FFFFFFFFE00000
000001FFFFFFFFC00000
000001FFFFFFFFC00000
000001FFFFFFFFC00000
000003FFFFFFFF800000
000003FFFFFFFF800000
0000000007FFFF800000
000000000FFFFF000000
000000000FFFFF000000
000000000FFFFF000000
000000001FFFFE000000
000000001FFFFE000000
000000001FFFFE000000
000000003FFFFC000000
000000003FFFFC000000
000000003FFFFC000000
000000007FFFF8000000
000000007FFFF8000000
000000007FFFF8000000
00000000FFFFF0000000
00000000FFFFF0000000
00000000FFFFF0000000
00000001FFFFE0000000
00000001FFFFE0000000
00000001FFFFE0000000
00000003FFFFC0000000
00000003FFFFC0000000
00000003FFFFC0000000
00000007FFFF80000000
00000007FFFF80000000
00000007FFFF80000000
0000000FFFFF00000000
0000000FFFFF00000000
0000000FFFFF00000000
0000001FFFFE00000000
0000001FFFFE00000000
00000000000000000000
00000000000000000000
00000000000000000000
00000000000000000000
00000000000000000000
00000000000000000000
00000000000000000000
00000000000000000000
00000000000000000000
00000000000000000000
00000000000000000000
00000000000000000000
00000000000000000000
00000000000000000000
00000000000000000000
00000000000000000000
00000000000000000000
00000000000000000000
00000000000000000000
00000000000000000000
ENDCHAR
STARTCHAR U+00B5
ENCODING 181
SWIDTH 1000 0
DWIDTH 45 0
BBX 78 100 -16 -20
BITMAP
00000000000000000000
00000000000000000000
00000000000000000000
00000000000000000000
00000000000000000000
00000000000000000000
00000000000000000000
00000000000000000000
00000000000000000000
00000000000000000000
00000000000000000000
00000000000000000000
00000000000000000000
00000000000000000000
00000000000000000000
00000000000000000000
00000000000000000000
00000000000000000000
00000000000000000000
00000000000000000000
00000000000000000000
00000000000000000000
00000000000000000000
00000000000000000000
00000000000000000000
00000000000000000000
00000000000000000000
00000000000000000000
00000000000000000000
00000000000000000000
0000000FFC0007FE0000
0000000FFC0007FE0000
0000000FFC0007FE0000
0000001FF8000FFC0000
0000001FF8000FFC0000
0000001FF8000FFC0000
0000003FF0001FF80000
0000003FF0001FF80000
0000003FF0001FF80000
0000007FE0003FF00000
0000007FE0003FF00000
0000007FE0003FF00000
000000FFC0007FE00000
000000FFC0007FE00000
000000FFC0007FE00000
000001FF8000FFC00000
000001FF8000FFC00000
000001FF8000FFC00000
000003FF0001FF800000
000003FF0001FF800000
000003FF0001FF800000
000007FE0003FF000000
000007FE0003FF000000
000007FE0003FF000000
00000FFC0007FE000000
00000FFC0007FE000000
00000FFC0007FE000000
00001FF8000FFC000000
00001FF8000FFC000000
00001FF8000FFC000000
00003FFF83FFF8000000
00003FFF83FFF8000000
00003FFF83FFF8000000
00007FFF07FFF0000000
00007FFF07FFF0000000
00007FFF07FFF0000000
0000FFFE0FFFE0000000
0000FFFE0FFFE0000000
0000FFFE0FFFE0000000
0001FFFC1FFFC0000000
0001FFFFFFFFC0000000
0001FFFFFFFFC0000000
0003FFFFFFFF80000000
0003FFFFFFFF80000000
0003FFFFFFFF80000000
0007FFFFFFFF00000000
0007FFFFFFFF00000000
0007FFFFFFFF00000000
000FFFFFFFFE00000000
000FFFFFFFFE00000000
000FFC00000000000000
001FF800000000000000
001FF800000000000000
001FF800000000000000
003FF000000000000000
003FF000000000000000
003FF000000000000000
007FE000000000000000
007FE000000000000000
007FE000000000000000
1FF80000000000000000
1FF80000000000000000
1FF80000000000000000
3FF00000000000000000
3FF00000000000000000
3FF00000000000000000
7FE00000000000000000
7FE00000000000000000
7FE00000000000000000
FFC00000000000000000
ENDCHAR
STARTCHAR U+00B4
ENCODING 180
SWIDTH 1000 0
DWIDTH 45 0
BBX 78 100 -16 -20
BITMAP
00000000000000000000
00000000000000000000
00000000000000000000
00000000000000000000
00000000000000000000
00000000000000000000
00000000000000000000
00000000000000000000
00000000000000000000
00000000000000000000
0000000000003FFF8000
0000000000003FFF8000
0000000000007FFF0000
0000000000007FFF0000
0000000000007FFF0000
000000000000FFFE0000
000000000000FFFE0000
000000000000FFFE0000
000000000001FFFC0000
000000000001FFFC0000
000000000001FF800000
000000000003FF000000
000000000003FF000000
000000000003FF000000
000000000007FE000000
000000000007FE000000
000000000007FE000000
00000000000FFC000000
00000000000FFC000000
00000000000FFC000000
0000000003FF00000000
0000000003FF00000000
0000000003FF00000000
0000000007FE00000000
0000000007FE00000000
0000000007FE00000000
000000000FFC00000000
000000000FFC00000000
000000000FFC00000000
000000001FF800000000
00000000000000000000
00000000000000000000
00000000000000000000
00000000000000000000
00000000000000000000
00000000000000000000
00000000000000000000
00000000000000000000
00000000000000000000
00000000000000000000
00000000000000000000
00000000000000000000
00000000000000000000
00000000000000000000
00000000000000000000
00000000000000000000
00000000000000000000
00000000000000000000
00000000000000000000
00000000000000000000
00000000000000000000
00000000000000000000
00000000000000000000
00000000000000000000
00000000000000000000
00000000000000000000
00000000000000000000
00000000000000000000
00000000000000000000
00000000000000000000
00000000000000000000
00000000000000000000
00000000000000000000
00000000000000000000
00000000000000000000
00000000000000000000
00000000000000000000
00000000000000000000
00000000000000000000
00000000000000000000
00000000000000000000
00000000000000000000
00000000000000000000
00000000000000000000
00000000000000000000
00000000000000000000
00000000000000000000
00000000000000000000
00000000000000000000
00000000000000000000
00000000000000000000
00000000000000000000
00000000000000000000
00000000000000000000
00000000000000000000
00000000000000000000
00000000000000000000
00000000000000000000
00000000000000000000
00000000000000000000
ENDCHAR
STARTCHAR U+00B3
ENCODING 179
SWIDTH 1000 0
DWIDTH 45 0
BBX 78 100 -16 -20
BITMAP
0000000003FFFFFFF000
0000000003FFFFFFF000
0000000003FFFFFFF000
0000000007FFFFFFE000
0000000007FFFFFFE000
0000000007FFFFFFE000
000000000FFFFFFFC000
000000000FFFFFFFC000
000000000FFFFFFFC000
000000001FFFFFFF8000
00000000000001FF8000
00000000000001FF8000
00000000000003FF0000
00000000000003FF0000
00000000000003FF0000
00000000000007FE0000
00000000000007FE0000
00000000000007FE0000
0000000000000FFC0000
0000000000000FFC0000
00000000003FFF800000
00000000007FFF000000
00000000007FFF000000
00000000007FFF000000
0000000000FFFE000000
0000000000FFFE000000
0000000000FFFE000000
0000000001FFFC000000
0000000001FFFC000000
0000000001FFFC000000
000000000000FFC00000
000000000000FFC00000
000000000000FFC00000
000000000001FF800000
000000000001FF800000
000000000001FF800000
000000000003FF000000
000000000003FF000000
000000000003FF000000
000000000007FE000000
0000007FFFFFC0000000
0000007FFFFFC0000000
000000FFFFFF80000000
000000FFFFFF80000000
000000FFFFFF80000000
000001FFFFFF00000000
000001FFFFFF00000000
000001FFFFFF00000000
000003FFFFFE00000000
000003FFFFFE00000000
00000000000000000000
00000000000000000000
00000000000000000000
00000000000000000000
00000000000000000000
00000000000000000000
00000000000000000000
00000000000000000000
00000000000000000000
00000000000000000000
00000000000000000000
00000000000000000000
00000000000000000000
00000000000000000000
00000000000000000000
00000000000000000000
00000000000000000000
00000000000000000000
00000000000000000000
00000000000000000000
00000000000000000000
00000000000000000000
00000000000000000000
00000000000000000000
00000000000000000000
00000000000000000000
00000000000000000000
00000000000000000000
00000000000000000000
00000000000000000000
00000000000000000000
00000000000000000000
00000000000000000000
00000000000000000000
00000000000000000000
00000000000000000000
00000000000000000000
00000000000000000000
00000000000000000000
00000000000000000000
00000000000000000000
00000000000000000000
00000000000000000000
00000000000000000000
00000000000000000000
00000000000000000000
00000000000000000000
00000000000000000000
00000000000000000000
00000000000000000000
ENDCHAR
STARTCHAR U+00B2
ENCODING 178
SWIDTH 1000 0
DWIDTH 45 0
BBX 78 100 -16 -20
BITMAP
00000000001FFFFE0000
00000000001FFFFE0000
00000000001FFFFE0000
00000000003FFFFC0000
00000000003FFFFC0000
00000000003FFFFC0000
00000000007FFFF80000
00000000007FFFF80000
00000000007FFFF80000
0000000000FFFFF00000
000000001FF801FF8000
000000001FF801FF8000
000000003FF003FF0000
000000003FF003FF0000
000000003FF003FF0000
000000007FE007FE0000
000000007FE007FE0000
000000007FE007FE0000
00000000FFC00FFC0000
00000000FFC00FFC0000
00000000005FFF800000
00000000007FFF000000
00000000007FFF000000
00000000007FFF000000
0000000000FFFE000000
0000000000FFFE000000
0000000000FFFE000000
0000000001FFFC000000
0000000001FFFC000000
0000000001FFFC000000
000000007FE000000000
000000007FE000000000
000000007FE000000000
00000000FFC000000000
00000000FFC000000000
00000000FFC000000000
00000001FF8000000000
00000001FF8000000000
00000001FF8000000000
00000003FF0000000000
0000007FFFFFFE000000
0000007FFFFFFE000000
000000FFFFFFFC000000
000000FFFFFFFC000000
000000FFFFFFFC000000
000001FFFFFFF8000000
000001FFFFFFF8000000
000001FFFFFFF8000000
000003FFFFFFF0000000
000003FFFFFFF0000000
00000000000000000000
00000000000000000000
00000000000000000000
00000000000000000000
00000000000000000000
00000000000000000000
00000000000000000000
00000000000000000000
00000000000000000000
00000000000000000000
00000000000000000000
00000000000000000000
00000000000000000000
00000000000000000000
00000000000000000000
00000000000000000000
00000000000000000000
00000000000000000000
00000000000000000000
00000000000000000000
00000000000000000000
00000000000000000000
00000000000000000000
00000000000000000000
00000000000000000000
00000000000000000000
00000000000000000000
00000000000000000000
00000000000000000000
00000000000000000000
00000000000000000000
00000000000000000000
00000000000000000000
00000000000000000000
00000000000000000000
00000000000000000000
00000000000000000000
00000000000000000000
00000000000000000000
00000000000000000000
00000000000000000000
00000000000000000000
00000000000000000000
00000000000000000000
00000000000000000000
00000000000000000000
00000000000000000000
00000000000000000000
00000000000000000000
00000000000000000000
ENDCHAR
STARTCHAR U+00AF
ENCODING 175
SWIDTH 1000 0
DWIDTH 45 0
BBX 78 100 -16 -20
BITMAP
0000000003FFFFFFF000
0000000003FFFFFFF000
0000000003FFFFFFF000
0000000007FFFFFFE000
0000000007FFFFFFE000
0000000007FFFFFFE000
000000000FFFFFFFC000
000000000FFFFFFFC000
000000000FFFFFFFC000
000000001FFFFFFF8000
00000000000000000000
00000000000000000000
00000000000000000000
00000000000000000000
00000000000000000000
00000000000000000000
00000000000000000000
00000000000000000000
00000000000000000000
00000000000000000000
00000000000000000000
00000000000000000000
00000000000000000000
00000000000000000000
00000000000000000000
00000000000000000000
00000000000000000000
00000000000000000000
00000000000000000000
00000000000000000000
00000000000000000000
00000000000000000000
00000000000000000000
00000000000000000000
00000000000000000000
00000000000000000000
00000000000000000000
00000000000000000000
00000000000000000000
00000000000000000000
00000000000000000000
00000000000000000000
00000000000000000000
00000000000000000000
00000000000000000000
00000000000000000000
00000000000000000000
00000000000000000000
00000000000000000000
00000000000000000000
00000000000000000000
00000000000000000000
00000000000000000000
00000000000000000000
00000000000000000000
00000000000000000000
00000000000000000000
00000000000000000000
00000000000000000000
00000000000000000000
00000000000000000000
00000000000000000000
00000000000000000000
00000000000000000000
00000000000000000000
00000000000000000000
00000000000000000000
00000000000000000000
00000000000000000000
00000000000000000000
00000000000000000000
00000000000000000000
00000000000000000000
00000000000000000000
00000000000000000000
00000000000000000000
00000000000000000000
00000000000000000000
00000000000000000000
00000000000000000000
00000000000000000000
00000000000000000000
00000000000000000000
00000000000000000000
00000000000000000000
00000000000000000000
00000000000000000000
00000000000000000000
00000000000000000000
00000000000000000000
00000000000000000000
00000000000000000000
00000000000000000000
00000000000000000000
00000000000000000000
00000000000000000000
00000000000000000000
00000000000000000000
00000000000000000000
00000000000000000000
ENDCHAR
STARTCHAR U+00AE
ENCODING 174
SWIDTH 1000 0
DWIDTH 45 0
BBX 78 100 -16 -20
BITMAP
00000000000000000000
00000000000000000000
00000000000000000000
00000000000000000000
00000000000000000000
00000000000000000000
00000000000000000000
00000000000000000000
00000000000000000000
00000000000000000000
0000000000FFFFF00000
0000000000FFFFF00000
0000000001FFFFE00000
0000000001FFFFE00000
0000000001FFFFE00000
0000000003FFFFC00000
0000000003FFFFC00000
0000000003FFFFC00000
0000000007FFFF800000
0000000007FFFF800000
00000000FFC00FFC0000
00000001FF801FF80000
00000001FF801FF80000
00000001FF801FF80000
00000003FF003FF00000
00000003FF003FF00000
00000003FF003FF00000
00000007FE007FE00000
00000007FE007FE00000
00000007FE007FE00000
000001FFFFFFFFFE0000
000001FFFFFFFFFE0000
000001FFFFFFFFFE0000
000003FFFFFFFFFC0000
000003FFFFFFFFFC0000
000003FFFFFFFFFC0000
000007FFFFFFFFF80000
000007FFFFFFFFF80000
000007FFFFFFFFF80000
00000FFFFFFFFFF00000
00000FFFFF07FFF00000
00000FFFFF07FFF00000
00001FFFFE0FFFE00000
00001FFFFE0FFFE00000
00001FFFFE0FFFE00000
00003FFFFC1FFFC00000
00003FFFFC1FFFC00000
00003FFFFC1FFFC00000
00007FFFF83FFF800000
00007FFFF83FFF800000
00007FFFFFFFFF800000
0000FFFFFFFFFF000000
0000FFFFFFFFFF000000
0000FFFFFFFFFF000000
0001FFFFFFFFFE000000
0001FFFFFFFFFE000000
0001FFFFFFFFFE000000
0003FFFFFFFFFC000000
0003FFFFFFFFFC000000
0003FFFFFFFFFC000000
0007FFFFFC1FF8000000
0007FFFFFC1FF8000000
0007FFFFFC1FF8000000
000FFFFFF83FF0000000
000FFFFFF83FF0000000
000FFFFFF83FF0000000
001FFFFFF07FE0000000
001FFFFFF07FE0000000
001FFFFFF07FE0000000
003FFFFFE0FFC0000000
0001FFFFFFF800000000
0001FFFFFFF800000000
0003FFFFFFF000000000
0003FFFFFFF000000000
0003FFFFFFF000000000
0007FFFFFFE000000000
0007FFFFFFE000000000
0007FFFFFFE000000000
000FFFFFFFC000000000
000FFFFFFFC000000000
00007FFFF80000000000
0000FFFFF00000000000
0000FFFFF00000000000
0000FFFFF00000000000
0001FFFFE00000000000
0001FFFFE00000000000
0001FFFFE00000000000
0003FFFFC00000000000
0003FFFFC00000000000
0003FFFFC00000000000
00000000000000000000
00000000000000000000
00000000000000000000
00000000000000000000
00000000000000000000
00000000000000000000
00000000000000000000
00000000000000000000
00000000000000000000
00000000000000000000
ENDCHAR
STARTCHAR U+00D7
ENCODING 215
SWIDTH 1000 0
DWIDTH 45 0
BBX 78 100 -16 -20
BITMAP
00000000000000000000
00000000000000000000
00000000000000000000
00000000000000000000
00000000000000000000
00000000000000000000
00000000000000000000
00000000000000000000
00000000000000000000
00000000000000000000
00000000000000000000
00000000000000000000
00000000000000000000
00000000000000000000
00000000000000000000
00000000000000000000
00000000000000000000
00000000000000000000
00000000000000000000
00000000000000000000
00000000FFC00FFC0000
00000001FF801FF80000
00000001FF801FF80000
00000001FF801FF80000
00000003FF003FF00000
00000003FF003FF00000
00000003FF003FF00000
00000007FE007FE00000
00000007FE007FE00000
00000007FE007FE00000
000000007FFFF8000000
000000007FFFF8000000
000000007FFFF8000000
00000000FFFFF0000000
00000000FFFFF0000000
00000000FFFFF0000000
00000001FFFFE0000000
00000001FFFFE0000000
00000001FFFFE0000000
00000003FFFFC0000000
000000001FF800000000
000000001FF800000000
000000003FF000000000
000000003FF000000000
000000003FF000000000
000000007FE000000000
000000007FE000000000
000000007FE000000000
00000000FFC000000000
00000000FFC000000000
0000001FFFFE00000000
0000003FFFFC00000000
0000003FFFFC00000000
0000003FFFFC00000000
0000007FFFF800000000
0000007FFFF800000000
0000007FFFF800000000
000000FFFFF000000000
000000FFFFF000000000
000000FFFFF000000000
00003FF003FF00000000
00003FF003FF00000000
00003FF003FF00000000
00007FE007FE00000000
00007FE007FE00000000
00007FE007FE00000000
0000FFC00FFC00000000
0000FFC00FFC00000000
0000FFC00FFC00000000
0001FF801FF800000000
00000000000000000000
00000000000000000000
00000000000000000000
00000000000000000000
00000000000000000000
00000000000000000000
00000000000000000000
00000000000000000000
00000000000000000000
00000000000000000000
00000000000000000000
00000000000000000000
00000000000000000000
00000000000000000000
00000000000000000000
00000000000000000000
00000000000000000000
00000000000000000000
00000000000000000000
00000000000000000000
00000000000000000000
00000000000000000000
00000000000000000000
00000000000000000000
00000000000000000000
00000000000000000000
00000000000000000000
00000000000000000000
00000000000000000000
00000000000000000000
ENDCHAR
STARTCHAR U+00AC
ENCODING 172
SWIDTH 1000 0
DWIDTH 45 0
BBX 78 100 -16 -20
BITMAP
00000000000000000000
00000000000000000000
00000000000000000000
00000000000000000000
00000000000000000000
00000000000000000000
00000000000000000000
00000000000000000000
00000000000000000000
00000000000000000000
00000000000000000000
00000000000000000000
00000000000000000000
00000000000000000000
00000000000000000000
00000000000000000000
00000000000000000000
00000000000000000000
00000000000000000000
00000000000000000000
00000000000000000000
00000000000000000000
00000000000000000000
00000000000000000000
00000000000000000000
00000000000000000000
00000000000000000000
00000000000000000000
00000000000000000000
00000000000000000000
00000000000000000000
00000000000000000000
00000000000000000000
00000000000000000000
00000000000000000000
00000000000000000000
00000000000000000000
00000000000000000000
00000000000000000000
00000000000000000000
00000000000000000000
00000000000000000000
00000000000000000000
00000000000000000000
00000000000000000000
00000000000000000000
00000000000000000000
00000000000000000000
00000000000000000000
00000000000000000000
00007FFFFFFFFF800000
0000FFFFFFFFFF000000
0000FFFFFFFFFF000000
0000FFFFFFFFFF000000
0001FFFFFFFFFE000000
0001FFFFFFFFFE000000
0001FFFFFFFFFE000000
0003FFFFFFFFFC000000
0003FFFFFFFFFC000000
0003FFFFFFFFFC000000
00000000001FF8000000
00000000001FF8000000
00000000001FF8000000
00000000003FF0000000
00000000003FF0000000
00000000003FF0000000
00000000007FE0000000
00000000007FE0000000
00000000007FE0000000
0000000000FFC0000000
0000000000FFC0000000
0000000000FFC0000000
0000000001FF80000000
0000000001FF80000000
0000000001FF80000000
0000000003FF00000000
0000000003FF00000000
0000000003FF00000000
0000000007FE00000000
0000000007FE00000000
00000000000000000000
00000000000000000000
00000000000000000000
00000000000000000000
00000000000000000000
00000000000000000000
00000000000000000000
00000000000000000000
00000000000000000000
00000000000000000000
00000000000000000000
00000000000000000000
00000000000000000000
00000000000000000000
00000000000000000000
00000000000000000000
00000000000000000000
00000000000000000000
00000000000000000000
00000000000000000000
ENDCHAR
STARTCHAR U+00AB
ENCODING 171
SWIDTH 1000 0
DWIDTH 45 0
BBX 78 100 -16 -20
BITMAP
00000000000000000000
00000000000000000000
00000000000000000000
00000000000000000000
00000000000000000000
00000000000000000000
00000000000000000000
00000000000000000000
00000000000000000000
00000000000000000000
000000000007FE0FFC00
000000000007FE0FFC00
00000000000FFC1FF800
00000000000FFC1FF800
00000000000FFC1FF800
00000000001FF83FF000
00000000001FF83FF000
00000000001FF83FF000
00000000003FF07FE000
00000000003FF07FE000
0000000007FE17FC0000
000000000FFC1FF80000
000000000FFC1FF80000
000000000FFC1FF80000
000000001FF83FF00000
000000001FF83FF00000
000000001FF83FF00000
000000003FF07FE00000
000000003FF07FE00000
000000003FF07FE00000
0000000FFC1FF8000000
0000000FFC1FF8000000
0000000FFC1FF8000000
0000001FF83FF0000000
0000001FF83FF0000000
0000001FF83FF0000000
0000003FF07FE0000000
0000003FF07FE0000000
0000003FF07FE0000000
0000007FD0FFC0000000
00000FFC1FF800000000
00000FFC1FF800000000
00001FF83FF000000000
00001FF83FF000000000
00001FF83FF000000000
00003FF07FE000000000
00003FF07FE000000000
00003FF07FE000000000
00007FE0FFC000000000
00007FE0FFC000000000
000003FF07FE00000000
000007FE0FFC00000000
000007FE0FFC00000000
000007FE0FFC00000000
00000FFC1FF800000000
00000FFC1FF800000000
00000FFC1FF800000000
00001FF83FF000000000
00001FF83FF000000000
00001FF87FF000000000
000001FF83FF00000000
000001FF83FF00000000
000001FF83FF00000000
000003FF07FE00000000
000003FF07FE00000000
000003FF07FE00000000
000007FE0FFC00000000
000007FE0FFC00000000
000007FE17FC00000000
00000FFC1FF800000000
0000007FE0FFC0000000
0000007FE0FFC0000000
000000FFC1FF80000000
000000FFC1FF80000000
000000FFC1FF80000000
000001FF83FF00000000
000001FF83FF00000000
000001FF83FF00000000
000003FF07FE00000000
000003FF07FE00000000
00000000000000000000
00000000000000000000
00000000000000000000
00000000000000000000
00000000000000000000
00000000000000000000
00000000000000000000
00000000000000000000
00000000000000000000
00000000000000000000
00000000000000000000
00000000000000000000
00000000000000000000
00000000000000000000
00000000000000000000
00000000000000000000
00000000000000000000
00000000000000000000
00000000000000000000
00000000000000000000
ENDCHAR
STARTCHAR U+00AA
ENCODING 170
SWIDTH 1000 0
DWIDTH 45 0
BBX 78 100 -16 -20
BITMAP
00000000000000000000
00000000000000000000
00000000000000000000
00000000000000000000
00000000000000000000
00000000000000000000
00000000000000000000
00000000000000000000
00000000000000000000
00000000000000000000
000000001FFFFFFF8000
000000001FFFFFFF8000
000000003FFFFFFF0000
000000003FFFFFFF0000
000000003FFFFFFF0000
000000007FFFFFFE0000
000000007FFFFFFE0000
000000007FFFFFFE0000
00000000FFFFFFFC0000
00000000FFFFFFFC0000
000000000000007FE000
00000000000000FFC000
00000000000000FFC000
00000000000000FFC000
00000000000001FF8000
00000000000001FF8000
00000000000001FF8000
00000000000003FF0000
00000000000003FF0000
00000000000003FF0000
0000000FFFFFFFFE0000
0000000FFFFFFFFE0000
0000000FFFFFFFFE0000
0000001FFFFFFFFC0000
0000001FFFFFFFFC0000
0000001FFFFFFFFC0000
0000003FFFFFFFF80000
0000003FFFFFFFF80000
0000003FFFFFFFF80000
0000007FFFFFFFF00000
00000FFC0007FFF00000
00000FFC0007FFF00000
00001FF8000FFFE00000
00001FF8000FFFE00000
00001FF8000FFFE00000
00003FF0001FFFC00000
00003FF0001FFFC00000
00003FF0001FFFC00000
00007FE0003FFF800000
00007FE0003FFF800000
000003FFFFFFFF800000
000007FFFFFFFF000000
000007FFFFFFFF000000
000007FFFFFFFF000000
00000FFFFFFFFE000000
00000FFFFFFFFE000000
00000FFFFFFFFE000000
00001FFFFFFFFC000000
00001FFFFFFFFC000000
00001FFFFFFFFC000000
00000000000000000000
00000000000000000000
00000000000000000000
00000000000000000000
00000000000000000000
00000000000000000000
00000000000000000000
00000000000000000000
00000000000000000000
00000000000000000000
003FFFFFFFFFC0000000
003FFFFFFFFFC0000000
007FFFFFFFFF80000000
007FFFFFFFFF80000000
007FFFFFFFFF80000000
00FFFFFFFFFF00000000
00FFFFFFFFFF00000000
00FFFFFFFFFF00000000
01FFFFFFFFFE00000000
01FFFFFFFFFE00000000
00000000000000000000
00000000000000000000
00000000000000000000
00000000000000000000
00000000000000000000
00000000000000000000
00000000000000000000
00000000000000000000
00000000000000000000
00000000000000000000
00000000000000000000
00000000000000000000
00000000000000000000
00000000000000000000
00000000000000000000
00000000000000000000
00000000000000000000
00000000000000000000
00000000000000000000
00000000000000000000
ENDCHAR
STARTCHAR U+00A9
ENCODING 169
SWIDTH 1000 0
DWIDTH 45 0
BBX 78 100 -16 -20
BITMAP
00000000000000000000
00000000000000000000
00000000000000000000
00000000000000000000
00000000000000000000
00000000000000000000
00000000000000000000
00000000000000000000
00000000000000000000
00000000000000000000
0000000000FFFFF00000
0000000000FFFFF00000
0000000001FFFFE00000
0000000001FFFFE00000
0000000001FFFFE00000
0000000003FFFFC00000
0000000003FFFFC00000
0000000003FFFFC00000
0000000007FFFF800000
0000000007FFFF800000
00000000FFC00FFC0000
00000001FF801FF80000
00000001FF801FF80000
00000001FF801FF80000
00000003FF003FF00000
00000003FF003FF00000
00000003FF003FF00000
00000007FE007FE00000
00000007FE007FE00000
00000007FE007FE00000
000001FF83FFFFFE0000
000001FF83FFFFFE0000
000001FF83FFFFFE0000
000003FF07FFFFFC0000
000003FF07FFFFFC0000
000003FF07FFFFFC0000
000007FE0FFFFFF80000
000007FE0FFFFFF80000
000007FE0FFFFFF80000
00000FFC1FFFFFF00000
00000FFFFF003FF00000
00000FFFFF003FF00000
00001FFFFE007FE00000
00001FFFFE007FE00000
00001FFFFE007FE00000
00003FFFFC00FFC00000
00003FFFFC00FFC00000
00003FFFFC00FFC00000
00007FFFF801FF800000
00007FFFF801FF800000
00007FFFF801FF800000
0000FFFFF003FF000000
0000FFFFF003FF000000
0000FFFFF003FF000000
0001FFFFE007FE000000
0001FFFFE007FE000000
0001FFFFE007FE000000
0003FFFFC00FFC000000
0003FFFFC00FFC000000
0003FFFFC00FFC000000
0007FE0FFFFFF8000000
0007FE0FFFFFF8000000
0007FE0FFFFFF8000000
000FFC1FFFFFF0000000
000FFC1FFFFFF0000000
000FFC1FFFFFF0000000
001FF83FFFFFE0000000
001FF83FFFFFE0000000
001FF85FFFFFE0000000
003FF07FFFFFC0000000
0001FF801FF800000000
0001FF801FF800000000
0003FF003FF000000000
0003FF003FF000000000
0003FF003FF000000000
0007FE007FE000000000
0007FE007FE000000000
0007FE007FE000000000
000FFC00FFC000000000
000FFC00FFC000000000
00007FFFF80000000000
0000FFFFF00000000000
0000FFFFF00000000000
0000FFFFF00000000000
0001FFFFE00000000000
0001FFFFE00000000000
0001FFFFE00000000000
0003FFFFC00000000000
0003FFFFC00000000000
0003FFFFC00000000000
00000000000000000000
00000000000000000000
00000000000000000000
00000000000000000000
00000000000000000000
00000000000000000000
00000000000000000000
00000000000000000000
00000000000000000000
00000000000000000000
ENDCHAR
STARTCHAR U+00A4
ENCODING 164
SWIDTH 1000 0
DWIDTH 45 0
BBX 78 100 -16 -20
BITMAP
00000000000000000000
00000000000000000000
00000000000000000000
00000000000000000000
00000000000000000000
00000000000000000000
00000000000000000000
00000000000000000000
00000000000000000000
00000000000000000000
00000000000000000000
00000000000000000000
00000000000000000000
00000000000000000000
00000000000000000000
00000000000000000000
00000000000000000000
00000000000000000000
00000000000000000000
00000000000000000000
0000001FF800007FE000
0000003FF00000FFC000
0000003FF00000FFC000
0000003FF00000FFC000
0000007FE00001FF8000
0000007FE00001FF8000
0000007FE00001FF8000
000000FFC00003FF0000
000000FFC00003FF0000
000000FFC00003FF0000
0000000FFFFFFFC00000
0000000FFFFFFFC00000
0000000FFFFFFFC00000
0000001FFFFFFF800000
0000001FFFFFFF800000
0000001FFFFFFF800000
0000003FFFFFFF000000
0000003FFFFFFF000000
0000003FFFFFFF000000
0000007FFFFFFE000000
0000007FE007FE000000
0000007FE007FE000000
000000FFC00FFC000000
000000FFC00FFC000000
000000FFC00FFC000000
000001FF801FF8000000
000001FF801FF8000000
000001FF801FF8000000
000003FF003FF0000000
000003FF003FF0000000
000003FFFFFFF0000000
000007FFFFFFE0000000
000007FFFFFFE0000000
000007FFFFFFE0000000
00000FFFFFFFC0000000
00000FFFFFFFC0000000
00000FFFFFFFC0000000
00001FFFFFFF80000000
00001FFFFFFF80000000
00001FFFFFFF80000000
0007FE00001FF8000000
0007FE00001FF8000000
0007FE00001FF8000000
000FFC00003FF0000000
000FFC00003FF0000000
000FFC00003FF0000000
001FF800007FE0000000
001FF800007FE0000000
001FF800007FE0000000
003FF00000FFC0000000
00000000000000000000
00000000000000000000
00000000000000000000
00000000000000000000
00000000000000000000
00000000000000000000
00000000000000000000
00000000000000000000
00000000000000000000
00000000000000000000
00000000000000000000
00000000000000000000
00000000000000000000
00000000000000000000
00000000000000000000
00000000000000000000
00000000000000000000
00000000000000000000
00000000000000000000
00000000000000000000
00000000000000000000
00000000000000000000
00000000000000000000
00000000000000000000
00000000000000000000
00000000000000000000
00000000000000000000
00000000000000000000
00000000000000000000
00000000000000000000
ENDCHAR
STARTCHAR U+00A7
ENCODING 167
SWIDTH 1000 0
DWIDTH 45 0
BBX 78 100 -16 -20
BITMAP
00000000000000000000
00000000000000000000
00000000000000000000
00000000000000000000
00000000000000000000
00000000000000000000
00000000000000000000
00000000000000000000
00000000000000000000
00000000000000000000
0000000000FFFFFF8000
0000000000FFFFFF8000
0000000001FFFFFF0000
0000000001FFFFFF0000
0000000001FFFFFF0000
0000000003FFFFFE0000
0000000003FFFFFE0000
0000000003FFFFFE0000
0000000007FFFFFC0000
0000000007FFFFFC0000
00000000FFC000000000
00000001FF8000000000
00000001FF8000000000
00000001FF8000000000
00000003FF0000000000
00000003FF0000000000
00000003FF0000000000
00000007FE0000000000
00000007FE0000000000
00000007FE0000000000
000000007FFFF8000000
000000007FFFF8000000
000000007FFFF8000000
00000000FFFFF0000000
00000000FFFFF0000000
00000000FFFFF0000000
00000001FFFFE0000000
00000001FFFFE0000000
00000001FFFFE0000000
00000003FFFFC0000000
0000007FE007FE000000
0000007FE007FE000000
000000FFC00FFC000000
000000FFC00FFC000000
000000FFC00FFC000000
000001FF801FF8000000
000001FF801FF8000000
000001FF801FF8000000
000003FF003FF0000000
000003FF003FF0000000
0000001FFFFE00000000
0000003FFFFC00000000
0000003FFFFC00000000
0000003FFFFC00000000
0000007FFFF800000000
0000007FFFF800000000
0000007FFFF800000000
000000FFFFF000000000
000000FFFFF000000000
000000FFFFF000000000
0000000003FF00000000
0000000003FF00000000
0000000003FF00000000
0000000007FE00000000
0000000007FE00000000
0000000007FE00000000
000000000FFC00000000
000000000FFC00000000
000000000FFC00000000
000000001FF800000000
0001FFFFFF0000000000
0001FFFFFF0000000000
0003FFFFFE0000000000
0003FFFFFE0000000000
0003FFFFFE0000000000
0007FFFFFC0000000000
0007FFFFFC0000000000
0007FFFFFC0000000000
000FFFFFF80000000000
000FFFFFF80000000000
00000000000000000000
00000000000000000000
00000000000000000000
00000000000000000000
00000000000000000000
00000000000000000000
00000000000000000000
00000000000000000000
00000000000000000000
00000000000000000000
00000000000000000000
00000000000000000000
00000000000000000000
00000000000000000000
00000000000000000000
00000000000000000000
00000000000000000000
00000000000000000000
00000000000000000000
00000000000000000000
ENDCHAR
STARTCHAR U+00A6
ENCODING 166
SWIDTH 1000 0
DWIDTH 45 0
BBX 78 100 -16 -20
BITMAP
00000000000000000000
00000000000000000000
00000000000000000000
00000000000000000000
00000000000000000000
00000000000000000000
00000000000000000000
00000000000000000000
00000000000000000000
00000000000000000000
000000000007FE000000
000000000007FE000000
00000000000FFC000000
00000000000FFC000000
00000000000FFC000000
00000000001FF8000000
00000000001FF8000000
00000000001FF8000000
00000000003FF0000000
00000000003FF0000000
00000000003FF0000000
00000000007FE0000000
00000000007FE0000000
00000000007FE0000000
0000000000FFC0000000
0000000000FFC0000000
0000000000FFC0000000
0000000001FF80000000
0000000001FF80000000
0000000001FF80000000
0000000003FF00000000
0000000003FF00000000
0000000003FF00000000
0000000007FE00000000
0000000007FE00000000
0000000007FE00000000
000000000FFC00000000
000000000FFC00000000
000000000FFC00000000
000000001FF800000000
00000000000000000000
00000000000000000000
00000000000000000000
00000000000000000000
00000000000000000000
00000000000000000000
00000000000000000000
00000000000000000000
00000000000000000000
00000000000000000000
00000000FFC000000000
00000001FF8000000000
00000001FF8000000000
00000001FF8000000000
00000003FF0000000000
00000003FF0000000000
00000003FF0000000000
00000007FE0000000000
00000007FE0000000000
00000007FE0000000000
0000000FFC0000000000
0000000FFC0000000000
0000000FFC0000000000
0000001FF80000000000
0000001FF80000000000
0000001FF80000000000
0000003FF00000000000
0000003FF00000000000
0000003FF00000000000
0000007FE00000000000
0000007FE00000000000
0000007FE00000000000
000000FFC00000000000
000000FFC00000000000
000000FFC00000000000
000001FF800000000000
000001FF800000000000
000001FF800000000000
000003FF000000000000
000003FF000000000000
00000000000000000000
00000000000000000000
00000000000000000000
00000000000000000000
00000000000000000000
00000000000000000000
00000000000000000000
00000000000000000000
00000000000000000000
00000000000000000000
00000000000000000000
00000000000000000000
00000000000000000000
00000000000000000000
00000000000000000000
00000000000000000000
00000000000000000000
00000000000000000000
00000000000000000000
00000000000000000000
ENDCHAR
STARTCHAR U+00A5
ENCODING 165
SWIDTH 1000 0
DWIDTH 45 0
BBX 78 100 -16 -20
BITMAP
00000000000000000000
00000000000000000000
00000000000000000000
00000000000000000000
00000000000000000000
00000000000000000000
00000000000000000000
00000000000000000000
00000000000000000000
00000000000000000000
00000003FF00000FFC00
00000003FF00000FFC00
00000007FE00001FF800
00000007FE00001FF800
00000007FE00001FF800
0000000FFC00003FF000
0000000FFC00003FF000
0000000FFC00003FF000
0000001FF800007FE000
0000001FF800007FE000
00000000FFC00FFC0000
00000001FF801FF80000
00000001FF801FF80000
00000001FF801FF80000
00000003FF003FF00000
00000003FF003FF00000
00000003FF003FF00000
00000007FE007FE00000
00000007FE007FE00000
00000007FE007FE00000
000000007FFFF8000000
000000007FFFF8000000
000000007FFFF8000000
00000000FFFFF0000000
00000000FFFFF0000000
00000000FFFFF0000000
00000001FFFFE0000000
00000001FFFFE0000000
00000001FFFFE0000000
00000003FFFFC0000000
000000001FF800000000
000000001FF800000000
000000003FF000000000
000000003FF000000000
000000003FF000000000
000000007FE000000000
000000007FE000000000
000000007FE000000000
00000000FFC000000000
00000000FFC000000000
00007FFFFFFFFF800000
0000FFFFFFFFFF000000
0000FFFFFFFFFF000000
0000FFFFFFFFFF000000
0001FFFFFFFFFE000000
0001FFFFFFFFFE000000
0001FFFFFFFFFE000000
0003FFFFFFFFFC000000
0003FFFFFFFFFC000000
0003FFFFFFFFFC000000
0000000FFC0000000000
0000000FFC0000000000
0000000FFC0000000000
0000001FF80000000000
0000001FF80000000000
0000001FF80000000000
0000003FF00000000000
0000003FF00000000000
0000003FF00000000000
0000007FE00000000000
0000007FE00000000000
0000007FE00000000000
000000FFC00000000000
000000FFC00000000000
000000FFC00000000000
000001FF800000000000
000001FF800000000000
000001FF800000000000
000003FF000000000000
000003FF000000000000
00000000000000000000
00000000000000000000
00000000000000000000
00000000000000000000
00000000000000000000
00000000000000000000
00000000000000000000
00000000000000000000
00000000000000000000
00000000000000000000
00000000000000000000
00000000000000000000
00000000000000000000
00000000000000000000
00000000000000000000
00000000000000000000
00000000000000000000
00000000000000000000
00000000000000000000
00000000000000000000
ENDCHAR
STARTCHAR U+00A8
ENCODING 168
SWIDTH 1000 0
DWIDTH 45 0
BBX 78 100 -16 -20
BITMAP
0000000003FF003FF000
0000000003FF003FF000
0000000003FF003FF000
0000000007FE007FE000
0000000007FE007FE000
0000000007FE007FE000
000000000FFC00FFC000
000000000FFC00FFC000
000000000FFC00FFC000
000000001FF801FF8000
00000000000000000000
00000000000000000000
00000000000000000000
00000000000000000000
00000000000000000000
00000000000000000000
00000000000000000000
00000000000000000000
00000000000000000000
00000000000000000000
00000000000000000000
00000000000000000000
00000000000000000000
00000000000000000000
00000000000000000000
00000000000000000000
00000000000000000000
00000000000000000000
00000000000000000000
00000000000000000000
00000000000000000000
00000000000000000000
00000000000000000000
00000000000000000000
00000000000000000000
00000000000000000000
00000000000000000000
00000000000000000000
00000000000000000000
00000000000000000000
00000000000000000000
00000000000000000000
00000000000000000000
00000000000000000000
00000000000000000000
00000000000000000000
00000000000000000000
00000000000000000000
00000000000000000000
00000000000000000000
00000000000000000000
00000000000000000000
00000000000000000000
00000000000000000000
00000000000000000000
00000000000000000000
00000000000000000000
00000000000000000000
00000000000000000000
00000000000000000000
00000000000000000000
00000000000000000000
00000000000000000000
00000000000000000000
00000000000000000000
00000000000000000000
00000000000000000000
00000000000000000000
00000000000000000000
00000000000000000000
00000000000000000000
00000000000000000000
00000000000000000000
00000000000000000000
00000000000000000000
00000000000000000000
00000000000000000000
00000000000000000000
00000000000000000000
00000000000000000000
00000000000000000000
00000000000000000000
00000000000000000000
00000000000000000000
00000000000000000000
00000000000000000000
00000000000000000000
00000000000000000000
00000000000000000000
00000000000000000000
00000000000000000000
00000000000000000000
00000000000000000000
00000000000000000000
00000000000000000000
00000000000000000000
00000000000000000000
00000000000000000000
00000000000000000000
00000000000000000000
ENDCHAR
ENDFONT
